LibertinusSerif-BoldItalic.ufo
<glyph name="exclam" format="2">
	<unicode hex="0021"/>
	<advance width="266"/>
	<outline>
		<contour>
			<point x="256" y="665" type="curve" smooth="yes"/>
			<point x="228" y="665"/>
			<point x="177" y="645"/>
			<point x="173" y="583" type="curve" smooth="yes"/>
			<point x="166" y="473"/>
			<point x="157" y="372"/>
			<point x="136" y="213" type="curve"/>
			<point x="136" y="208" type="line" smooth="yes"/>
			<point x="136" y="194"/>
			<point x="143" y="188"/>
			<point x="157" y="188" type="curve" smooth="yes"/>
			<point x="179" y="188"/>
			<point x="188" y="212"/>
			<point x="192" y="230" type="curve" smooth="yes"/>
			<point x="209" y="313"/>
			<point x="311" y="552"/>
			<point x="311" y="603" type="curve" smooth="yes"/>
			<point x="311" y="640"/>
			<point x="292" y="665"/>
		</contour>
		<contour>
			<point x="62" y="58" type="curve" smooth="yes"/>
			<point x="62" y="19"/>
			<point x="97" y="-10"/>
			<point x="134" y="-10" type="curve" smooth="yes"/>
			<point x="174" y="-10"/>
			<point x="208" y="22"/>
			<point x="208" y="60" type="curve" smooth="yes"/>
			<point x="208" y="99"/>
			<point x="175" y="129"/>
			<point name=".hr01" x="136" y="129" type="curve" smooth="yes"/>
			<point x="96" y="129"/>
			<point x="62" y="97"/>
		</contour>
	</outline>
</glyph>
<glyph name="quotedbl" format="2">
	<unicode hex="0022"/>
	<advance width="376"/>
	<outline>
		<contour>
			<point x="125" y="411" type="line"/>
			<point x="164" y="417" type="line"/>
			<point x="241" y="608" type="line"/>
			<point x="241" y="622" type="line" smooth="yes"/>
			<point x="241" y="635"/>
			<point x="234" y="645"/>
			<point x="205" y="645" type="curve" smooth="yes"/>
			<point x="164" y="645"/>
			<point x="137" y="614"/>
			<point x="132" y="591" type="curve"/>
		</contour>
		<contour>
			<point x="257" y="411" type="line"/>
			<point x="296" y="417" type="line"/>
			<point x="373" y="608" type="line"/>
			<point x="373" y="621" type="line" smooth="yes"/>
			<point x="373" y="634"/>
			<point x="367" y="645"/>
			<point x="337" y="645" type="curve" smooth="yes"/>
			<point x="297" y="645"/>
			<point x="269" y="614"/>
			<point x="265" y="591" type="curve"/>
		</contour>
	</outline>
</glyph>
<glyph name="numbersign" format="2">
	<unicode hex="0023"/>
	<advance width="514"/>
	<outline>
		<contour>
			<point x="417" y="360" type="line"/>
			<point x="528" y="360" type="line"/>
			<point x="550" y="426" type="line"/>
			<point x="440" y="426" type="line"/>
			<point x="502" y="599" type="line"/>
			<point x="454" y="599" type="line"/>
			<point x="432" y="541"/>
			<point x="412" y="484"/>
			<point x="390" y="426" type="curve"/>
			<point x="299" y="426" type="line"/>
			<point x="364" y="599" type="line"/>
			<point x="312" y="599" type="line"/>
			<point x="290" y="541"/>
			<point x="269" y="484"/>
			<point x="248" y="426" type="curve"/>
			<point x="154" y="426" type="line"/>
			<point x="131" y="360" type="line"/>
			<point x="225" y="360" type="line"/>
			<point x="212" y="323"/>
			<point x="200" y="290"/>
			<point x="186" y="253" type="curve"/>
			<point x="92" y="253" type="line"/>
			<point x="70" y="187" type="line"/>
			<point x="163" y="187" type="line"/>
			<point x="100" y="14" type="line"/>
			<point x="152" y="14" type="line"/>
			<point x="174" y="72"/>
			<point x="193" y="127"/>
			<point x="216" y="187" type="curve"/>
			<point x="307" y="187" type="line"/>
			<point x="243" y="14" type="line"/>
			<point x="293" y="14" type="line"/>
			<point x="314" y="72"/>
			<point x="333" y="127"/>
			<point x="356" y="187" type="curve"/>
			<point x="467" y="187" type="line"/>
			<point x="489" y="253" type="line"/>
			<point x="378" y="253" type="line"/>
		</contour>
		<contour>
			<point x="328" y="253" type="line"/>
			<point x="238" y="253" type="line"/>
			<point x="252" y="290"/>
			<point x="265" y="323"/>
			<point x="279" y="360" type="curve"/>
			<point x="367" y="360" type="line"/>
		</contour>
	</outline>
</glyph>
<glyph name="dollar" format="2">
	<unicode hex="0024"/>
	<advance width="514"/>
	<outline>
		<contour>
			<point x="527" y="585" type="curve"/>
			<point x="502" y="589"/>
			<point x="486" y="596"/>
			<point x="465" y="601" type="curve"/>
			<point x="452" y="605"/>
			<point x="437" y="608"/>
			<point x="416" y="609" type="curve"/>
			<point x="439" y="695" type="line"/>
			<point x="427" y="695"/>
			<point x="408" y="693"/>
			<point x="399" y="690" type="curve"/>
			<point x="378" y="610" type="line"/>
			<point x="339" y="608"/>
			<point x="285" y="595"/>
			<point x="244" y="566" type="curve" smooth="yes"/>
			<point x="209" y="541"/>
			<point x="179" y="503"/>
			<point x="167" y="463" type="curve"/>
			<point x="165" y="459"/>
			<point x="164" y="455"/>
			<point x="163" y="450" type="curve" smooth="yes"/>
			<point x="155" y="414"/>
			<point x="156" y="373"/>
			<point x="170" y="345" type="curve" smooth="yes"/>
			<point x="194" y="297"/>
			<point x="246" y="267"/>
			<point x="281" y="242" type="curve"/>
			<point x="225" y="32" type="line"/>
			<point x="176" y="43"/>
			<point x="138" y="91"/>
			<point x="138" y="165" type="curve"/>
			<point x="126" y="170"/>
			<point x="112" y="167"/>
			<point x="98" y="163" type="curve"/>
			<point x="97" y="163"/>
			<point x="96" y="162"/>
			<point x="94" y="162" type="curve"/>
			<point x="79" y="92"/>
			<point x="77" y="43"/>
			<point name=".hr01" x="79" y="9" type="curve"/>
			<point x="93" y="9"/>
			<point x="102" y="8"/>
			<point x="112" y="6" type="curve"/>
			<point x="133" y="1"/>
			<point x="153" y="-7"/>
			<point x="215" y="-8" type="curve"/>
			<point x="191" y="-98" type="line"/>
			<point x="200" y="-98"/>
			<point x="223" y="-97"/>
			<point name=".hr02" x="230" y="-93" type="curve"/>
			<point x="253" y="-9" type="line"/>
			<point name=".hr03" x="304" y="-8"/>
			<point x="352" y="8"/>
			<point x="394" y="41" type="curve" smooth="yes"/>
			<point x="431" y="70"/>
			<point x="469" y="114"/>
			<point x="481" y="171" type="curve"/>
			<point x="481" y="171" type="line"/>
			<point x="491" y="219"/>
			<point x="477" y="247"/>
			<point x="458" y="277" type="curve" smooth="yes"/>
			<point x="433" y="317"/>
			<point x="385" y="345"/>
			<point x="355" y="364" type="curve"/>
			<point x="354" y="365"/>
			<point x="353" y="365"/>
			<point x="352" y="366" type="curve"/>
			<point x="405" y="568" type="line"/>
			<point x="445" y="555"/>
			<point x="456" y="512"/>
			<point x="461" y="468" type="curve" smooth="yes"/>
			<point x="462" y="458"/>
			<point x="462" y="448"/>
			<point x="463" y="439" type="curve"/>
			<point x="474" y="435"/>
			<point x="496" y="436"/>
			<point x="507" y="444" type="curve"/>
			<point x="517" y="493"/>
			<point x="522" y="531"/>
		</contour>
		<contour>
			<point x="312" y="216" type="line"/>
			<point x="341" y="188"/>
			<point x="367" y="152"/>
			<point x="357" y="107" type="curve" smooth="yes"/>
			<point x="348" y="66"/>
			<point x="310" y="37"/>
			<point x="263" y="31" type="curve"/>
		</contour>
		<contour>
			<point x="321" y="392" type="line"/>
			<point x="296" y="418"/>
			<point x="273" y="453"/>
			<point x="280" y="489" type="curve"/>
			<point x="291" y="537"/>
			<point x="327" y="568"/>
			<point x="368" y="572" type="curve"/>
		</contour>
	</outline>
</glyph>
<glyph name="quotesingle" format="2">
	<unicode hex="0027"/>
	<advance width="215"/>
	<outline>
		<contour>
			<point x="127" y="411" type="curve"/>
			<point x="152" y="417" type="line"/>
			<point x="152" y="417"/>
			<point x="225" y="593"/>
			<point x="228" y="608" type="curve" smooth="yes"/>
			<point x="232" y="626"/>
			<point x="233" y="645"/>
			<point x="193" y="645" type="curve" smooth="yes"/>
			<point x="153" y="645"/>
			<point x="126" y="614"/>
			<point x="121" y="591" type="curve"/>
			<point x="119" y="585"/>
			<point x="113" y="415"/>
			<point x="113" y="415" type="curve"/>
			<point x="113" y="415"/>
			<point x="127" y="411"/>
		</contour>
	</outline>
</glyph>
<glyph name="parenright" format="2">
	<unicode hex="0029"/>
	<advance width="315"/>
	<outline>
		<contour>
			<point x="325" y="251" type="curve" smooth="yes"/>
			<point x="328" y="265"/>
			<point x="334" y="294"/>
			<point x="336" y="334" type="curve" smooth="yes"/>
			<point x="339" y="388"/>
			<point x="336" y="461"/>
			<point x="309" y="538" type="curve"/>
			<point x="290" y="597"/>
			<point x="258" y="658"/>
			<point x="206" y="717" type="curve"/>
			<point x="171" y="685" type="line"/>
			<point x="186" y="661"/>
			<point x="227" y="593"/>
			<point x="235" y="473" type="curve" smooth="yes"/>
			<point x="236" y="453"/>
			<point x="237" y="431"/>
			<point x="236" y="408" type="curve" smooth="yes"/>
			<point x="235" y="362"/>
			<point x="229" y="310"/>
			<point x="217" y="251" type="curve" smooth="yes"/>
			<point x="200" y="172"/>
			<point x="176" y="104"/>
			<point x="149" y="48" type="curve" smooth="yes"/>
			<point x="87" y="-84"/>
			<point x="12" y="-158"/>
			<point x="-13" y="-182" type="curve"/>
			<point x="6" y="-216" type="line"/>
			<point x="80" y="-160"/>
			<point x="150" y="-88"/>
			<point x="206" y="-8" type="curve" smooth="yes"/>
			<point x="263" y="72"/>
			<point x="306" y="160"/>
		</contour>
	</outline>
</glyph>
<glyph name="asterisk" format="2">
	<unicode hex="002A"/>
	<advance width="433"/>
	<outline>
		<contour>
			<point x="247" y="566" type="curve"/>
			<point x="208" y="528"/>
			<point x="162" y="533"/>
			<point x="151" y="479" type="curve"/>
			<point x="150" y="477"/>
			<point x="150" y="474"/>
			<point x="150" y="472" type="curve" smooth="yes"/>
			<point x="150" y="460"/>
			<point x="159" y="451"/>
			<point x="172" y="451" type="curve" smooth="yes"/>
			<point x="227" y="451"/>
			<point x="226" y="507"/>
			<point x="259" y="552" type="curve"/>
			<point x="264" y="539"/>
			<point x="266" y="524"/>
			<point x="267" y="509" type="curve"/>
			<point x="271" y="479"/>
			<point x="274" y="451"/>
			<point x="305" y="451" type="curve" smooth="yes"/>
			<point x="307" y="451"/>
			<point x="309" y="451"/>
			<point x="311" y="452" type="curve"/>
			<point x="323" y="454"/>
			<point x="338" y="465"/>
			<point x="341" y="480" type="curve"/>
			<point x="342" y="484"/>
			<point x="342" y="487"/>
			<point x="342" y="490" type="curve"/>
			<point x="344" y="514"/>
			<point x="329" y="524"/>
			<point x="311" y="536" type="curve"/>
			<point x="300" y="544"/>
			<point x="288" y="552"/>
			<point x="279" y="565" type="curve"/>
			<point x="297" y="568"/>
			<point x="312" y="568"/>
			<point x="330" y="568" type="curve" smooth="yes"/>
			<point x="363" y="568"/>
			<point x="397" y="578"/>
			<point x="404" y="608" type="curve"/>
			<point x="404" y="609"/>
			<point x="404" y="611"/>
			<point x="404" y="613" type="curve"/>
			<point x="405" y="624"/>
			<point x="399" y="642"/>
			<point x="374" y="642" type="curve" smooth="yes"/>
			<point x="343" y="642"/>
			<point x="325" y="607"/>
			<point x="279" y="588" type="curve"/>
			<point x="286" y="616"/>
			<point x="313" y="651"/>
			<point x="321" y="677" type="curve"/>
			<point x="322" y="679"/>
			<point x="323" y="681"/>
			<point x="323" y="683" type="curve"/>
			<point x="324" y="686"/>
			<point x="324" y="690"/>
			<point x="324" y="692" type="curve"/>
			<point x="323" y="710"/>
			<point x="308" y="718"/>
			<point x="293" y="718" type="curve" smooth="yes"/>
			<point x="276" y="718"/>
			<point x="253" y="700"/>
			<point x="249" y="679" type="curve"/>
			<point x="248" y="677"/>
			<point x="248" y="674"/>
			<point x="248" y="672" type="curve"/>
			<point x="247" y="662"/>
			<point x="250" y="652"/>
			<point x="252" y="641" type="curve"/>
			<point x="255" y="628"/>
			<point x="259" y="614"/>
			<point x="258" y="597" type="curve"/>
			<point x="258" y="594"/>
			<point x="257" y="591"/>
			<point x="257" y="588" type="curve"/>
			<point x="220" y="607"/>
			<point x="211" y="640"/>
			<point x="179" y="640" type="curve" smooth="yes"/>
			<point x="157" y="640"/>
			<point x="144" y="622"/>
			<point x="141" y="608" type="curve"/>
			<point x="140" y="605"/>
			<point x="140" y="601"/>
			<point x="140" y="598" type="curve"/>
			<point x="137" y="563"/>
			<point x="169" y="564"/>
			<point x="210" y="571" type="curve"/>
			<point x="220" y="572"/>
			<point x="229" y="570"/>
			<point x="237" y="568" type="curve"/>
			<point x="240" y="567"/>
			<point x="244" y="567"/>
		</contour>
	</outline>
</glyph>
<glyph name="plus" format="2">
	<unicode hex="002B"/>
	<advance width="537"/>
	<outline>
		<contour>
			<point x="369" y="269" type="line"/>
			<point x="403" y="433" type="line"/>
			<point x="326" y="433" type="line"/>
			<point x="291" y="269" type="line"/>
			<point x="134" y="269" type="line"/>
			<point x="119" y="195" type="line"/>
			<point x="275" y="195" type="line"/>
			<point x="241" y="32" type="line"/>
			<point x="318" y="32" type="line"/>
			<point x="353" y="195" type="line"/>
			<point x="510" y="195" type="line"/>
			<point x="525" y="269" type="line"/>
		</contour>
	</outline>
</glyph>
<glyph name="comma" format="2">
	<unicode hex="002C"/>
	<advance width="244"/>
	<outline>
		<contour>
			<point x="143" y="127" type="curve" smooth="yes"/>
			<point x="118" y="127"/>
			<point x="76" y="96"/>
			<point x="71" y="73" type="curve"/>
			<point x="70" y="70"/>
			<point x="70" y="67"/>
			<point x="69" y="63" type="curve"/>
			<point x="67" y="41"/>
			<point x="76" y="17"/>
			<point x="95" y="6" type="curve"/>
			<point x="96" y="5"/>
			<point x="97" y="5"/>
			<point x="99" y="4" type="curve"/>
			<point x="108" y="0"/>
			<point x="126" y="-8"/>
			<point x="122" y="-27" type="curve" smooth="yes"/>
			<point x="117" y="-53"/>
			<point x="52" y="-124"/>
			<point x="6" y="-136" type="curve"/>
			<point x="-2" y="-149"/>
			<point x="-4" y="-159"/>
			<point x="6" y="-167" type="curve"/>
			<point x="43" y="-161"/>
			<point x="90" y="-136"/>
			<point x="124" y="-108" type="curve" smooth="yes"/>
			<point x="158" y="-80"/>
			<point x="193" y="-31"/>
			<point x="201" y="4" type="curve" smooth="yes"/>
			<point x="204" y="18"/>
			<point x="206" y="32"/>
			<point x="207" y="44" type="curve"/>
			<point x="210" y="99"/>
			<point x="186" y="127"/>
		</contour>
	</outline>
</glyph>
<glyph name="three" format="2">
	<unicode hex="0033"/>
	<advance width="514"/>
	<outline>
		<contour>
			<point x="325" y="550" type="curve" smooth="yes"/>
			<point x="364" y="550"/>
			<point x="397" y="520"/>
			<point x="397" y="482" type="curve" smooth="yes"/>
			<point x="397" y="419"/>
			<point x="380" y="384"/>
			<point x="318" y="354" type="curve" smooth="yes"/>
			<point x="289" y="340"/>
			<point x="257" y="333"/>
			<point x="225" y="329" type="curve"/>
			<point x="220" y="289" type="line"/>
			<point x="239" y="291"/>
			<point x="256" y="291"/>
			<point x="270" y="291" type="curve" smooth="yes"/>
			<point x="273" y="291"/>
			<point x="277" y="291"/>
			<point x="281" y="290" type="curve"/>
			<point x="321" y="285"/>
			<point name=".hr01" x="371" y="252"/>
			<point x="371" y="182" type="curve" smooth="yes"/>
			<point x="371" y="144"/>
			<point x="359" y="110"/>
			<point x="340" y="84" type="curve"/>
			<point x="315" y="52"/>
			<point x="280" y="32"/>
			<point x="243" y="32" type="curve" smooth="yes"/>
			<point x="232" y="32"/>
			<point x="223" y="34"/>
			<point x="214" y="37" type="curve"/>
			<point x="192" y="46"/>
			<point x="175" y="62"/>
			<point x="169" y="74" type="curve"/>
			<point x="162" y="89"/>
			<point x="147" y="111"/>
			<point x="112" y="111" type="curve" smooth="yes"/>
			<point x="79" y="111"/>
			<point x="61" y="83"/>
			<point x="61" y="58" type="curve" smooth="yes"/>
			<point x="61" y="54"/>
			<point x="61" y="51"/>
			<point x="62" y="47" type="curve"/>
			<point x="65" y="38"/>
			<point x="72" y="30"/>
			<point x="83" y="23" type="curve"/>
			<point x="110" y="7"/>
			<point x="163" y="-7"/>
			<point x="207" y="-10" type="curve"/>
			<point x="212" y="-10"/>
			<point x="216" y="-10"/>
			<point x="220" y="-10" type="curve" smooth="yes"/>
			<point x="285" y="-10"/>
			<point x="366" y="0"/>
			<point x="426" y="60" type="curve" smooth="yes"/>
			<point x="466" y="100"/>
			<point x="499" y="141"/>
			<point x="499" y="217" type="curve" smooth="yes"/>
			<point x="499" y="221"/>
			<point x="499" y="226"/>
			<point x="498" y="230" type="curve"/>
			<point x="493" y="280"/>
			<point x="459" y="323"/>
			<point x="399" y="344" type="curve"/>
			<point x="399" y="347" type="line"/>
			<point x="472" y="386"/>
			<point x="511" y="422"/>
			<point x="511" y="492" type="curve" smooth="yes"/>
			<point x="511" y="498"/>
			<point x="510" y="504"/>
			<point name=".hr02" x="509" y="511" type="curve"/>
			<point x="500" y="550"/>
			<point x="464" y="601"/>
			<point x="386" y="609" type="curve"/>
			<point x="379" y="610"/>
			<point x="372" y="610"/>
			<point x="365" y="610" type="curve" smooth="yes"/>
			<point x="298" y="610"/>
			<point x="246" y="578"/>
			<point x="209" y="551" type="curve"/>
			<point x="206" y="548"/>
			<point x="203" y="546"/>
			<point x="200" y="544" type="curve"/>
			<point x="170" y="521"/>
			<point x="148" y="500"/>
			<point x="148" y="474" type="curve" smooth="yes"/>
			<point x="148" y="453"/>
			<point x="161" y="440"/>
			<point x="179" y="436" type="curve"/>
			<point x="183" y="435"/>
			<point x="187" y="434"/>
			<point x="192" y="434" type="curve" smooth="yes"/>
			<point x="224" y="434"/>
			<point x="240" y="463"/>
			<point x="249" y="492" type="curve"/>
			<point x="250" y="497"/>
			<point x="251" y="501"/>
			<point x="252" y="505" type="curve" smooth="yes"/>
			<point x="261" y="545"/>
			<point x="293" y="550"/>
		</contour>
	</outline>
</glyph>
<glyph name="five" format="2">
	<unicode hex="0035"/>
	<advance width="514"/>
	<outline>
		<contour>
			<point x="358" y="193" type="curve" smooth="yes"/>
			<point x="358" y="148"/>
			<point x="345" y="105"/>
			<point x="322" y="75" type="curve" smooth="yes"/>
			<point x="302" y="50"/>
			<point x="274" y="34"/>
			<point x="240" y="34" type="curve" smooth="yes"/>
			<point x="221" y="34"/>
			<point x="199" y="55"/>
			<point x="188" y="79" type="curve" smooth="yes"/>
			<point x="179" y="99"/>
			<point x="157" y="118"/>
			<point x="122" y="118" type="curve" smooth="yes"/>
			<point x="87" y="118"/>
			<point x="67" y="91"/>
			<point x="67" y="63" type="curve" smooth="yes"/>
			<point x="67" y="47"/>
			<point x="78" y="29"/>
			<point x="96" y="18" type="curve" smooth="yes"/>
			<point x="128" y="-2"/>
			<point x="178" y="-10"/>
			<point x="223" y="-10" type="curve" smooth="yes"/>
			<point x="362" y="-10"/>
			<point x="487" y="77"/>
			<point x="487" y="218" type="curve" smooth="yes"/>
			<point x="487" y="223"/>
			<point x="487" y="227"/>
			<point x="486" y="232" type="curve"/>
			<point x="481" y="292"/>
			<point x="440" y="360"/>
			<point x="341" y="384" type="curve" smooth="yes"/>
			<point x="313" y="391"/>
			<point x="260" y="404"/>
			<point x="234" y="408" type="curve"/>
			<point x="273" y="513" type="line"/>
			<point x="302" y="510"/>
			<point x="368" y="508"/>
			<point x="408" y="508" type="curve" smooth="yes"/>
			<point x="442" y="508"/>
			<point x="460" y="510"/>
			<point x="518" y="514" type="curve"/>
			<point x="554" y="600" type="line"/>
			<point x="548" y="604"/>
			<point x="541" y="609"/>
			<point x="535" y="613" type="curve"/>
			<point x="465" y="606"/>
			<point x="428" y="600"/>
			<point x="372" y="600" type="curve" smooth="yes"/>
			<point x="334" y="600"/>
			<point x="305" y="606"/>
			<point x="252" y="610" type="curve"/>
			<point x="152" y="321" type="line"/>
			<point x="155" y="318"/>
			<point x="159" y="316"/>
			<point x="162" y="313" type="curve"/>
			<point x="198" y="312"/>
			<point x="266" y="302"/>
			<point x="296" y="293" type="curve" smooth="yes"/>
			<point x="338" y="280"/>
			<point x="358" y="248"/>
		</contour>
	</outline>
</glyph>
<glyph name="seven" format="2">
	<unicode hex="0037"/>
	<advance width="514"/>
	<outline>
		<contour>
			<point x="269" y="498" type="curve" smooth="yes"/>
			<point x="467" y="498" type="line"/>
			<point x="376" y="362"/>
			<point x="223" y="144"/>
			<point x="119" y="0" type="curve"/>
			<point x="122" y="-12" type="line"/>
			<point x="224" y="-2" type="line"/>
			<point x="318" y="169"/>
			<point x="402" y="319"/>
			<point x="581" y="591" type="curve"/>
			<point x="577" y="600" type="line"/>
			<point x="549" y="600"/>
			<point x="521" y="600"/>
			<point x="493" y="600" type="curve" smooth="yes"/>
			<point x="239" y="600" type="line" smooth="yes"/>
			<point x="207" y="600"/>
			<point x="208" y="606"/>
			<point x="192" y="610" type="curve"/>
			<point x="192" y="610"/>
			<point x="192" y="610"/>
			<point x="192" y="610" type="curve"/>
			<point x="189" y="610"/>
			<point x="188" y="610"/>
			<point x="187" y="607" type="curve"/>
			<point x="176" y="559"/>
			<point x="160" y="472"/>
			<point x="150" y="414" type="curve"/>
			<point x="163" y="409"/>
			<point x="179" y="408"/>
			<point x="190" y="410" type="curve"/>
			<point x="221" y="482"/>
			<point x="238" y="498"/>
		</contour>
	</outline>
</glyph>
<glyph name="less" format="2">
	<unicode hex="003C"/>
	<advance width="512"/>
	<outline>
		<contour>
			<point x="212" y="240" type="line"/>
			<point x="536" y="356" type="line"/>
			<point x="549" y="418" type="line"/>
			<point x="113" y="262" type="line"/>
			<point x="103" y="218" type="line"/>
			<point x="473" y="62" type="line"/>
			<point x="487" y="124" type="line"/>
		</contour>
	</outline>
</glyph>
<glyph name="equal" format="2">
	<unicode hex="003D"/>
	<advance width="551"/>
	<outline>
		<contour>
			<point x="552" y="323" type="line"/>
			<point x="144" y="323" type="line"/>
			<point x="132" y="266" type="line"/>
			<point x="540" y="266" type="line"/>
		</contour>
		<contour>
			<point x="526" y="198" type="line"/>
			<point x="118" y="198" type="line"/>
			<point x="106" y="142" type="line"/>
			<point x="514" y="142" type="line"/>
		</contour>
	</outline>
</glyph>
<glyph name="greater" format="2">
	<unicode hex="003E"/>
	<advance width="512"/>
	<outline>
		<contour>
			<point x="406" y="238" type="line"/>
			<point x="83" y="122" type="line"/>
			<point x="70" y="60" type="line"/>
			<point x="506" y="215" type="line"/>
			<point x="516" y="259" type="line"/>
			<point x="146" y="416" type="line"/>
			<point x="133" y="354" type="line"/>
		</contour>
	</outline>
</glyph>
<glyph name="question" format="2">
	<unicode hex="003F"/>
	<advance width="430"/>
	<outline>
		<contour>
			<point x="238" y="570" type="curve"/>
			<point x="243" y="595"/>
			<point x="274" y="617"/>
			<point x="309" y="621" type="curve"/>
			<point x="314" y="622"/>
			<point x="318" y="622"/>
			<point x="323" y="622" type="curve" smooth="yes"/>
			<point x="376" y="622"/>
			<point x="387" y="570"/>
			<point x="375" y="512" type="curve" smooth="yes"/>
			<point x="364" y="462"/>
			<point x="337" y="425"/>
			<point x="298" y="394" type="curve" smooth="yes"/>
			<point x="227" y="337"/>
			<point x="209" y="286"/>
			<point x="200" y="247" type="curve"/>
			<point x="199" y="242"/>
			<point x="198" y="236"/>
			<point x="197" y="231" type="curve"/>
			<point x="193" y="216" type="line"/>
			<point x="192" y="211"/>
			<point x="191" y="206"/>
			<point x="191" y="201" type="curve" smooth="yes"/>
			<point x="191" y="197"/>
			<point x="192" y="194"/>
			<point x="194" y="191" type="curve"/>
			<point x="195" y="188"/>
			<point x="198" y="186"/>
			<point x="201" y="184" type="curve"/>
			<point x="205" y="183"/>
			<point x="210" y="182"/>
			<point x="216" y="182" type="curve" smooth="yes"/>
			<point x="243" y="182"/>
			<point x="249" y="191"/>
			<point x="255" y="216" type="curve"/>
			<point x="257" y="229" type="line"/>
			<point x="264" y="259"/>
			<point x="274" y="281"/>
			<point x="286" y="298" type="curve" smooth="yes"/>
			<point x="303" y="322"/>
			<point x="324" y="336"/>
			<point x="342" y="348" type="curve" smooth="yes"/>
			<point x="397" y="385"/>
			<point x="466" y="431"/>
			<point x="481" y="505" type="curve" smooth="yes"/>
			<point x="483" y="515"/>
			<point x="484" y="524"/>
			<point x="485" y="533" type="curve"/>
			<point x="489" y="609"/>
			<point x="436" y="658"/>
			<point x="340" y="658" type="curve" smooth="yes"/>
			<point x="335" y="658"/>
			<point x="331" y="658"/>
			<point x="326" y="658" type="curve"/>
			<point x="275" y="656"/>
			<point x="233" y="642"/>
			<point x="203" y="619" type="curve" smooth="yes"/>
			<point x="165" y="591"/>
			<point x="142" y="568"/>
			<point x="135" y="533" type="curve" smooth="yes"/>
			<point x="134" y="528"/>
			<point x="133" y="523"/>
			<point x="134" y="518" type="curve"/>
			<point x="134" y="490"/>
			<point x="156" y="475"/>
			<point x="176" y="475" type="curve" smooth="yes"/>
			<point x="204" y="475"/>
			<point x="229" y="491"/>
			<point x="235" y="516" type="curve" smooth="yes"/>
			<point x="238" y="530"/>
			<point x="237" y="539"/>
			<point x="236" y="547" type="curve"/>
			<point x="236" y="554"/>
			<point x="235" y="560"/>
		</contour>
		<contour>
			<point x="115" y="58" type="curve" smooth="yes"/>
			<point name=".hr01" x="107" y="20"/>
			<point x="130" y="-10"/>
			<point x="168" y="-10" type="curve" smooth="yes"/>
			<point x="206" y="-10"/>
			<point x="244" y="22"/>
			<point x="252" y="60" type="curve"/>
			<point x="253" y="64"/>
			<point x="254" y="69"/>
			<point x="254" y="73" type="curve"/>
			<point x="255" y="105"/>
			<point x="233" y="129"/>
			<point x="199" y="129" type="curve" smooth="yes"/>
			<point x="162" y="129"/>
			<point x="123" y="97"/>
		</contour>
	</outline>
</glyph>
<glyph name="at" format="2">
	<unicode hex="0040"/>
	<advance width="988"/>
	<outline>
		<contour>
			<point x="652" y="80" type="curve"/>
			<point x="654" y="91"/>
			<point x="667" y="120"/>
			<point x="678" y="146" type="curve" smooth="yes"/>
			<point x="788" y="399" type="line"/>
			<point x="765" y="410" type="line"/>
			<point x="723" y="377" type="line"/>
			<point x="711" y="398"/>
			<point x="688" y="415"/>
			<point x="642" y="415" type="curve"/>
			<point x="642" y="415"/>
			<point x="642" y="415"/>
			<point x="642" y="415" type="curve"/>
			<point x="534" y="415"/>
			<point x="373" y="286"/>
			<point x="346" y="158" type="curve" smooth="yes"/>
			<point x="339" y="122"/>
			<point x="339" y="79"/>
			<point x="361" y="54" type="curve" smooth="yes"/>
			<point x="378" y="35"/>
			<point x="404" y="26"/>
			<point x="447" y="26" type="curve" smooth="yes"/>
			<point x="470" y="26"/>
			<point x="519" y="44"/>
			<point x="559" y="86" type="curve"/>
			<point x="559" y="86" type="line"/>
			<point x="557" y="77"/>
			<point x="557" y="68"/>
			<point x="558" y="61" type="curve" smooth="yes"/>
			<point x="559" y="53"/>
			<point x="563" y="46"/>
			<point name=".hr01" x="568" y="39" type="curve"/>
			<point x="578" y="27"/>
			<point x="608" y="24"/>
			<point x="638" y="24" type="curve" smooth="yes"/>
			<point x="764" y="24"/>
			<point x="901" y="147"/>
			<point x="931" y="287" type="curve" smooth="yes"/>
			<point x="971" y="476"/>
			<point x="860" y="621"/>
			<point x="648" y="621" type="curve" smooth="yes"/>
			<point x="410" y="621"/>
			<point x="211" y="428"/>
			<point x="167" y="221" type="curve" smooth="yes"/>
			<point x="118" y="-7"/>
			<point x="249" y="-160"/>
			<point x="471" y="-160" type="curve" smooth="yes"/>
			<point x="587" y="-160"/>
			<point x="654" y="-124"/>
			<point x="724" y="-75" type="curve"/>
			<point x="711" y="-46" type="line"/>
			<point x="642" y="-97"/>
			<point x="570" y="-121"/>
			<point x="498" y="-121" type="curve" smooth="yes"/>
			<point x="268" y="-121"/>
			<point x="225" y="80"/>
			<point x="257" y="228" type="curve" smooth="yes"/>
			<point x="260" y="241"/>
			<point x="263" y="253"/>
			<point x="266" y="266" type="curve"/>
			<point x="326" y="473"/>
			<point x="494" y="584"/>
			<point x="631" y="584" type="curve" smooth="yes"/>
			<point x="741" y="584"/>
			<point x="895" y="494"/>
			<point x="848" y="273" type="curve" smooth="yes"/>
			<point x="818" y="129"/>
			<point x="701" y="66"/>
			<point x="666" y="66" type="curve" smooth="yes"/>
			<point x="656" y="66"/>
			<point x="649" y="67"/>
		</contour>
		<contour>
			<point x="652" y="320" type="curve"/>
			<point x="648" y="298"/>
			<point x="621" y="240"/>
			<point x="604" y="204" type="curve" smooth="yes"/>
			<point x="602" y="200"/>
			<point x="600" y="196"/>
			<point x="598" y="193" type="curve"/>
			<point x="558" y="114"/>
			<point x="525" y="78"/>
			<point x="498" y="73" type="curve"/>
			<point name=".hr02" x="496" y="72"/>
			<point x="493" y="72"/>
			<point x="491" y="72" type="curve" smooth="yes"/>
			<point x="446" y="72"/>
			<point x="448" y="117"/>
			<point x="458" y="164" type="curve" smooth="yes"/>
			<point x="470" y="223"/>
			<point x="497" y="285"/>
			<point x="543" y="332" type="curve" smooth="yes"/>
			<point x="547" y="336"/>
			<point x="550" y="340"/>
			<point x="554" y="343" type="curve"/>
			<point x="583" y="370"/>
			<point x="607" y="378"/>
			<point x="623" y="380" type="curve"/>
			<point x="629" y="381"/>
			<point x="634" y="381"/>
			<point x="638" y="381" type="curve" smooth="yes"/>
			<point x="662" y="381"/>
			<point x="660" y="355"/>
		</contour>
	</outline>
</glyph>
<glyph name="C" format="2">
	<unicode hex="0043"/>
	<advance width="675"/>
	<outline>
		<contour>
			<point x="378" y="-10" type="curve" smooth="yes"/>
			<point x="471" y="-10"/>
			<point x="566" y="36"/>
			<point x="649" y="125" type="curve"/>
			<point x="646" y="134"/>
			<point x="632" y="146"/>
			<point x="621" y="146" type="curve"/>
			<point x="538" y="68"/>
			<point x="455" y="42"/>
			<point x="388" y="42" type="curve" smooth="yes"/>
			<point x="295" y="42"/>
			<point x="237" y="136"/>
			<point x="237" y="250" type="curve" smooth="yes"/>
			<point x="237" y="395"/>
			<point x="332" y="616"/>
			<point x="491" y="616" type="curve" smooth="yes"/>
			<point x="623" y="616"/>
			<point x="651" y="539"/>
			<point x="659" y="453" type="curve"/>
			<point x="670" y="449"/>
			<point x="690" y="452"/>
			<point x="702" y="458" type="curve"/>
			<point x="707" y="510"/>
			<point x="709" y="558"/>
			<point x="711" y="613" type="curve"/>
			<point x="663" y="618"/>
			<point x="627" y="658"/>
			<point x="516" y="658" type="curve" smooth="yes"/>
			<point x="279" y="658"/>
			<point x="89" y="474"/>
			<point x="89" y="240" type="curve" smooth="yes"/>
			<point x="89" y="57"/>
			<point x="205" y="-10"/>
		</contour>
	</outline>
	<anchor name="t.uni0302" x="489" y="740"/>
</glyph>
<glyph name="D" format="2">
	<unicode hex="0044"/>
	<advance width="698"/>
	<outline>
		<contour>
			<point x="177" y="1" type="curve" smooth="yes"/>
			<point x="215" y="1"/>
			<point x="294" y="-2"/>
			<point x="332" y="-2" type="curve" smooth="yes"/>
			<point x="571" y="-2"/>
			<point x="726" y="153"/>
			<point x="726" y="387" type="curve" smooth="yes"/>
			<point x="726" y="566"/>
			<point x="599" y="646"/>
			<point x="432" y="646" type="curve" smooth="yes"/>
			<point x="383" y="646"/>
			<point x="335" y="645"/>
			<point x="286" y="645" type="curve" smooth="yes"/>
			<point x="239" y="645"/>
			<point name=".hr01" x="163" y="647"/>
			<point x="155" y="647" type="curve"/>
			<point x="145" y="642"/>
			<point x="139" y="619"/>
			<point x="148" y="613" type="curve"/>
			<point x="193" y="610"/>
			<point x="219" y="599"/>
			<point x="219" y="563" type="curve"/>
			<point x="133" y="122" type="line"/>
			<point x="122" y="62"/>
			<point x="105" y="32"/>
			<point x="36" y="32" type="curve"/>
			<point x="28" y="27"/>
			<point x="19" y="5"/>
			<point x="29" y="-2" type="curve"/>
			<point x="40" y="-2"/>
			<point x="139" y="1"/>
		</contour>
		<contour>
			<point x="267" y="119" type="curve" smooth="yes"/>
			<point x="346" y="529" type="line" smooth="yes"/>
			<point x="357" y="584"/>
			<point x="385" y="604"/>
			<point name=".hr02" x="420" y="604" type="curve" smooth="yes"/>
			<point x="549" y="604"/>
			<point x="585" y="525"/>
			<point x="585" y="426" type="curve" smooth="yes"/>
			<point x="585" y="291"/>
			<point x="510" y="40"/>
			<point x="343" y="40" type="curve" smooth="yes"/>
			<point x="288" y="40"/>
			<point x="263" y="48"/>
			<point x="263" y="88" type="curve" smooth="yes"/>
			<point x="263" y="97"/>
			<point x="265" y="107"/>
		</contour>
	</outline>
</glyph>
<glyph name="Q" format="2">
	<unicode hex="0051"/>
	<advance width="699"/>
	<outline>
		<contour>
			<point x="127" y="-129" type="curve"/>
			<point x="118" y="-136"/>
			<point x="110" y="-144"/>
			<point x="104" y="-153" type="curve"/>
			<point x="135" y="-183" type="line"/>
			<point x="149" y="-167"/>
			<point x="163" y="-152"/>
			<point x="178" y="-138" type="curve"/>
			<point x="194" y="-128"/>
			<point x="210" y="-124"/>
			<point x="217" y="-124" type="curve" smooth="yes"/>
			<point x="306" y="-124"/>
			<point x="346" y="-229"/>
			<point x="471" y="-229" type="curve" smooth="yes"/>
			<point x="479" y="-229"/>
			<point x="486" y="-228"/>
			<point x="493" y="-227" type="curve" smooth="yes"/>
			<point x="543" y="-220"/>
			<point x="585" y="-186"/>
			<point x="627" y="-137" type="curve"/>
			<point x="615" y="-115" type="line"/>
			<point x="594" y="-137"/>
			<point x="566" y="-147"/>
			<point x="542" y="-151" type="curve" smooth="yes"/>
			<point x="536" y="-152"/>
			<point x="530" y="-152"/>
			<point x="524" y="-152" type="curve" smooth="yes"/>
			<point x="440" y="-152"/>
			<point x="390" y="-60"/>
			<point x="284" y="-60" type="curve"/>
			<point x="283" y="-60"/>
			<point x="282" y="-60"/>
			<point x="281" y="-60" type="curve"/>
			<point x="279" y="-60" type="line"/>
			<point x="319" y="-35"/>
			<point x="356" y="-18"/>
			<point x="383" y="-8" type="curve"/>
			<point x="391" y="-7"/>
			<point x="399" y="-6"/>
			<point x="407" y="-5" type="curve"/>
			<point x="575" y="21"/>
			<point x="702" y="156"/>
			<point x="731" y="328" type="curve" smooth="yes"/>
			<point x="735" y="353"/>
			<point x="737" y="378"/>
			<point x="737" y="404" type="curve" smooth="yes"/>
			<point x="737" y="560"/>
			<point x="629" y="658"/>
			<point x="476" y="658" type="curve" smooth="yes"/>
			<point x="380" y="658"/>
			<point x="288" y="615"/>
			<point x="219" y="546" type="curve" smooth="yes"/>
			<point x="161" y="488"/>
			<point x="112" y="410"/>
			<point x="95" y="315" type="curve"/>
			<point x="90" y="292"/>
			<point x="88" y="267"/>
			<point x="88" y="241" type="curve" smooth="yes"/>
			<point x="88" y="232"/>
			<point x="88" y="223"/>
			<point x="89" y="214" type="curve" smooth="yes"/>
			<point x="100" y="90"/>
			<point x="186" y="12"/>
			<point x="298" y="-6" type="curve"/>
			<point x="233" y="-38"/>
			<point x="170" y="-85"/>
		</contour>
		<contour>
			<point x="456" y="616" type="curve" smooth="yes"/>
			<point x="537" y="616"/>
			<point x="592" y="550"/>
			<point x="592" y="423" type="curve" smooth="yes"/>
			<point x="592" y="382"/>
			<point x="588" y="341"/>
			<point x="581" y="303" type="curve" smooth="yes"/>
			<point x="552" y="150"/>
			<point x="470" y="32"/>
			<point x="374" y="32" type="curve" smooth="yes"/>
			<point x="289" y="32"/>
			<point x="233" y="102"/>
			<point x="233" y="226" type="curve" smooth="yes"/>
			<point x="233" y="261"/>
			<point x="237" y="298"/>
			<point x="244" y="333" type="curve" smooth="yes"/>
			<point x="258" y="404"/>
			<point x="283" y="470"/>
			<point x="306" y="509" type="curve" smooth="yes"/>
			<point x="349" y="584"/>
			<point x="403" y="616"/>
		</contour>
	</outline>
</glyph>
<glyph name="S" format="2">
	<unicode hex="0053"/>
	<advance width="482"/>
	<outline>
		<contour>
			<point x="526" y="630" type="curve"/>
			<point x="467" y="640"/>
			<point x="437" y="658"/>
			<point x="374" y="658" type="curve" smooth="yes"/>
			<point x="239" y="658"/>
			<point x="129" y="580"/>
			<point x="129" y="445" type="curve" smooth="yes"/>
			<point x="129" y="366"/>
			<point x="176" y="317"/>
			<point x="246" y="270" type="curve" smooth="yes"/>
			<point x="276" y="249" type="line" smooth="yes"/>
			<point x="319" y="218"/>
			<point x="349" y="186"/>
			<point x="349" y="136" type="curve" smooth="yes"/>
			<point x="349" y="69"/>
			<point x="291" y="32"/>
			<point x="229" y="32" type="curve" smooth="yes"/>
			<point x="165" y="32"/>
			<point x="108" y="87"/>
			<point x="108" y="178" type="curve"/>
			<point x="103" y="180"/>
			<point x="98" y="181"/>
			<point x="92" y="181" type="curve" smooth="yes"/>
			<point x="81" y="181"/>
			<point x="70" y="179"/>
			<point x="59" y="175" type="curve"/>
			<point x="49" y="125"/>
			<point x="46" y="58"/>
			<point x="46" y="10" type="curve"/>
			<point x="101" y="10"/>
			<point x="99" y="-10"/>
			<point x="232" y="-10" type="curve" smooth="yes"/>
			<point x="354" y="-10"/>
			<point x="483" y="76"/>
			<point x="483" y="205" type="curve" smooth="yes"/>
			<point x="483" y="286"/>
			<point x="453" y="334"/>
			<point x="376" y="378" type="curve" smooth="yes"/>
			<point x="337" y="400" type="line" smooth="yes"/>
			<point x="299" y="421"/>
			<point x="260" y="461"/>
			<point x="260" y="512" type="curve" smooth="yes"/>
			<point x="260" y="576"/>
			<point x="312" y="616"/>
			<point x="362" y="616" type="curve" smooth="yes"/>
			<point x="443" y="616"/>
			<point x="454" y="539"/>
			<point name=".hr01" x="458" y="473" type="curve"/>
			<point x="463" y="471"/>
			<point x="470" y="470"/>
			<point x="477" y="470" type="curve" smooth="yes"/>
			<point x="488" y="470"/>
			<point x="500" y="473"/>
			<point x="507" y="478" type="curve"/>
			<point x="517" y="531"/>
			<point x="521" y="572"/>
		</contour>
	</outline>
	<anchor name="t.uni0302" x="383" y="740"/>
</glyph>
<glyph name="U" format="2">
	<unicode hex="0055"/>
	<advance width="702"/>
	<outline>
		<contour>
			<point x="121" y="160" type="curve" smooth="yes"/>
			<point x="121" y="6"/>
			<point x="241" y="-10"/>
			<point x="359" y="-10" type="curve" smooth="yes"/>
			<point x="556" y="-10"/>
			<point x="642" y="117"/>
			<point x="677" y="294" type="curve" smooth="yes"/>
			<point x="722" y="520" type="line"/>
			<point x="733" y="588"/>
			<point x="742" y="602"/>
			<point x="813" y="611" type="curve"/>
			<point x="819" y="621"/>
			<point x="826" y="641"/>
			<point x="820" y="647" type="curve"/>
			<point x="773" y="646"/>
			<point x="757" y="645"/>
			<point x="717" y="645" type="curve" smooth="yes"/>
			<point x="669" y="645"/>
			<point x="643" y="646"/>
			<point x="595" y="647" type="curve"/>
			<point x="589" y="641"/>
			<point x="583" y="623"/>
			<point x="588" y="611" type="curve"/>
			<point x="645" y="606"/>
			<point x="665" y="598"/>
			<point x="665" y="564" type="curve" smooth="yes"/>
			<point x="665" y="551"/>
			<point x="663" y="537"/>
			<point x="659" y="520" type="curve"/>
			<point x="611" y="276" type="line" smooth="yes"/>
			<point x="589" y="165"/>
			<point x="549" y="32"/>
			<point x="387" y="32" type="curve" smooth="yes"/>
			<point x="307" y="32"/>
			<point x="258" y="90"/>
			<point x="258" y="175" type="curve" smooth="yes"/>
			<point x="258" y="202"/>
			<point x="263" y="235"/>
			<point x="270" y="268" type="curve" smooth="yes"/>
			<point x="319" y="520" type="line"/>
			<point x="333" y="596"/>
			<point x="349" y="611"/>
			<point x="425" y="611" type="curve"/>
			<point x="431" y="621"/>
			<point x="438" y="641"/>
			<point x="432" y="647" type="curve"/>
			<point x="385" y="646"/>
			<point x="336" y="645"/>
			<point x="282" y="645" type="curve" smooth="yes"/>
			<point x="228" y="645"/>
			<point x="182" y="646"/>
			<point x="135" y="647" type="curve"/>
			<point x="129" y="641"/>
			<point x="124" y="622"/>
			<point x="129" y="611" type="curve"/>
			<point x="163" y="611"/>
			<point x="191" y="608"/>
			<point x="191" y="567" type="curve" smooth="yes"/>
			<point x="191" y="555"/>
			<point x="189" y="540"/>
			<point x="185" y="520" type="curve" smooth="yes"/>
			<point x="129" y="235" type="line" smooth="yes"/>
			<point x="123" y="206"/>
			<point x="121" y="179"/>
		</contour>
	</outline>
	<anchor name="t.uni0302" x="504" y="740"/>
</glyph>
<glyph name="V" format="2">
	<unicode hex="0056"/>
	<advance width="671"/>
	<outline>
		<contour>
			<point x="676" y="543" type="line" smooth="yes"/>
			<point x="711" y="603"/>
			<point x="742" y="610"/>
			<point x="785" y="613" type="curve"/>
			<point x="792" y="619"/>
			<point x="797" y="641"/>
			<point x="792" y="647" type="curve"/>
			<point x="756" y="646"/>
			<point x="738" y="645"/>
			<point x="701" y="645" type="curve"/>
			<point x="701" y="645"/>
			<point x="701" y="645"/>
			<point x="701" y="645" type="curve"/>
			<point x="662" y="645"/>
			<point x="609" y="646"/>
			<point x="574" y="647" type="curve"/>
			<point x="567" y="641"/>
			<point x="562" y="619"/>
			<point x="567" y="613" type="curve"/>
			<point x="603" y="610"/>
			<point x="646" y="604"/>
			<point x="625" y="566" type="curve" smooth="yes"/>
			<point x="423" y="210" type="line"/>
			<point x="407" y="184" type="line"/>
			<point x="404" y="180"/>
			<point x="402" y="175"/>
			<point x="399" y="171" type="curve"/>
			<point x="393" y="216" type="line"/>
			<point x="344" y="573" type="line" smooth="yes"/>
			<point x="339" y="606"/>
			<point x="375" y="610"/>
			<point x="422" y="613" type="curve"/>
			<point x="429" y="619"/>
			<point x="434" y="641"/>
			<point x="429" y="647" type="curve"/>
			<point x="393" y="646"/>
			<point x="297" y="645"/>
			<point x="260" y="645" type="curve" smooth="yes"/>
			<point x="254" y="645"/>
			<point x="247" y="645"/>
			<point x="239" y="645" type="curve" smooth="yes"/>
			<point x="203" y="645"/>
			<point x="160" y="646"/>
			<point x="131" y="647" type="curve"/>
			<point x="124" y="641"/>
			<point x="120" y="619"/>
			<point x="125" y="613" type="curve"/>
			<point x="162" y="609"/>
			<point x="192" y="606"/>
			<point x="201" y="559" type="curve" smooth="yes"/>
			<point x="304" y="11" type="line" smooth="yes"/>
			<point x="307" y="-4"/>
			<point x="320" y="-12"/>
			<point x="331" y="-12" type="curve" smooth="yes"/>
			<point x="338" y="-12"/>
			<point x="348" y="-9"/>
			<point x="357" y="-2" type="curve" smooth="yes"/>
			<point x="361" y="1"/>
			<point x="365" y="6"/>
			<point x="368" y="11" type="curve" smooth="yes"/>
		</contour>
	</outline>
</glyph>
<glyph name="W" format="2">
	<unicode hex="0057"/>
	<advance width="986"/>
	<outline>
		<contour>
			<point x="671" y="613" type="curve"/>
			<point x="642" y="607"/>
			<point x="613" y="613"/>
			<point x="613" y="613" type="curve"/>
			<point x="407" y="210" type="line"/>
			<point x="395" y="184" type="line"/>
			<point x="392" y="216" type="line"/>
			<point x="347" y="573" type="line" smooth="yes"/>
			<point x="343" y="604"/>
			<point x="379" y="610"/>
			<point x="426" y="613" type="curve"/>
			<point x="433" y="619"/>
			<point x="438" y="641"/>
			<point x="433" y="647" type="curve"/>
			<point x="397" y="646"/>
			<point x="301" y="645"/>
			<point x="264" y="645" type="curve" smooth="yes"/>
			<point x="225" y="645"/>
			<point x="170" y="646"/>
			<point x="135" y="647" type="curve"/>
			<point x="128" y="641"/>
			<point x="124" y="619"/>
			<point x="129" y="613" type="curve"/>
			<point x="166" y="609"/>
			<point x="198" y="605"/>
			<point x="205" y="559" type="curve"/>
			<point x="206" y="550"/>
			<point x="208" y="542"/>
			<point x="209" y="533" type="curve"/>
			<point x="288" y="11" type="line" smooth="yes"/>
			<point x="290" y="-4"/>
			<point x="304" y="-12"/>
			<point x="315" y="-12" type="curve" smooth="yes"/>
			<point x="325" y="-12"/>
			<point x="342" y="-8"/>
			<point x="352" y="11" type="curve" smooth="yes"/>
			<point x="539" y="363" type="line" smooth="yes"/>
			<point x="547" y="379"/>
			<point x="556" y="394"/>
			<point x="564" y="410" type="curve"/>
			<point x="564" y="410"/>
			<point x="564" y="410"/>
			<point x="564" y="410" type="curve"/>
			<point x="567" y="393"/>
			<point x="570" y="377"/>
			<point x="573" y="360" type="curve" smooth="yes"/>
			<point x="634" y="11" type="line" smooth="yes"/>
			<point x="636" y="0"/>
			<point x="650" y="-12"/>
			<point x="661" y="-12" type="curve" smooth="yes"/>
			<point x="671" y="-12"/>
			<point x="688" y="-7"/>
			<point x="698" y="11" type="curve" smooth="yes"/>
			<point x="987" y="543" type="line" smooth="yes"/>
			<point x="1019" y="602"/>
			<point x="1053" y="610"/>
			<point x="1096" y="613" type="curve"/>
			<point x="1103" y="619"/>
			<point x="1108" y="641"/>
			<point x="1103" y="647" type="curve"/>
			<point x="1067" y="646"/>
			<point x="1049" y="645"/>
			<point x="1012" y="645" type="curve" smooth="yes"/>
			<point x="1004" y="645"/>
			<point x="996" y="645"/>
			<point x="987" y="645" type="curve" smooth="yes"/>
			<point x="953" y="645"/>
			<point x="913" y="646"/>
			<point x="885" y="647" type="curve"/>
			<point x="878" y="641"/>
			<point x="873" y="619"/>
			<point x="878" y="613" type="curve"/>
			<point x="914" y="610"/>
			<point x="955" y="604"/>
			<point x="936" y="566" type="curve" smooth="yes"/>
			<point x="753" y="210" type="line"/>
			<point x="734" y="174" type="line"/>
			<point x="728" y="216" type="line"/>
			<point x="686" y="507" type="line" smooth="yes"/>
			<point x="681" y="542"/>
			<point x="676" y="578"/>
		</contour>
	</outline>
</glyph>
<glyph name="Z" format="2">
	<unicode hex="005A"/>
	<advance width="598"/>
	<outline>
		<contour>
			<point x="420" y="44" type="curve" smooth="yes"/>
			<point x="367" y="44"/>
			<point x="259" y="44"/>
			<point x="228" y="44" type="curve" smooth="yes"/>
			<point x="198" y="44"/>
			<point x="202" y="53"/>
			<point x="218" y="72" type="curve" smooth="yes"/>
			<point x="659" y="591" type="line" smooth="yes"/>
			<point x="684" y="620"/>
			<point x="687" y="626"/>
			<point x="689" y="637" type="curve" smooth="yes"/>
			<point x="690" y="643"/>
			<point x="687" y="647"/>
			<point x="674" y="647" type="curve" smooth="yes"/>
			<point x="662" y="647"/>
			<point x="638" y="645"/>
			<point x="611" y="645" type="curve" smooth="yes"/>
			<point x="418" y="645" type="line" smooth="yes"/>
			<point x="344" y="645"/>
			<point x="232" y="650"/>
			<point x="196" y="653" type="curve"/>
			<point x="194" y="653"/>
			<point x="191" y="651"/>
			<point x="191" y="650" type="curve"/>
			<point x="178" y="605"/>
			<point x="153" y="529"/>
			<point x="133" y="481" type="curve"/>
			<point x="142" y="477"/>
			<point x="158" y="476"/>
			<point x="170" y="476" type="curve"/>
			<point x="205" y="556"/>
			<point x="254" y="602"/>
			<point x="317" y="602" type="curve" smooth="yes"/>
			<point x="363" y="602"/>
			<point x="460" y="602"/>
			<point x="501" y="602" type="curve" smooth="yes"/>
			<point x="518" y="602"/>
			<point x="507" y="589"/>
			<point x="498" y="579" type="curve" smooth="yes"/>
			<point x="34" y="38" type="line" smooth="yes"/>
			<point x="27" y="30"/>
			<point x="23" y="22"/>
			<point x="22" y="15" type="curve"/>
			<point x="20" y="5"/>
			<point x="24" y="0"/>
			<point x="37" y="0" type="curve" smooth="yes"/>
			<point x="324" y="0" type="line" smooth="yes"/>
			<point x="398" y="0"/>
			<point x="510" y="-5"/>
			<point x="546" y="-8" type="curve"/>
			<point x="548" y="-8"/>
			<point x="551" y="-6"/>
			<point x="551" y="-5" type="curve"/>
			<point x="564" y="25"/>
			<point x="593" y="112"/>
			<point x="611" y="172" type="curve"/>
			<point x="602" y="176"/>
			<point x="586" y="177"/>
			<point x="574" y="177" type="curve"/>
			<point x="539" y="97"/>
			<point x="483" y="44"/>
		</contour>
	</outline>
</glyph>
<glyph name="bracketleft" format="2">
	<unicode hex="005B"/>
	<advance width="397"/>
	<outline>
		<contour>
			<point x="32" y="-193" type="line"/>
			<point x="277" y="-193" type="line"/>
			<point x="284" y="-187"/>
			<point x="288" y="-169"/>
			<point x="283" y="-163" type="curve"/>
			<point x="148" y="-152"/>
			<point x="134" y="-137"/>
			<point x="152" y="-50" type="curve" smooth="yes"/>
			<point x="282" y="561" type="line" smooth="yes"/>
			<point x="301" y="648"/>
			<point x="322" y="663"/>
			<point x="461" y="673" type="curve"/>
			<point x="468" y="679"/>
			<point x="466" y="697"/>
			<point x="461" y="703" type="curve"/>
			<point x="222" y="703" type="line"/>
		</contour>
	</outline>
</glyph>
<glyph name="backslash" format="2">
	<unicode hex="005C"/>
	<advance width="307"/>
	<outline>
		<contour>
			<point x="188" y="698" type="line"/>
			<point x="123" y="698" type="line"/>
			<point x="249" y="-48" type="line"/>
			<point x="314" y="-48" type="line"/>
		</contour>
	</outline>
</glyph>
<glyph name="bracketright" format="2">
	<unicode hex="005D"/>
	<advance width="397"/>
	<outline>
		<contour>
			<point x="473" y="703" type="line"/>
			<point x="228" y="703" type="line"/>
			<point x="221" y="697"/>
			<point x="217" y="679"/>
			<point x="222" y="673" type="curve"/>
			<point x="358" y="662"/>
			<point x="371" y="647"/>
			<point x="353" y="560" type="curve" smooth="yes"/>
			<point x="223" y="-51" type="line" smooth="yes"/>
			<point x="205" y="-138"/>
			<point x="183" y="-153"/>
			<point x="44" y="-163" type="curve"/>
			<point x="37" y="-169"/>
			<point x="39" y="-187"/>
			<point x="44" y="-193" type="curve"/>
			<point x="283" y="-193" type="line"/>
		</contour>
	</outline>
</glyph>
<glyph name="a" format="2">
	<unicode hex="0061"/>
	<advance width="558"/>
	<outline>
		<contour>
			<point x="508" y="436" type="curve" smooth="yes"/>
			<point x="497" y="436"/>
			<point x="485" y="434"/>
			<point x="472" y="433" type="curve"/>
			<point x="464" y="432"/>
			<point x="456" y="431"/>
			<point x="449" y="431" type="curve" smooth="yes"/>
			<point x="443" y="431"/>
			<point x="438" y="432"/>
			<point x="433" y="433" type="curve"/>
			<point x="411" y="436"/>
			<point x="408" y="438"/>
			<point name=".hr01" x="385" y="439" type="curve"/>
			<point x="380" y="439"/>
			<point x="375" y="439"/>
			<point x="368" y="439" type="curve" smooth="yes"/>
			<point x="284" y="439"/>
			<point x="204" y="386"/>
			<point x="149" y="316" type="curve" smooth="yes"/>
			<point x="107" y="262"/>
			<point x="78" y="199"/>
			<point x="75" y="130" type="curve"/>
			<point x="75" y="126"/>
			<point x="75" y="122"/>
			<point x="75" y="118" type="curve" smooth="yes"/>
			<point x="75" y="49"/>
			<point x="109" y="-10"/>
			<point x="182" y="-10" type="curve" smooth="yes"/>
			<point x="225" y="-10"/>
			<point x="287" y="38"/>
			<point x="347" y="127" type="curve"/>
			<point x="351" y="125" type="line"/>
			<point x="346" y="107" type="line" smooth="yes"/>
			<point x="344" y="100"/>
			<point x="343" y="93"/>
			<point x="342" y="86" type="curve"/>
			<point x="339" y="72"/>
			<point x="338" y="58"/>
			<point x="338" y="47" type="curve" smooth="yes"/>
			<point x="338" y="41"/>
			<point x="338" y="35"/>
			<point x="339" y="30" type="curve"/>
			<point x="340" y="27"/>
			<point x="340" y="25"/>
			<point x="341" y="23" type="curve"/>
			<point x="349" y="3"/>
			<point x="361" y="-10"/>
			<point x="391" y="-10" type="curve" smooth="yes"/>
			<point x="399" y="-10"/>
			<point x="406" y="-10"/>
			<point x="414" y="-9" type="curve" smooth="yes"/>
			<point x="475" y="-2"/>
			<point x="528" y="30"/>
			<point x="569" y="82" type="curve"/>
			<point x="566" y="91"/>
			<point x="554" y="110"/>
			<point x="540" y="110" type="curve"/>
			<point x="514" y="80"/>
			<point x="480" y="63"/>
			<point x="470" y="63" type="curve" smooth="yes"/>
			<point x="462" y="63"/>
			<point x="459" y="71"/>
			<point x="459" y="81" type="curve" smooth="yes"/>
			<point x="459" y="94"/>
			<point x="463" y="110"/>
			<point x="466" y="124" type="curve" smooth="yes"/>
			<point x="508" y="320" type="line" smooth="yes"/>
			<point x="517" y="360"/>
			<point x="529" y="398"/>
			<point x="529" y="415" type="curve" smooth="yes"/>
			<point x="529" y="429"/>
			<point name=".hr02" x="521" y="436"/>
		</contour>
		<contour>
			<point x="365" y="226" type="curve"/>
			<point x="316" y="136"/>
			<point x="276" y="85"/>
			<point x="244" y="85" type="curve"/>
			<point x="244" y="85"/>
			<point x="244" y="85"/>
			<point x="244" y="85" type="curve"/>
			<point x="213" y="85"/>
			<point x="200" y="108"/>
			<point x="200" y="138" type="curve" smooth="yes"/>
			<point x="200" y="147"/>
			<point x="200" y="156"/>
			<point x="201" y="165" type="curve" smooth="yes"/>
			<point x="206" y="216"/>
			<point x="225" y="271"/>
			<point x="251" y="315" type="curve" smooth="yes"/>
			<point x="277" y="358"/>
			<point x="312" y="390"/>
			<point x="350" y="396" type="curve"/>
			<point name=".hr03" x="354" y="397"/>
			<point x="359" y="397"/>
			<point x="363" y="397" type="curve" smooth="yes"/>
			<point x="384" y="397"/>
			<point x="395" y="391"/>
			<point x="397" y="378" type="curve"/>
			<point x="397" y="378"/>
			<point x="390" y="290"/>
		</contour>
	</outline>
	<anchor name="t.uni0302" x="385" y="500"/>
</glyph>
<glyph name="c" format="2">
	<unicode hex="0063"/>
	<advance width="434"/>
	<outline>
		<contour>
			<point x="421" y="87" type="curve"/>
			<point x="421" y="98"/>
			<point x="408" y="118"/>
			<point x="400" y="118" type="curve"/>
			<point x="356" y="81"/>
			<point x="323" y="66"/>
			<point x="292" y="66" type="curve" smooth="yes"/>
			<point x="239" y="66"/>
			<point x="204" y="110"/>
			<point x="204" y="184" type="curve" smooth="yes"/>
			<point x="204" y="284"/>
			<point x="267" y="402"/>
			<point x="328" y="402" type="curve" smooth="yes"/>
			<point x="350" y="402"/>
			<point x="369" y="386"/>
			<point x="369" y="363" type="curve" smooth="yes"/>
			<point x="369" y="351"/>
			<point x="364" y="339"/>
			<point x="364" y="326" type="curve" smooth="yes"/>
			<point x="364" y="301"/>
			<point x="383" y="284"/>
			<point x="409" y="284" type="curve" smooth="yes"/>
			<point x="446" y="284"/>
			<point x="476" y="319"/>
			<point x="476" y="359" type="curve" smooth="yes"/>
			<point x="476" y="410"/>
			<point x="427" y="444"/>
			<point x="354" y="444" type="curve" smooth="yes"/>
			<point x="206" y="444"/>
			<point x="72" y="300"/>
			<point x="72" y="143" type="curve" smooth="yes"/>
			<point x="72" y="41"/>
			<point x="128" y="-10"/>
			<point x="235" y="-10" type="curve" smooth="yes"/>
			<point x="295" y="-10"/>
			<point x="373" y="31"/>
		</contour>
	</outline>
</glyph>
<glyph name="d" format="2">
	<unicode hex="0064"/>
	<advance width="561"/>
	<outline>
		<contour>
			<point x="446" y="563" type="curve" smooth="yes"/>
			<point x="405" y="381" type="line"/>
			<point x="404" y="381" type="line"/>
			<point x="392" y="411"/>
			<point x="364" y="439"/>
			<point x="326" y="439" type="curve" smooth="yes"/>
			<point x="171" y="439"/>
			<point x="58" y="265"/>
			<point x="58" y="125" type="curve" smooth="yes"/>
			<point x="58" y="51"/>
			<point x="90" y="-10"/>
			<point x="171" y="-10" type="curve" smooth="yes"/>
			<point x="236" y="-10"/>
			<point x="283" y="30"/>
			<point x="343" y="118" type="curve"/>
			<point x="345" y="117" type="line"/>
			<point x="344" y="112" type="line" smooth="yes"/>
			<point x="337" y="78"/>
			<point x="335" y="58"/>
			<point x="335" y="46" type="curve" smooth="yes"/>
			<point x="335" y="13"/>
			<point x="350" y="-10"/>
			<point x="396" y="-10" type="curve" smooth="yes"/>
			<point x="456" y="-10"/>
			<point x="517" y="30"/>
			<point x="567" y="85" type="curve"/>
			<point x="564" y="94"/>
			<point x="552" y="113"/>
			<point x="538" y="113" type="curve"/>
			<point x="512" y="83"/>
			<point x="478" y="66"/>
			<point x="468" y="66" type="curve" smooth="yes"/>
			<point x="460" y="66"/>
			<point x="457" y="74"/>
			<point x="457" y="82" type="curve" smooth="yes"/>
			<point x="457" y="92"/>
			<point x="461" y="113"/>
			<point x="464" y="127" type="curve" smooth="yes"/>
			<point x="570" y="583" type="line" smooth="yes"/>
			<point x="578" y="616"/>
			<point x="589" y="667"/>
			<point x="593" y="678" type="curve"/>
			<point x="593" y="689"/>
			<point x="590" y="698"/>
			<point x="571" y="698" type="curve"/>
			<point x="537" y="684"/>
			<point x="434" y="672"/>
			<point x="389" y="672" type="curve"/>
			<point x="383" y="660"/>
			<point x="381" y="647"/>
			<point x="384" y="638" type="curve"/>
			<point x="431" y="638"/>
			<point x="452" y="634"/>
			<point x="452" y="602" type="curve" smooth="yes"/>
			<point x="452" y="592"/>
			<point x="450" y="579"/>
		</contour>
		<contour>
			<point x="225" y="56" type="curve" smooth="yes"/>
			<point x="192" y="56"/>
			<point x="180" y="94"/>
			<point x="180" y="143" type="curve" smooth="yes"/>
			<point x="180" y="255"/>
			<point x="243" y="392"/>
			<point x="324" y="392" type="curve" smooth="yes"/>
			<point x="371" y="392"/>
			<point x="389" y="345"/>
			<point x="389" y="310" type="curve"/>
			<point x="373" y="240"/>
			<point x="297" y="56"/>
		</contour>
	</outline>
</glyph>
<glyph name="e" format="2">
	<unicode hex="0065"/>
	<advance width="409"/>
	<outline>
		<contour>
			<point x="193" y="199" type="curve"/>
			<point x="392" y="241"/>
			<point x="456" y="283"/>
			<point x="456" y="368" type="curve" smooth="yes"/>
			<point x="456" y="403"/>
			<point x="415" y="439"/>
			<point x="329" y="439" type="curve" smooth="yes"/>
			<point x="140" y="439"/>
			<point x="63" y="268"/>
			<point x="63" y="135" type="curve" smooth="yes"/>
			<point x="63" y="57"/>
			<point x="89" y="-10"/>
			<point x="209" y="-10" type="curve" smooth="yes"/>
			<point x="276" y="-10"/>
			<point x="354" y="23"/>
			<point x="413" y="99" type="curve"/>
			<point x="408" y="110"/>
			<point x="393" y="124"/>
			<point x="381" y="124" type="curve"/>
			<point x="324" y="66"/>
			<point x="293" y="50"/>
			<point x="245" y="50" type="curve" smooth="yes"/>
			<point x="206" y="50"/>
			<point x="192" y="98"/>
			<point x="192" y="165" type="curve" smooth="yes"/>
			<point x="192" y="170"/>
			<point x="192" y="191"/>
		</contour>
		<contour>
			<point x="343" y="361" type="curve" smooth="yes"/>
			<point x="343" y="279"/>
			<point x="253" y="245"/>
			<point x="200" y="236" type="curve"/>
			<point x="234" y="377"/>
			<point x="272" y="397"/>
			<point x="309" y="397" type="curve" smooth="yes"/>
			<point x="332" y="397"/>
			<point x="343" y="389"/>
		</contour>
	</outline>
	<anchor name="t.uni0302" x="335" y="500"/>
</glyph>
<glyph name="f" format="2">
	<unicode hex="0066"/>
	<advance width="397"/>
	<outline>
		<contour>
			<point x="191" y="382" type="line"/>
			<point x="169" y="269"/>
			<point x="160" y="216"/>
			<point x="150" y="141" type="curve" smooth="yes"/>
			<point x="137" y="43"/>
			<point x="133" y="-79"/>
			<point x="89" y="-148" type="curve"/>
			<point x="86" y="-152"/>
			<point x="83" y="-156"/>
			<point x="80" y="-160" type="curve"/>
			<point x="67" y="-174"/>
			<point x="48" y="-185"/>
			<point x="34" y="-185" type="curve" smooth="yes"/>
			<point x="21" y="-185"/>
			<point x="10" y="-172"/>
			<point x="1" y="-158" type="curve"/>
			<point x="-13" y="-133"/>
			<point x="-34" y="-122"/>
			<point x="-57" y="-122" type="curve" smooth="yes"/>
			<point x="-90" y="-122"/>
			<point x="-102" y="-148"/>
			<point x="-102" y="-168" type="curve" smooth="yes"/>
			<point x="-102" y="-195"/>
			<point x="-70" y="-233"/>
			<point x="12" y="-233" type="curve" smooth="yes"/>
			<point x="57" y="-233"/>
			<point x="104" y="-213"/>
			<point x="140" y="-171" type="curve"/>
			<point x="144" y="-167"/>
			<point x="148" y="-163"/>
			<point x="151" y="-158" type="curve"/>
			<point x="185" y="-111"/>
			<point x="230" y="-48"/>
			<point x="269" y="130" type="curve" smooth="yes"/>
			<point x="286" y="208"/>
			<point x="300" y="271"/>
			<point x="315" y="359" type="curve" smooth="yes"/>
			<point x="319" y="382" type="line"/>
			<point x="412" y="382" type="line" smooth="yes"/>
			<point x="421" y="382"/>
			<point x="436" y="386"/>
			<point name=".hr01" x="438" y="394" type="curve"/>
			<point x="438" y="394"/>
			<point x="443" y="423"/>
			<point x="443" y="424" type="curve"/>
			<point x="443" y="427"/>
			<point x="441" y="429"/>
			<point x="436" y="429" type="curve" smooth="yes"/>
			<point x="326" y="429" type="line"/>
			<point x="337" y="486" type="line" smooth="yes"/>
			<point x="345" y="527"/>
			<point x="353" y="562"/>
			<point x="364" y="590" type="curve" smooth="yes"/>
			<point x="381" y="632"/>
			<point x="403" y="656"/>
			<point x="438" y="656" type="curve" smooth="yes"/>
			<point x="444" y="656"/>
			<point x="449" y="655"/>
			<point x="453" y="654" type="curve"/>
			<point x="471" y="650"/>
			<point x="480" y="637"/>
			<point x="484" y="618" type="curve" smooth="yes"/>
			<point x="489" y="591"/>
			<point x="499" y="555"/>
			<point x="540" y="555" type="curve" smooth="yes"/>
			<point x="577" y="555"/>
			<point x="592" y="587"/>
			<point x="592" y="609" type="curve" smooth="yes"/>
			<point x="592" y="653"/>
			<point x="532" y="692"/>
			<point x="456" y="697" type="curve"/>
			<point x="450" y="698"/>
			<point x="444" y="698"/>
			<point x="437" y="698" type="curve" smooth="yes"/>
			<point x="387" y="698"/>
			<point x="337" y="683"/>
			<point x="301" y="650" type="curve"/>
			<point x="298" y="647"/>
			<point x="294" y="644"/>
			<point x="291" y="640" type="curve"/>
			<point x="254" y="600"/>
			<point x="223" y="535"/>
			<point x="201" y="429" type="curve"/>
			<point x="135" y="426" type="line" smooth="yes"/>
			<point x="116" y="425"/>
			<point x="109" y="417"/>
			<point x="107" y="409" type="curve"/>
			<point x="106" y="406"/>
			<point x="103" y="386"/>
			<point x="103" y="384" type="curve" smooth="yes"/>
			<point name=".hr02" x="103" y="382"/>
			<point x="106" y="382"/>
			<point x="109" y="382" type="curve" smooth="yes"/>
		</contour>
	</outline>
</glyph>
<glyph name="k" format="2">
	<unicode hex="006B"/>
	<advance width="560"/>
	<outline>
		<contour>
			<point x="251" y="234" type="line"/>
			<point x="258" y="237"/>
			<point x="265" y="237"/>
			<point x="271" y="237" type="curve" smooth="yes"/>
			<point x="279" y="237"/>
			<point x="286" y="230"/>
			<point x="291" y="221" type="curve" smooth="yes"/>
			<point x="309" y="189"/>
			<point x="314" y="138"/>
			<point x="334" y="93" type="curve" smooth="yes"/>
			<point x="367" y="21"/>
			<point x="392" y="-10"/>
			<point x="433" y="-10" type="curve" smooth="yes"/>
			<point x="437" y="-10"/>
			<point x="441" y="-10"/>
			<point x="445" y="-10" type="curve"/>
			<point x="492" y="-6"/>
			<point x="542" y="21"/>
			<point x="570" y="77" type="curve"/>
			<point x="563" y="85"/>
			<point x="551" y="94"/>
			<point x="540" y="94" type="curve"/>
			<point x="520" y="65"/>
			<point x="500" y="52"/>
			<point x="489" y="52" type="curve" smooth="yes"/>
			<point x="469" y="52"/>
			<point x="463" y="68"/>
			<point x="456" y="90" type="curve"/>
			<point x="456" y="90"/>
			<point x="456" y="90"/>
			<point x="456" y="90" type="curve"/>
			<point x="438" y="146"/>
			<point x="429" y="174"/>
			<point x="415" y="202" type="curve"/>
			<point x="410" y="211"/>
			<point x="406" y="219"/>
			<point x="401" y="227" type="curve"/>
			<point x="388" y="245"/>
			<point x="373" y="260"/>
			<point x="349" y="266" type="curve"/>
			<point x="348" y="270" type="line"/>
			<point x="379" y="298" type="line" smooth="yes"/>
			<point x="386" y="304"/>
			<point x="393" y="310"/>
			<point x="400" y="316" type="curve" smooth="yes"/>
			<point x="432" y="344"/>
			<point name=".hr01" x="456" y="351"/>
			<point x="476" y="351" type="curve" smooth="yes"/>
			<point x="488" y="351"/>
			<point x="494" y="345"/>
			<point x="501" y="336" type="curve"/>
			<point x="510" y="326"/>
			<point name=".hr02" x="525" y="310"/>
			<point x="542" y="310" type="curve" smooth="yes"/>
			<point x="574" y="310"/>
			<point x="596" y="346"/>
			<point x="596" y="380" type="curve" smooth="yes"/>
			<point x="596" y="384"/>
			<point x="596" y="388"/>
			<point x="595" y="391" type="curve"/>
			<point x="590" y="415"/>
			<point x="569" y="439"/>
			<point x="531" y="439" type="curve" smooth="yes"/>
			<point x="499" y="439"/>
			<point x="428" y="401"/>
			<point x="356" y="337" type="curve"/>
			<point x="316" y="303" type="line"/>
			<point x="313" y="300"/>
			<point x="310" y="298"/>
			<point x="307" y="295" type="curve"/>
			<point x="290" y="282"/>
			<point x="269" y="269"/>
			<point x="252" y="274" type="curve"/>
		</contour>
		<contour>
			<point x="215" y="47" type="curve" smooth="yes"/>
			<point x="334" y="583" type="line" smooth="yes"/>
			<point x="343" y="623"/>
			<point x="349" y="652"/>
			<point x="359" y="679" type="curve"/>
			<point x="359" y="692"/>
			<point x="349" y="698"/>
			<point x="336" y="698" type="curve"/>
			<point x="292" y="685"/>
			<point x="200" y="675"/>
			<point x="153" y="672" type="curve"/>
			<point x="148" y="665"/>
			<point x="145" y="648"/>
			<point x="148" y="638" type="curve"/>
			<point x="194" y="635"/>
			<point x="216" y="624"/>
			<point x="216" y="601" type="curve" smooth="yes"/>
			<point x="216" y="594"/>
			<point x="214" y="580"/>
			<point x="210" y="563" type="curve" smooth="yes"/>
			<point x="89" y="29" type="line" smooth="yes"/>
			<point x="84" y="6"/>
			<point x="106" y="0"/>
			<point x="121" y="0" type="curve" smooth="yes"/>
			<point x="158" y="0" type="line" smooth="yes"/>
			<point x="186" y="0"/>
			<point x="207" y="11"/>
		</contour>
	</outline>
	<anchor name="t.uni0302" x="462" y="700"/>
</glyph>
<glyph name="l" format="2">
	<unicode hex="006C"/>
	<advance width="324"/>
	<outline>
		<contour>
			<point x="208" y="563" type="curve" smooth="yes"/>
			<point x="107" y="118" type="line" smooth="yes"/>
			<point x="102" y="95"/>
			<point x="97" y="68"/>
			<point x="97" y="47" type="curve" smooth="yes"/>
			<point x="97" y="14"/>
			<point x="111" y="-10"/>
			<point x="148" y="-10" type="curve" smooth="yes"/>
			<point x="218" y="-10"/>
			<point x="284" y="30"/>
			<point x="334" y="85" type="curve"/>
			<point x="331" y="94"/>
			<point x="319" y="113"/>
			<point x="305" y="113" type="curve"/>
			<point x="279" y="83"/>
			<point x="245" y="66"/>
			<point x="235" y="66" type="curve" smooth="yes"/>
			<point x="227" y="66"/>
			<point x="224" y="74"/>
			<point x="224" y="84" type="curve" smooth="yes"/>
			<point x="224" y="97"/>
			<point x="228" y="113"/>
			<point x="231" y="127" type="curve" smooth="yes"/>
			<point x="332" y="583" type="line" smooth="yes"/>
			<point x="341" y="623"/>
			<point x="347" y="652"/>
			<point name=".hr01" x="357" y="679" type="curve"/>
			<point x="357" y="692"/>
			<point x="347" y="698"/>
			<point x="334" y="698" type="curve"/>
			<point x="290" y="685"/>
			<point x="198" y="675"/>
			<point x="151" y="672" type="curve"/>
			<point x="146" y="665"/>
			<point x="143" y="648"/>
			<point x="146" y="638" type="curve"/>
			<point x="192" y="635"/>
			<point x="214" y="624"/>
			<point x="214" y="604" type="curve" smooth="yes"/>
			<point x="214" y="594"/>
			<point x="212" y="580"/>
		</contour>
	</outline>
</glyph>
<glyph name="m" format="2">
	<unicode hex="006D"/>
	<advance width="862"/>
	<outline>
		<contour>
			<point x="140" y="243" type="curve" smooth="yes"/>
			<point x="102" y="72" type="line" smooth="yes"/>
			<point x="94" y="38"/>
			<point x="90" y="21"/>
			<point x="90" y="13" type="curve" smooth="yes"/>
			<point x="90" y="-4"/>
			<point x="110" y="-10"/>
			<point x="153" y="-10" type="curve" smooth="yes"/>
			<point x="200" y="-10"/>
			<point x="206" y="-3"/>
			<point x="224" y="72" type="curve" smooth="yes"/>
			<point x="262" y="228" type="line"/>
			<point x="325" y="310"/>
			<point x="371" y="369"/>
			<point x="407" y="369" type="curve" smooth="yes"/>
			<point x="418" y="369"/>
			<point x="427" y="364"/>
			<point x="427" y="334" type="curve" smooth="yes"/>
			<point x="427" y="324"/>
			<point x="426" y="309"/>
			<point x="418" y="275" type="curve" smooth="yes"/>
			<point x="371" y="72" type="line" smooth="yes"/>
			<point x="362" y="34"/>
			<point x="361" y="22"/>
			<point x="361" y="17" type="curve" smooth="yes"/>
			<point x="361" y="1"/>
			<point x="370" y="-10"/>
			<point x="425" y="-10" type="curve" smooth="yes"/>
			<point x="468" y="-10"/>
			<point x="478" y="-3"/>
			<point x="495" y="72" type="curve" smooth="yes"/>
			<point x="537" y="258" type="line"/>
			<point x="590" y="324"/>
			<point x="633" y="369"/>
			<point x="672" y="369" type="curve" smooth="yes"/>
			<point x="685" y="369"/>
			<point x="699" y="364"/>
			<point x="699" y="328" type="curve" smooth="yes"/>
			<point x="699" y="319"/>
			<point x="698" y="309"/>
			<point x="690" y="275" type="curve" smooth="yes"/>
			<point x="653" y="115" type="line" smooth="yes"/>
			<point x="648" y="93"/>
			<point x="644" y="65"/>
			<point x="644" y="46" type="curve" smooth="yes"/>
			<point x="644" y="3"/>
			<point x="664" y="-10"/>
			<point x="705" y="-10" type="curve" smooth="yes"/>
			<point x="772" y="-10"/>
			<point x="836" y="26"/>
			<point x="880" y="82" type="curve"/>
			<point x="877" y="91"/>
			<point x="865" y="110"/>
			<point x="851" y="110" type="curve"/>
			<point x="825" y="80"/>
			<point x="791" y="63"/>
			<point x="781" y="63" type="curve" smooth="yes"/>
			<point x="774" y="63"/>
			<point x="769" y="69"/>
			<point x="769" y="77" type="curve" smooth="yes"/>
			<point x="769" y="82"/>
			<point x="770" y="93"/>
			<point x="777" y="124" type="curve" smooth="yes"/>
			<point x="815" y="283" type="line" smooth="yes"/>
			<point x="827" y="334"/>
			<point x="828" y="341"/>
			<point x="828" y="350" type="curve" smooth="yes"/>
			<point x="828" y="406"/>
			<point x="796" y="439"/>
			<point x="735" y="439" type="curve" smooth="yes"/>
			<point x="692" y="439"/>
			<point x="628" y="422"/>
			<point x="555" y="341" type="curve"/>
			<point x="556" y="347"/>
			<point x="556" y="352"/>
			<point x="556" y="353" type="curve"/>
			<point x="556" y="412"/>
			<point x="516" y="439"/>
			<point x="462" y="439" type="curve" smooth="yes"/>
			<point x="415" y="439"/>
			<point x="369" y="418"/>
			<point x="277" y="310" type="curve"/>
			<point x="276" y="311" type="line"/>
			<point x="283" y="344"/>
			<point x="289" y="378"/>
			<point x="289" y="412" type="curve" smooth="yes"/>
			<point x="289" y="426"/>
			<point name=".hr01" x="278" y="436"/>
			<point x="265" y="436" type="curve" smooth="yes"/>
			<point x="233" y="436"/>
			<point x="146" y="429"/>
			<point x="99" y="423" type="curve"/>
			<point x="92" y="415"/>
			<point x="91" y="394"/>
			<point x="97" y="385" type="curve"/>
			<point x="137" y="382" type="line" smooth="yes"/>
			<point x="151" y="381"/>
			<point x="155" y="364"/>
			<point x="155" y="352" type="curve" smooth="yes"/>
			<point x="155" y="341"/>
			<point x="155" y="309"/>
		</contour>
	</outline>
</glyph>
<glyph name="o" format="2">
	<unicode hex="006F"/>
	<advance width="479"/>
	<outline>
		<contour>
			<point x="67" y="162" type="curve" smooth="yes"/>
			<point x="67" y="98"/>
			<point x="93" y="-10"/>
			<point x="220" y="-10" type="curve" smooth="yes"/>
			<point x="385" y="-10"/>
			<point x="500" y="114"/>
			<point x="500" y="281" type="curve" smooth="yes"/>
			<point x="500" y="353"/>
			<point x="463" y="439"/>
			<point x="340" y="439" type="curve" smooth="yes"/>
			<point x="198" y="439"/>
			<point x="67" y="303"/>
		</contour>
		<contour>
			<point x="196" y="170" type="curve" smooth="yes"/>
			<point x="196" y="270"/>
			<point x="214" y="397"/>
			<point x="315" y="397" type="curve" smooth="yes"/>
			<point x="361" y="397"/>
			<point x="371" y="346"/>
			<point x="371" y="260" type="curve" smooth="yes"/>
			<point x="371" y="184"/>
			<point x="361" y="32"/>
			<point x="255" y="32" type="curve" smooth="yes"/>
			<point x="226" y="32"/>
			<point x="196" y="58"/>
		</contour>
	</outline>
	<anchor name="t.uni0302" x="334" y="500"/>
	<anchor name="b.uni0328" x="300" y="34"/>
	<guideline x="0" y="500" angle="0"/>
	<guideline x="228" y="3" angle="78"/>
</glyph>
<glyph name="p" format="2">
	<unicode hex="0070"/>
	<advance width="549"/>
	<outline>
		<contour>
			<point x="316" y="404" type="curve"/>
			<point x="320" y="422"/>
			<point x="329" y="452"/>
			<point x="329" y="464" type="curve" smooth="yes"/>
			<point x="329" y="481"/>
			<point x="319" y="491"/>
			<point x="287" y="491" type="curve" smooth="yes"/>
			<point x="283" y="491"/>
			<point x="279" y="490"/>
			<point x="274" y="489" type="curve"/>
			<point x="244" y="482"/>
			<point x="215" y="452"/>
			<point x="202" y="422" type="curve"/>
			<point x="200" y="418"/>
			<point x="199" y="413"/>
			<point x="198" y="409" type="curve" smooth="yes"/>
			<point x="186" y="360" type="line"/>
			<point x="136" y="324"/>
			<point x="99" y="294"/>
			<point x="71" y="259" type="curve"/>
			<point x="75" y="245"/>
			<point x="81" y="223"/>
			<point x="99" y="223" type="curve"/>
			<point x="121" y="252"/>
			<point x="143" y="270"/>
			<point x="171" y="293" type="curve"/>
			<point x="75" y="-151" type="line"/>
			<point x="75" y="-151" type="line"/>
			<point x="69" y="-179"/>
			<point x="54" y="-191"/>
			<point x="22" y="-196" type="curve" smooth="yes"/>
			<point x="3" y="-199" type="line"/>
			<point x="-2" y="-200"/>
			<point x="-7" y="-201"/>
			<point x="-7" y="-207" type="curve" smooth="yes"/>
			<point x="-7" y="-236" type="line"/>
			<point x="-5" y="-238" type="line"/>
			<point x="-5" y="-238"/>
			<point x="66" y="-235"/>
			<point x="113" y="-234" type="curve"/>
			<point x="125" y="-233"/>
			<point x="135" y="-233"/>
			<point x="142" y="-233" type="curve" smooth="yes"/>
			<point x="181" y="-233"/>
			<point x="249" y="-235"/>
			<point x="249" y="-235" type="curve"/>
			<point x="251" y="-233" type="line"/>
			<point x="251" y="-203" type="line" smooth="yes"/>
			<point x="251" y="-198"/>
			<point x="249" y="-196"/>
			<point x="245" y="-195" type="curve"/>
			<point x="226" y="-192" type="line" smooth="yes"/>
			<point x="211" y="-190"/>
			<point x="185" y="-185"/>
			<point x="193" y="-151" type="curve" smooth="yes"/>
			<point x="232" y="23" type="line"/>
			<point x="245" y="10"/>
			<point x="260" y="-4"/>
			<point x="286" y="-9" type="curve" smooth="yes"/>
			<point x="291" y="-10"/>
			<point x="297" y="-10"/>
			<point x="303" y="-10" type="curve" smooth="yes"/>
			<point x="358" y="-10"/>
			<point x="412" y="10"/>
			<point x="453" y="45" type="curve" smooth="yes"/>
			<point x="465" y="55"/>
			<point x="477" y="67"/>
			<point x="487" y="79" type="curve" smooth="yes"/>
			<point x="543" y="144"/>
			<point x="575" y="231"/>
			<point x="575" y="289" type="curve" smooth="yes"/>
			<point x="575" y="373"/>
			<point x="531" y="439"/>
			<point x="431" y="439" type="curve" smooth="yes"/>
			<point x="380" y="439"/>
			<point x="343" y="420"/>
		</contour>
		<contour>
			<point x="447" y="273" type="curve" smooth="yes"/>
			<point x="447" y="232"/>
			<point x="430" y="150"/>
			<point x="397" y="94" type="curve" smooth="yes"/>
			<point x="376" y="58"/>
			<point x="348" y="32"/>
			<point x="315" y="32" type="curve"/>
			<point x="315" y="32"/>
			<point x="315" y="32"/>
			<point x="315" y="32" type="curve"/>
			<point x="289" y="32"/>
			<point x="262" y="46"/>
			<point x="241" y="75" type="curve"/>
			<point x="305" y="354" type="line"/>
			<point x="325" y="367"/>
			<point x="348" y="381"/>
			<point x="375" y="386" type="curve"/>
			<point x="382" y="387"/>
			<point x="389" y="388"/>
			<point x="397" y="388" type="curve" smooth="yes"/>
			<point x="439" y="388"/>
			<point x="447" y="322"/>
		</contour>
	</outline>
</glyph>
<glyph name="q" format="2">
	<unicode hex="0071"/>
	<advance width="531"/>
	<outline>
		<contour>
			<point x="298" y="-161" type="line" smooth="yes"/>
			<point x="291" y="-189"/>
			<point x="277" y="-201"/>
			<point x="245" y="-206" type="curve" smooth="yes"/>
			<point x="226" y="-209" type="line"/>
			<point x="221" y="-210"/>
			<point x="216" y="-211"/>
			<point x="216" y="-217" type="curve" smooth="yes"/>
			<point x="216" y="-236" type="line"/>
			<point x="218" y="-238" type="line"/>
			<point x="218" y="-238"/>
			<point x="287" y="-233"/>
			<point x="323" y="-233" type="curve" smooth="yes"/>
			<point x="362" y="-233"/>
			<point x="473" y="-235"/>
			<point x="473" y="-235" type="curve"/>
			<point x="475" y="-233" type="line"/>
			<point x="475" y="-213" type="line" smooth="yes"/>
			<point x="475" y="-208"/>
			<point x="473" y="-206"/>
			<point x="469" y="-205" type="curve"/>
			<point x="450" y="-202" type="line" smooth="yes"/>
			<point x="435" y="-200"/>
			<point x="409" y="-195"/>
			<point x="417" y="-161" type="curve" smooth="yes"/>
			<point x="544" y="384" type="line" smooth="yes"/>
			<point x="552" y="419"/>
			<point x="556" y="442"/>
			<point x="527" y="442" type="curve" smooth="yes"/>
			<point x="520" y="442"/>
			<point x="495" y="436"/>
			<point x="477" y="420" type="curve"/>
			<point x="474" y="417"/>
			<point x="449" y="395"/>
			<point x="439" y="386" type="curve"/>
			<point x="416" y="418"/>
			<point x="384" y="439"/>
			<point x="343" y="439" type="curve" smooth="yes"/>
			<point x="299" y="439"/>
			<point x="238" y="424"/>
			<point x="188" y="388" type="curve" smooth="yes"/>
			<point x="118" y="336"/>
			<point x="64" y="247"/>
			<point x="64" y="147" type="curve" smooth="yes"/>
			<point x="64" y="72"/>
			<point x="107" y="-10"/>
			<point x="201" y="-10" type="curve" smooth="yes"/>
			<point x="250" y="-10"/>
			<point x="299" y="14"/>
			<point x="361" y="100" type="curve"/>
			<point x="364" y="99" type="line"/>
		</contour>
		<contour>
			<point x="405" y="320" type="curve" smooth="yes"/>
			<point x="405" y="304"/>
			<point x="389" y="236"/>
			<point x="370" y="180" type="curve" smooth="yes"/>
			<point x="347" y="115"/>
			<point x="275" y="44"/>
			<point x="238" y="44" type="curve" smooth="yes"/>
			<point x="214" y="44"/>
			<point x="193" y="72"/>
			<point x="193" y="128" type="curve" smooth="yes"/>
			<point x="193" y="277"/>
			<point x="242" y="393"/>
			<point x="344" y="393" type="curve" smooth="yes"/>
			<point x="380" y="393"/>
			<point x="405" y="361"/>
		</contour>
	</outline>
</glyph>
<glyph name="s" format="2">
	<unicode hex="0073"/>
	<advance width="417"/>
	<outline>
		<contour>
			<point x="297" y="439" type="curve" smooth="yes"/>
			<point x="190" y="439"/>
			<point x="122" y="389"/>
			<point x="122" y="311" type="curve" smooth="yes"/>
			<point x="122" y="275"/>
			<point x="155" y="230"/>
			<point x="208" y="197" type="curve" smooth="yes"/>
			<point x="234" y="181" type="line" smooth="yes"/>
			<point x="279" y="153"/>
			<point x="300" y="124"/>
			<point x="300" y="81" type="curve" smooth="yes"/>
			<point x="300" y="55"/>
			<point x="272" y="32"/>
			<point x="239" y="32" type="curve" smooth="yes"/>
			<point x="209" y="32"/>
			<point x="183" y="51"/>
			<point x="167" y="89" type="curve" smooth="yes"/>
			<point x="154" y="120"/>
			<point x="135" y="138"/>
			<point x="113" y="138" type="curve" smooth="yes"/>
			<point x="87" y="138"/>
			<point x="65" y="113"/>
			<point x="65" y="82" type="curve" smooth="yes"/>
			<point x="65" y="29"/>
			<point x="132" y="-10"/>
			<point x="221" y="-10" type="curve" smooth="yes"/>
			<point x="327" y="-10"/>
			<point x="405" y="46"/>
			<point x="405" y="122" type="curve" smooth="yes"/>
			<point x="405" y="173"/>
			<point x="371" y="218"/>
			<point x="292" y="262" type="curve" smooth="yes"/>
			<point x="260" y="280" type="line" smooth="yes"/>
			<point x="232" y="296"/>
			<point x="214" y="323"/>
			<point x="214" y="347" type="curve" smooth="yes"/>
			<point x="214" y="375"/>
			<point x="239" y="397"/>
			<point x="270" y="397" type="curve" smooth="yes"/>
			<point x="310" y="397"/>
			<point x="322" y="361"/>
			<point x="333" y="329" type="curve" smooth="yes"/>
			<point x="340" y="309"/>
			<point x="355" y="298"/>
			<point x="374" y="298" type="curve" smooth="yes"/>
			<point x="403" y="298"/>
			<point x="426" y="322"/>
			<point x="426" y="351" type="curve" smooth="yes"/>
			<point x="426" y="398"/>
			<point x="365" y="439"/>
		</contour>
	</outline>
	<anchor name="t.uni0302" x="300" y="500"/>
</glyph>
<glyph name="u" format="2">
	<unicode hex="0075"/>
	<advance width="646"/>
	<outline>
		<contour>
			<point x="458" y="225" type="line"/>
			<point x="392" y="131"/>
			<point x="347" y="76"/>
			<point x="307" y="76" type="curve" smooth="yes"/>
			<point x="282" y="76"/>
			<point x="272" y="97"/>
			<point x="272" y="123" type="curve" smooth="yes"/>
			<point x="272" y="134"/>
			<point x="274" y="146"/>
			<point x="277" y="158" type="curve" smooth="yes"/>
			<point x="323" y="356" type="line"/>
			<point x="327" y="371"/>
			<point x="331" y="388"/>
			<point x="331" y="400" type="curve" smooth="yes"/>
			<point x="331" y="429"/>
			<point x="309" y="443"/>
			<point x="268" y="443" type="curve" smooth="yes"/>
			<point x="202" y="443"/>
			<point x="130" y="407"/>
			<point x="84" y="348" type="curve"/>
			<point x="87" y="339"/>
			<point x="102" y="323"/>
			<point x="116" y="323" type="curve"/>
			<point x="142" y="353"/>
			<point x="176" y="370"/>
			<point x="186" y="370" type="curve" smooth="yes"/>
			<point x="194" y="370"/>
			<point x="197" y="362"/>
			<point x="197" y="353" type="curve" smooth="yes"/>
			<point x="197" y="343"/>
			<point x="193" y="322"/>
			<point x="190" y="309" type="curve" smooth="yes"/>
			<point x="152" y="150" type="line" smooth="yes"/>
			<point x="146" y="125"/>
			<point x="144" y="101"/>
			<point x="144" y="76" type="curve" smooth="yes"/>
			<point x="144" y="19"/>
			<point x="190" y="-6"/>
			<point x="240" y="-6" type="curve" smooth="yes"/>
			<point x="288" y="-6"/>
			<point x="347" y="19"/>
			<point x="450" y="145" type="curve"/>
		</contour>
		<contour>
			<point x="434" y="122" type="line"/>
			<point x="428" y="103"/>
			<point x="423" y="76"/>
			<point x="423" y="53" type="curve" smooth="yes"/>
			<point x="423" y="18"/>
			<point x="435" y="-10"/>
			<point x="476" y="-10" type="curve" smooth="yes"/>
			<point x="546" y="-10"/>
			<point x="608" y="23"/>
			<point x="654" y="82" type="curve"/>
			<point x="651" y="91"/>
			<point x="639" y="110"/>
			<point x="625" y="110" type="curve"/>
			<point x="599" y="80"/>
			<point x="565" y="63"/>
			<point x="555" y="63" type="curve" smooth="yes"/>
			<point x="547" y="63"/>
			<point x="544" y="71"/>
			<point x="544" y="81" type="curve" smooth="yes"/>
			<point x="544" y="90"/>
			<point x="546" y="101"/>
			<point x="551" y="124" type="curve" smooth="yes"/>
			<point x="603" y="361" type="line"/>
			<point x="606" y="377"/>
			<point x="612" y="404"/>
			<point x="612" y="411" type="curve" smooth="yes"/>
			<point x="612" y="436"/>
			<point x="591" y="443"/>
			<point x="556" y="443" type="curve" smooth="yes"/>
			<point x="512" y="443"/>
			<point x="497" y="428"/>
			<point x="489" y="394" type="curve" smooth="yes"/>
			<point x="423" y="123" type="line"/>
		</contour>
	</outline>
	<anchor name="t.uni0302" x="423" y="500"/>
	<guideline x="431" y="357" angle="255.231"/>
	<guideline x="450" y="124" angle="76.2005"/>
	<guideline x="208" y="151" angle="75.2218"/>
</glyph>
<glyph name="v" format="2">
	<unicode hex="0076"/>
	<advance width="507"/>
	<outline>
		<contour>
			<point x="332" y="108" type="line"/>
			<point x="315" y="309" type="line"/>
			<point x="315" y="315"/>
			<point x="314" y="321"/>
			<point x="313" y="327" type="curve"/>
			<point x="307" y="381"/>
			<point x="292" y="439"/>
			<point x="251" y="439" type="curve" smooth="yes"/>
			<point x="245" y="439"/>
			<point x="238" y="438"/>
			<point x="231" y="436" type="curve" smooth="yes"/>
			<point x="187" y="424"/>
			<point x="123" y="377"/>
			<point x="80" y="326" type="curve"/>
			<point x="85" y="312"/>
			<point x="95" y="302"/>
			<point x="112" y="298" type="curve"/>
			<point x="137" y="330"/>
			<point x="167" y="347"/>
			<point x="175" y="347" type="curve" smooth="yes"/>
			<point x="181" y="347"/>
			<point x="187" y="339"/>
			<point x="193" y="296" type="curve" smooth="yes"/>
			<point x="224" y="58" type="line" smooth="yes"/>
			<point x="229" y="23"/>
			<point x="237" y="-12"/>
			<point x="264" y="-12" type="curve" smooth="yes"/>
			<point x="280" y="-12"/>
			<point x="303" y="2"/>
			<point x="327" y="21" type="curve" smooth="yes"/>
			<point x="369" y="56"/>
			<point x="414" y="108"/>
			<point x="430" y="129" type="curve" smooth="yes"/>
			<point x="452" y="157"/>
			<point x="499" y="219"/>
			<point x="527" y="285" type="curve" smooth="yes"/>
			<point x="542" y="320"/>
			<point x="554" y="356"/>
			<point x="554" y="392" type="curve" smooth="yes"/>
			<point x="554" y="420"/>
			<point x="530" y="439"/>
			<point x="494" y="439" type="curve" smooth="yes"/>
			<point x="461" y="439"/>
			<point name=".hr01" x="434" y="431"/>
			<point x="434" y="403" type="curve" smooth="yes"/>
			<point x="434" y="398"/>
			<point x="436" y="387"/>
			<point x="439" y="383" type="curve"/>
			<point x="457" y="356"/>
			<point x="462" y="332"/>
			<point name=".hr02" x="460" y="314" type="curve" smooth="yes"/>
			<point x="454" y="269"/>
			<point x="423" y="203"/>
			<point x="381" y="151" type="curve" smooth="yes"/>
			<point x="367" y="134"/>
			<point x="352" y="119"/>
			<point x="336" y="106" type="curve"/>
		</contour>
	</outline>
</glyph>
<glyph name="braceleft" format="2">
	<unicode hex="007B"/>
	<advance width="307"/>
	<outline>
		<contour>
			<point x="322" y="552" type="line" smooth="yes"/>
			<point x="330" y="598"/>
			<point x="343" y="627"/>
			<point x="359" y="645" type="curve" smooth="yes"/>
			<point x="380" y="669"/>
			<point x="404" y="677"/>
			<point x="425" y="683" type="curve"/>
			<point x="432" y="689"/>
			<point x="435" y="701"/>
			<point x="430" y="707" type="curve"/>
			<point x="382" y="707"/>
			<point x="329" y="694"/>
			<point x="289" y="662" type="curve" smooth="yes"/>
			<point x="259" y="637"/>
			<point x="236" y="602"/>
			<point x="227" y="554" type="curve" smooth="yes"/>
			<point x="193" y="370" type="line" smooth="yes"/>
			<point x="192" y="364"/>
			<point x="190" y="359"/>
			<point x="189" y="353" type="curve"/>
			<point x="175" y="309"/>
			<point x="142" y="269"/>
			<point x="79" y="263" type="curve"/>
			<point x="68" y="254"/>
			<point x="66" y="239"/>
			<point x="72" y="231" type="curve"/>
			<point x="114" y="225"/>
			<point x="136" y="208"/>
			<point x="143" y="180" type="curve" smooth="yes"/>
			<point x="147" y="164"/>
			<point x="146" y="144"/>
			<point x="140" y="121" type="curve" smooth="yes"/>
			<point x="99" y="-49" type="line"/>
			<point x="91" y="-79"/>
			<point x="89" y="-104"/>
			<point name=".hr01" x="92" y="-124" type="curve" smooth="yes"/>
			<point x="94" y="-138"/>
			<point x="98" y="-150"/>
			<point x="104" y="-160" type="curve"/>
			<point x="126" y="-200"/>
			<point x="177" y="-212"/>
			<point x="235" y="-212" type="curve"/>
			<point x="242" y="-206"/>
			<point x="245" y="-194"/>
			<point x="240" y="-188" type="curve"/>
			<point x="220" y="-188"/>
			<point x="202" y="-176"/>
			<point x="193" y="-153" type="curve" smooth="yes"/>
			<point x="188" y="-141"/>
			<point x="185" y="-127"/>
			<point x="185" y="-110" type="curve" smooth="yes"/>
			<point x="185" y="-94"/>
			<point x="188" y="-75"/>
			<point x="193" y="-54" type="curve"/>
			<point name=".hr02" x="233" y="95" type="line" smooth="yes"/>
			<point x="242" y="131"/>
			<point x="242" y="160"/>
			<point x="233" y="182" type="curve" smooth="yes"/>
			<point x="222" y="210"/>
			<point x="198" y="229"/>
			<point x="166" y="245" type="curve"/>
			<point x="167" y="249" type="line"/>
			<point x="227" y="266"/>
			<point x="271" y="291"/>
			<point x="290" y="361" type="curve" smooth="yes"/>
			<point x="292" y="369"/>
			<point x="294" y="377"/>
			<point x="295" y="386" type="curve"/>
		</contour>
	</outline>
</glyph>
<glyph name="braceright" format="2">
	<unicode hex="007D"/>
	<advance width="307"/>
	<outline>
		<contour>
			<point x="90" y="-56" type="line" smooth="yes"/>
			<point x="82" y="-102"/>
			<point x="69" y="-131"/>
			<point x="53" y="-149" type="curve" smooth="yes"/>
			<point x="32" y="-173"/>
			<point x="8" y="-181"/>
			<point x="-13" y="-187" type="curve"/>
			<point x="-20" y="-193"/>
			<point x="-23" y="-205"/>
			<point x="-18" y="-211" type="curve"/>
			<point x="30" y="-211"/>
			<point x="83" y="-198"/>
			<point x="123" y="-166" type="curve" smooth="yes"/>
			<point x="153" y="-141"/>
			<point x="176" y="-106"/>
			<point x="185" y="-58" type="curve" smooth="yes"/>
			<point x="219" y="126" type="line" smooth="yes"/>
			<point x="220" y="132"/>
			<point x="222" y="137"/>
			<point x="223" y="143" type="curve"/>
			<point x="237" y="187"/>
			<point x="271" y="227"/>
			<point x="334" y="233" type="curve"/>
			<point x="344" y="242"/>
			<point x="346" y="257"/>
			<point x="340" y="265" type="curve"/>
			<point x="298" y="271"/>
			<point x="276" y="288"/>
			<point x="269" y="316" type="curve" smooth="yes"/>
			<point x="265" y="332"/>
			<point x="266" y="352"/>
			<point x="272" y="375" type="curve" smooth="yes"/>
			<point x="313" y="545" type="line"/>
			<point x="321" y="575"/>
			<point x="323" y="600"/>
			<point name=".hr01" x="320" y="620" type="curve" smooth="yes"/>
			<point x="318" y="634"/>
			<point x="314" y="646"/>
			<point x="308" y="656" type="curve"/>
			<point x="286" y="696"/>
			<point x="235" y="708"/>
			<point x="177" y="708" type="curve"/>
			<point x="170" y="702"/>
			<point x="167" y="690"/>
			<point x="172" y="684" type="curve"/>
			<point x="193" y="684"/>
			<point x="210" y="672"/>
			<point x="219" y="649" type="curve" smooth="yes"/>
			<point x="224" y="637"/>
			<point x="227" y="623"/>
			<point x="227" y="606" type="curve" smooth="yes"/>
			<point x="227" y="590"/>
			<point x="225" y="571"/>
			<point x="219" y="550" type="curve" smooth="yes"/>
			<point x="179" y="401" type="line" smooth="yes"/>
			<point x="170" y="365"/>
			<point x="171" y="336"/>
			<point name=".hr02" x="180" y="314" type="curve" smooth="yes"/>
			<point x="191" y="286"/>
			<point x="214" y="267"/>
			<point x="246" y="251" type="curve"/>
			<point x="245" y="247" type="line"/>
			<point x="185" y="230"/>
			<point x="141" y="205"/>
			<point x="123" y="135" type="curve" smooth="yes"/>
			<point x="121" y="127"/>
			<point x="119" y="119"/>
			<point x="118" y="110" type="curve"/>
		</contour>
	</outline>
</glyph>
<glyph name="cent" format="2">
	<unicode hex="00A2"/>
	<advance width="540"/>
	<outline>
		<contour>
			<point x="378" y="584" type="line"/>
			<point x="363" y="514" type="line"/>
			<point x="313" y="509"/>
			<point x="263" y="486"/>
			<point x="220" y="448" type="curve"/>
			<point x="174" y="405"/>
			<point x="137" y="345"/>
			<point x="122" y="272" type="curve" smooth="yes"/>
			<point x="118" y="252"/>
			<point x="116" y="234"/>
			<point x="116" y="216" type="curve"/>
			<point x="115" y="175"/>
			<point x="126" y="139"/>
			<point x="146" y="113" type="curve" smooth="yes"/>
			<point x="173" y="79"/>
			<point x="209" y="64"/>
			<point x="267" y="61" type="curve"/>
			<point x="251" y="-12" type="line"/>
			<point x="283" y="-12" type="line"/>
			<point x="299" y="62" type="line"/>
			<point x="352" y="69"/>
			<point x="417" y="108"/>
			<point x="459" y="158" type="curve"/>
			<point x="462" y="170"/>
			<point x="464" y="189"/>
			<point x="454" y="189" type="curve"/>
			<point x="408" y="152"/>
			<point x="372" y="132"/>
			<point x="345" y="132" type="curve" smooth="yes"/>
			<point x="334" y="132"/>
			<point x="324" y="134"/>
			<point x="315" y="137" type="curve"/>
			<point x="385" y="467" type="line"/>
			<point x="394" y="461"/>
			<point x="398" y="451"/>
			<point x="401" y="439" type="curve"/>
			<point x="403" y="427"/>
			<point x="403" y="414"/>
			<point x="401" y="402" type="curve"/>
			<point x="400" y="391"/>
			<point x="402" y="382"/>
			<point x="408" y="374" type="curve"/>
			<point x="416" y="362"/>
			<point x="431" y="355"/>
			<point x="449" y="355" type="curve" smooth="yes"/>
			<point x="480" y="355"/>
			<point x="506" y="380"/>
			<point x="513" y="411" type="curve" smooth="yes"/>
			<point x="522" y="454"/>
			<point x="488" y="510"/>
			<point x="395" y="515" type="curve"/>
			<point x="410" y="584" type="line"/>
		</contour>
		<contour>
			<point x="286" y="152" type="line"/>
			<point x="280" y="157"/>
			<point x="275" y="162"/>
			<point x="271" y="168" type="curve"/>
			<point x="252" y="192"/>
			<point x="243" y="228"/>
			<point x="246" y="272" type="curve" smooth="yes"/>
			<point x="247" y="283"/>
			<point x="249" y="295"/>
			<point x="251" y="307" type="curve"/>
			<point x="273" y="410"/>
			<point x="309" y="465"/>
			<point x="354" y="472" type="curve"/>
		</contour>
	</outline>
</glyph>
<glyph name="sterling" format="2">
	<unicode hex="00A3"/>
	<advance width="540"/>
	<outline>
		<contour>
			<point x="144" y="292" type="curve" smooth="yes"/>
			<point x="191" y="292" type="line"/>
			<point x="189" y="284" type="line"/>
			<point x="163" y="162"/>
			<point x="136" y="114"/>
			<point x="114" y="91" type="curve"/>
			<point x="108" y="84"/>
			<point x="102" y="80"/>
			<point x="96" y="76" type="curve"/>
			<point x="65" y="60"/>
			<point x="39" y="35"/>
			<point x="33" y="7" type="curve" smooth="yes"/>
			<point x="31" y="-3"/>
			<point x="38" y="-13"/>
			<point x="48" y="-18" type="curve"/>
			<point x="52" y="-19"/>
			<point x="55" y="-20"/>
			<point x="59" y="-20" type="curve" smooth="yes"/>
			<point x="77" y="-20"/>
			<point x="105" y="-7"/>
			<point x="111" y="22" type="curve" smooth="yes"/>
			<point x="114" y="35"/>
			<point x="120" y="49"/>
			<point x="152" y="49" type="curve" smooth="yes"/>
			<point x="176" y="49"/>
			<point x="200" y="29"/>
			<point x="230" y="11" type="curve" smooth="yes"/>
			<point x="253" y="-2"/>
			<point x="278" y="-13"/>
			<point x="309" y="-13" type="curve" smooth="yes"/>
			<point x="313" y="-13"/>
			<point x="318" y="-13"/>
			<point name=".hr01" x="322" y="-12" type="curve"/>
			<point x="387" y="-6"/>
			<point x="438" y="48"/>
			<point x="465" y="97" type="curve"/>
			<point x="446" y="112" type="line"/>
			<point x="414" y="77"/>
			<point x="369" y="56"/>
			<point x="341" y="56" type="curve" smooth="yes"/>
			<point x="323" y="56"/>
			<point x="311" y="63"/>
			<point x="299" y="71" type="curve"/>
			<point x="281" y="82"/>
			<point x="261" y="96"/>
			<point name=".hr02" x="212" y="100" type="curve"/>
			<point x="206" y="101"/>
			<point x="198" y="101"/>
			<point x="190" y="101" type="curve"/>
			<point x="192" y="103"/>
			<point x="195" y="104"/>
			<point x="197" y="106" type="curve"/>
			<point x="235" y="135"/>
			<point x="282" y="185"/>
			<point x="308" y="275" type="curve"/>
			<point x="310" y="280"/>
			<point x="312" y="286"/>
			<point x="313" y="292" type="curve"/>
			<point x="382" y="292" type="line" smooth="yes"/>
			<point x="401" y="292"/>
			<point x="428" y="298"/>
			<point x="431" y="312" type="curve"/>
			<point x="435" y="328" type="line"/>
			<point x="436" y="334"/>
			<point x="426" y="339"/>
			<point x="408" y="339" type="curve" smooth="yes"/>
			<point x="323" y="339" type="line"/>
			<point x="339" y="414" type="line" smooth="yes"/>
			<point x="358" y="502"/>
			<point x="384" y="574"/>
			<point x="429" y="574" type="curve" smooth="yes"/>
			<point x="449" y="574"/>
			<point x="443" y="548"/>
			<point x="454" y="531" type="curve"/>
			<point x="464" y="517"/>
			<point x="477" y="505"/>
			<point x="494" y="505" type="curve" smooth="yes"/>
			<point x="526" y="505"/>
			<point x="552" y="528"/>
			<point x="559" y="562" type="curve" smooth="yes"/>
			<point x="568" y="604"/>
			<point x="518" y="612"/>
			<point x="491" y="614" type="curve"/>
			<point x="487" y="614"/>
			<point x="484" y="614"/>
			<point x="482" y="614" type="curve" smooth="yes"/>
			<point x="435" y="614"/>
			<point x="384" y="600"/>
			<point x="340" y="568" type="curve"/>
			<point x="336" y="566"/>
			<point x="333" y="563"/>
			<point x="329" y="560" type="curve"/>
			<point x="272" y="512"/>
			<point x="226" y="459"/>
			<point x="206" y="363" type="curve" smooth="yes"/>
			<point x="201" y="339" type="line"/>
			<point x="172" y="339" type="line" smooth="yes"/>
			<point x="138" y="339"/>
			<point x="125" y="329"/>
			<point x="123" y="319" type="curve" smooth="yes"/>
			<point x="120" y="303" type="line"/>
			<point x="118" y="296"/>
			<point x="122" y="292"/>
		</contour>
	</outline>
</glyph>
<glyph name="section" format="2">
	<unicode hex="00A7"/>
	<advance width="466"/>
	<outline>
		<contour>
			<point x="394" y="-26" type="curve" smooth="yes"/>
			<point x="402" y="14"/>
			<point x="395" y="53"/>
			<point x="376" y="88" type="curve"/>
			<point x="418" y="120"/>
			<point x="461" y="164"/>
			<point x="472" y="219" type="curve" smooth="yes"/>
			<point x="475" y="233"/>
			<point x="477" y="245"/>
			<point name=".hr01" x="478" y="257" type="curve" smooth="yes"/>
			<point x="484" y="351"/>
			<point x="421" y="388"/>
			<point x="337" y="437" type="curve" smooth="yes"/>
			<point x="299" y="459"/>
			<point x="274" y="477"/>
			<point x="284" y="524" type="curve"/>
			<point x="284" y="524"/>
			<point x="284" y="524"/>
			<point x="284" y="524" type="curve"/>
			<point x="294" y="571"/>
			<point x="321" y="614"/>
			<point x="365" y="622" type="curve" smooth="yes"/>
			<point x="370" y="623"/>
			<point x="376" y="623"/>
			<point x="381" y="623" type="curve" smooth="yes"/>
			<point x="430" y="623"/>
			<point x="437" y="599"/>
			<point x="432" y="577" type="curve"/>
			<point x="431" y="569"/>
			<point x="426" y="565"/>
			<point name=".hr02" x="422" y="559" type="curve"/>
			<point x="417" y="553"/>
			<point x="412" y="545"/>
			<point x="409" y="529" type="curve"/>
			<point x="406" y="518"/>
			<point x="414" y="478"/>
			<point x="454" y="478" type="curve" smooth="yes"/>
			<point x="476" y="478"/>
			<point x="511" y="500"/>
			<point x="517" y="528" type="curve"/>
			<point x="520" y="540"/>
			<point x="521" y="551"/>
			<point x="520" y="562" type="curve"/>
			<point x="518" y="625"/>
			<point x="463" y="658"/>
			<point x="384" y="658" type="curve" smooth="yes"/>
			<point x="339" y="658"/>
			<point x="292" y="643"/>
			<point x="254" y="613" type="curve" smooth="yes"/>
			<point x="217" y="583"/>
			<point x="189" y="537"/>
			<point x="182" y="504" type="curve"/>
			<point x="182" y="504"/>
			<point x="182" y="504"/>
			<point x="182" y="504" type="curve"/>
			<point x="173" y="462"/>
			<point x="180" y="428"/>
			<point x="193" y="402" type="curve"/>
			<point x="153" y="371"/>
			<point x="113" y="327"/>
			<point x="102" y="276" type="curve"/>
			<point x="99" y="260"/>
			<point name=".hr03" x="97" y="245"/>
			<point x="97" y="232" type="curve"/>
			<point x="98" y="176"/>
			<point x="130" y="133"/>
			<point x="203" y="83" type="curve"/>
			<point x="216" y="75"/>
			<point x="229" y="65"/>
			<point x="242" y="55" type="curve" smooth="yes"/>
			<point x="272" y="32"/>
			<point x="297" y="3"/>
			<point x="289" y="-33" type="curve" smooth="yes"/>
			<point x="275" y="-100"/>
			<point x="237" y="-134"/>
			<point x="194" y="-134" type="curve" smooth="yes"/>
			<point name=".hr04" x="140" y="-134"/>
			<point x="139" y="-94"/>
			<point x="140" y="-87" type="curve"/>
			<point x="143" y="-73"/>
			<point x="160" y="-65"/>
			<point x="166" y="-39" type="curve"/>
			<point x="168" y="-28"/>
			<point x="156" y="12"/>
			<point x="116" y="12" type="curve" smooth="yes"/>
			<point x="96" y="12"/>
			<point x="62" y="-11"/>
			<point x="56" y="-37" type="curve" smooth="yes"/>
			<point x="53" y="-50"/>
			<point x="53" y="-61"/>
			<point x="54" y="-72" type="curve" smooth="yes"/>
			<point x="60" y="-137"/>
			<point x="130" y="-169"/>
			<point x="189" y="-169" type="curve" smooth="yes"/>
			<point x="318" y="-169"/>
			<point x="379" y="-95"/>
		</contour>
		<contour>
			<point x="207" y="381" type="curve"/>
			<point x="217" y="368"/>
			<point x="229" y="359"/>
			<point x="241" y="352" type="curve"/>
			<point x="258" y="343"/>
			<point x="273" y="334"/>
			<point x="287" y="326" type="curve" smooth="yes"/>
			<point x="349" y="290"/>
			<point x="385" y="260"/>
			<point x="392" y="216" type="curve" smooth="yes"/>
			<point name=".hr05" x="394" y="203"/>
			<point name=".hr06" x="394" y="188"/>
			<point x="390" y="171" type="curve" smooth="yes"/>
			<point x="385" y="148"/>
			<point x="376" y="128"/>
			<point x="361" y="111" type="curve"/>
			<point x="344" y="133"/>
			<point x="322" y="153"/>
			<point x="296" y="169" type="curve"/>
			<point x="293" y="172"/>
			<point x="289" y="174"/>
			<point x="285" y="176" type="curve"/>
			<point x="224" y="211"/>
			<point x="195" y="244"/>
			<point x="186" y="276" type="curve"/>
			<point x="181" y="292"/>
			<point x="181" y="308"/>
			<point x="185" y="324" type="curve"/>
			<point x="189" y="345"/>
			<point x="195" y="364"/>
		</contour>
	</outline>
</glyph>
<glyph name="dieresis" format="2">
	<unicode hex="00A8"/>
	<advance width="410"/>
	<outline>
		<contour>
			<point x="180" y="573" type="curve" smooth="yes"/>
			<point x="178" y="543"/>
			<point x="200" y="519"/>
			<point x="228" y="519" type="curve" smooth="yes"/>
			<point x="257" y="519"/>
			<point x="281" y="543"/>
			<point x="283" y="573" type="curve" smooth="yes"/>
			<point x="285" y="604"/>
			<point x="265" y="628"/>
			<point x="236" y="628" type="curve" smooth="yes"/>
			<point x="207" y="628"/>
			<point x="182" y="604"/>
		</contour>
		<contour>
			<point x="355" y="573" type="curve" smooth="yes"/>
			<point x="353" y="543"/>
			<point x="373" y="519"/>
			<point x="403" y="519" type="curve" smooth="yes"/>
			<point x="431" y="519"/>
			<point x="456" y="543"/>
			<point x="458" y="573" type="curve" smooth="yes"/>
			<point x="460" y="604"/>
			<point x="439" y="628"/>
			<point x="410" y="628" type="curve" smooth="yes"/>
			<point x="381" y="628"/>
			<point x="357" y="604"/>
		</contour>
	</outline>
</glyph>
<glyph name="ordfeminine" format="2">
	<unicode hex="00AA"/>
	<advance width="365"/>
	<outline>
		<contour>
			<point x="397" y="640" type="curve"/>
			<point x="397" y="640" type="line"/>
			<point x="390" y="640"/>
			<point x="382" y="639"/>
			<point x="375" y="638" type="curve"/>
			<point x="370" y="637"/>
			<point x="365" y="637"/>
			<point x="360" y="637" type="curve" smooth="yes"/>
			<point x="356" y="637"/>
			<point x="353" y="637"/>
			<point x="350" y="638" type="curve"/>
			<point x="336" y="640"/>
			<point x="334" y="641"/>
			<point x="320" y="642" type="curve"/>
			<point x="317" y="642"/>
			<point x="313" y="642"/>
			<point x="309" y="642" type="curve" smooth="yes"/>
			<point x="256" y="642"/>
			<point x="206" y="608"/>
			<point x="171" y="564" type="curve" smooth="yes"/>
			<point x="145" y="530"/>
			<point x="126" y="491"/>
			<point x="124" y="447" type="curve"/>
			<point x="124" y="444"/>
			<point x="124" y="442"/>
			<point x="124" y="439" type="curve" smooth="yes"/>
			<point x="124" y="396"/>
			<point x="146" y="359"/>
			<point x="192" y="359" type="curve" smooth="yes"/>
			<point x="219" y="359"/>
			<point x="258" y="389"/>
			<point x="296" y="445" type="curve"/>
			<point x="298" y="444" type="line"/>
			<point x="295" y="432" type="line"/>
			<point x="294" y="427"/>
			<point x="293" y="422"/>
			<point name=".hr01" x="292" y="417" type="curve"/>
			<point x="291" y="409"/>
			<point x="290" y="402"/>
			<point x="290" y="395" type="curve" smooth="yes"/>
			<point x="290" y="391"/>
			<point x="290" y="387"/>
			<point x="291" y="384" type="curve"/>
			<point x="291" y="382"/>
			<point x="292" y="380"/>
			<point x="292" y="379" type="curve"/>
			<point x="297" y="366"/>
			<point name=".hr02" x="304" y="359"/>
			<point x="323" y="359" type="curve" smooth="yes"/>
			<point x="328" y="359"/>
			<point x="333" y="359"/>
			<point name=".hr03" x="338" y="360" type="curve"/>
			<point x="376" y="364"/>
			<point x="409" y="384"/>
			<point x="435" y="417" type="curve"/>
			<point x="433" y="423"/>
			<point x="426" y="434"/>
			<point x="417" y="434" type="curve"/>
			<point x="401" y="415"/>
			<point x="379" y="405"/>
			<point x="373" y="405" type="curve" smooth="yes"/>
			<point x="368" y="405"/>
			<point x="366" y="409"/>
			<point x="366" y="416" type="curve" smooth="yes"/>
			<point x="366" y="424"/>
			<point x="369" y="434"/>
			<point x="371" y="443" type="curve" smooth="yes"/>
			<point x="397" y="567" type="line" smooth="yes"/>
			<point x="402" y="592"/>
			<point x="410" y="615"/>
			<point x="410" y="626" type="curve" smooth="yes"/>
			<point x="410" y="635"/>
			<point x="405" y="640"/>
		</contour>
		<contour>
			<point x="307" y="507" type="curve"/>
			<point x="276" y="450"/>
			<point x="251" y="418"/>
			<point name=".hr04" x="231" y="418" type="curve"/>
			<point x="231" y="418"/>
			<point x="231" y="418"/>
			<point x="231" y="418" type="curve"/>
			<point x="211" y="418"/>
			<point x="203" y="433"/>
			<point x="203" y="452" type="curve" smooth="yes"/>
			<point x="203" y="458"/>
			<point x="203" y="463"/>
			<point x="204" y="469" type="curve"/>
			<point x="207" y="501"/>
			<point x="218" y="535"/>
			<point x="235" y="563" type="curve" smooth="yes"/>
			<point x="251" y="590"/>
			<point x="274" y="611"/>
			<point x="299" y="614" type="curve"/>
			<point x="301" y="615"/>
			<point x="304" y="615"/>
			<point x="306" y="615" type="curve" smooth="yes"/>
			<point x="319" y="615"/>
			<point x="326" y="611"/>
			<point x="327" y="603" type="curve"/>
			<point x="327" y="603"/>
			<point x="323" y="547"/>
		</contour>
	</outline>
</glyph>
<glyph name="uni00AD" format="2">
	<unicode hex="00AD"/>
	<advance width="358"/>
	<outline>
		<contour>
			<point x="327" y="215" type="line" smooth="yes"/>
			<point x="346" y="215"/>
			<point x="366" y="246"/>
			<point x="372" y="264" type="curve"/>
			<point x="373" y="268"/>
			<point x="374" y="271"/>
			<point x="374" y="273" type="curve" smooth="yes"/>
			<point x="374" y="276"/>
			<point x="374" y="278"/>
			<point x="372" y="281" type="curve"/>
			<point x="370" y="286"/>
			<point x="365" y="290"/>
			<point x="355" y="292" type="curve"/>
			<point x="351" y="293"/>
			<point x="345" y="294"/>
			<point x="338" y="294" type="curve" smooth="yes"/>
			<point x="138" y="294" type="line" smooth="yes"/>
			<point x="135" y="294"/>
			<point x="131" y="293"/>
			<point x="127" y="291" type="curve"/>
			<point x="113" y="283"/>
			<point x="99" y="262"/>
			<point x="94" y="246" type="curve"/>
			<point x="93" y="242"/>
			<point x="92" y="239"/>
			<point x="92" y="236" type="curve"/>
			<point x="92" y="236" type="line"/>
			<point x="92" y="231"/>
			<point x="95" y="225"/>
			<point x="102" y="221" type="curve"/>
			<point x="108" y="218"/>
			<point x="117" y="215"/>
			<point x="129" y="215" type="curve" smooth="yes"/>
		</contour>
	</outline>
</glyph>
<glyph name="degree" format="2">
	<unicode hex="00B0"/>
	<advance width="255"/>
	<outline>
		<contour>
			<point x="265" y="658" type="curve" smooth="yes"/>
			<point x="212" y="658"/>
			<point x="155" y="613"/>
			<point x="146" y="557" type="curve"/>
			<point x="145" y="552"/>
			<point x="144" y="546"/>
			<point x="144" y="540" type="curve" smooth="yes"/>
			<point x="144" y="494"/>
			<point x="178" y="458"/>
			<point x="227" y="458" type="curve" smooth="yes"/>
			<point x="280" y="458"/>
			<point x="337" y="503"/>
			<point x="346" y="559" type="curve"/>
			<point x="347" y="564"/>
			<point x="348" y="570"/>
			<point x="348" y="576" type="curve" smooth="yes"/>
			<point x="348" y="622"/>
			<point x="314" y="658"/>
		</contour>
		<contour>
			<point x="303" y="571" type="curve" smooth="yes"/>
			<point x="303" y="565"/>
			<point x="302" y="558"/>
			<point x="301" y="552" type="curve"/>
			<point x="293" y="521"/>
			<point x="266" y="496"/>
			<point x="232" y="496" type="curve" smooth="yes"/>
			<point x="203" y="496"/>
			<point x="189" y="519"/>
			<point x="189" y="544" type="curve" smooth="yes"/>
			<point x="189" y="551"/>
			<point x="190" y="557"/>
			<point x="191" y="563" type="curve"/>
			<point x="199" y="594"/>
			<point x="226" y="620"/>
			<point x="260" y="620" type="curve" smooth="yes"/>
			<point x="291" y="620"/>
			<point x="303" y="595"/>
		</contour>
	</outline>
</glyph>
<glyph name="uni00B2" format="2">
	<unicode hex="00B2"/>
	<advance width="340"/>
	<outline>
		<contour>
			<point x="183" y="626" type="curve" smooth="yes"/>
			<point x="181" y="618"/>
			<point x="181" y="610"/>
			<point x="181" y="604" type="curve"/>
			<point x="182" y="591"/>
			<point x="189" y="583"/>
			<point x="206" y="583" type="curve" smooth="yes"/>
			<point x="226" y="583"/>
			<point x="246" y="596"/>
			<point x="252" y="612" type="curve"/>
			<point x="254" y="615"/>
			<point x="255" y="619"/>
			<point x="255" y="623" type="curve"/>
			<point x="256" y="628"/>
			<point x="257" y="633"/>
			<point x="258" y="638" type="curve"/>
			<point x="260" y="644"/>
			<point x="263" y="657"/>
			<point x="265" y="661" type="curve"/>
			<point x="272" y="674"/>
			<point x="284" y="679"/>
			<point x="304" y="679" type="curve" smooth="yes"/>
			<point x="312" y="679"/>
			<point x="324" y="674"/>
			<point x="327" y="664" type="curve"/>
			<point x="330" y="658"/>
			<point x="331" y="650"/>
			<point x="331" y="640" type="curve" smooth="yes"/>
			<point x="331" y="634"/>
			<point x="330" y="627"/>
			<point x="329" y="620" type="curve"/>
			<point x="329" y="616"/>
			<point x="328" y="612"/>
			<point x="327" y="608" type="curve" smooth="yes"/>
			<point x="322" y="586"/>
			<point x="306" y="557"/>
			<point x="276" y="533" type="curve" smooth="yes"/>
			<point x="266" y="525"/>
			<point x="256" y="517"/>
			<point x="246" y="509" type="curve" smooth="yes"/>
			<point x="234" y="499"/>
			<point x="221" y="489"/>
			<point x="209" y="479" type="curve" smooth="yes"/>
			<point x="170" y="445"/>
			<point x="138" y="406"/>
			<point x="129" y="364" type="curve"/>
			<point x="351" y="364" type="line"/>
			<point x="366" y="393"/>
			<point x="390" y="438"/>
			<point x="402" y="477" type="curve"/>
			<point x="399" y="481"/>
			<point x="388" y="483"/>
			<point x="377" y="483" type="curve"/>
			<point x="361" y="453"/>
			<point x="331" y="421"/>
			<point x="302" y="421" type="curve" smooth="yes"/>
			<point x="299" y="421"/>
			<point x="296" y="421"/>
			<point x="292" y="421" type="curve" smooth="yes"/>
			<point x="225" y="421" type="line"/>
			<point x="229" y="434"/>
			<point x="240" y="451"/>
			<point x="260" y="466" type="curve"/>
			<point x="271" y="475"/>
			<point x="283" y="484"/>
			<point x="294" y="492" type="curve"/>
			<point x="308" y="503" type="line" smooth="yes"/>
			<point x="329" y="519"/>
			<point x="355" y="541"/>
			<point x="372" y="556" type="curve" smooth="yes"/>
			<point x="398" y="580"/>
			<point x="408" y="598"/>
			<point x="413" y="622" type="curve"/>
			<point x="415" y="630"/>
			<point x="416" y="637"/>
			<point x="416" y="644" type="curve"/>
			<point x="417" y="663"/>
			<point x="412" y="677"/>
			<point x="400" y="689" type="curve" smooth="yes"/>
			<point x="381" y="708"/>
			<point x="349" y="709"/>
			<point x="324" y="709" type="curve" smooth="yes"/>
			<point x="320" y="709"/>
			<point x="316" y="709"/>
			<point x="312" y="709" type="curve"/>
			<point x="243" y="703"/>
			<point x="189" y="652"/>
		</contour>
	</outline>
</glyph>
<glyph name="uni00B3" format="2">
	<unicode hex="00B3"/>
	<advance width="340"/>
	<outline>
		<contour>
			<point x="231" y="389" type="curve" smooth="yes"/>
			<point x="212" y="389"/>
			<point x="202" y="399"/>
			<point x="196" y="408" type="curve"/>
			<point x="191" y="417"/>
			<point x="188" y="445"/>
			<point x="161" y="445" type="curve" smooth="yes"/>
			<point x="138" y="445"/>
			<point x="119" y="424"/>
			<point x="119" y="403" type="curve" smooth="yes"/>
			<point x="119" y="368"/>
			<point x="172" y="359"/>
			<point x="216" y="359" type="curve" smooth="yes"/>
			<point x="261" y="359"/>
			<point x="307" y="373"/>
			<point x="343" y="397" type="curve"/>
			<point x="377" y="421"/>
			<point x="405" y="455"/>
			<point x="405" y="504" type="curve" smooth="yes"/>
			<point x="405" y="542"/>
			<point x="380" y="558"/>
			<point x="352" y="567" type="curve"/>
			<point x="351" y="567"/>
			<point x="351" y="568"/>
			<point x="351" y="568" type="curve"/>
			<point x="351" y="569"/>
			<point x="352" y="570"/>
			<point x="353" y="571" type="curve"/>
			<point x="386" y="592"/>
			<point name=".hr01" x="413" y="617"/>
			<point x="413" y="652" type="curve" smooth="yes"/>
			<point x="413" y="687"/>
			<point x="377" y="709"/>
			<point x="322" y="709" type="curve" smooth="yes"/>
			<point x="225" y="709"/>
			<point x="180" y="647"/>
			<point x="176" y="628" type="curve"/>
			<point x="176" y="627"/>
			<point x="175" y="625"/>
			<point x="175" y="622" type="curve" smooth="yes"/>
			<point x="175" y="613"/>
			<point x="179" y="600"/>
			<point x="201" y="600" type="curve" smooth="yes"/>
			<point x="228" y="600"/>
			<point x="244" y="626"/>
			<point x="247" y="640" type="curve"/>
			<point x="254" y="663"/>
			<point x="279" y="679"/>
			<point x="300" y="679" type="curve" smooth="yes"/>
			<point x="317" y="679"/>
			<point x="331" y="668"/>
			<point x="331" y="647" type="curve" smooth="yes"/>
			<point x="331" y="595"/>
			<point x="270" y="562"/>
			<point x="226" y="556" type="curve"/>
			<point x="220" y="526" type="line"/>
			<point x="233" y="529"/>
			<point x="244" y="530"/>
			<point x="253" y="530" type="curve" smooth="yes"/>
			<point x="287" y="530"/>
			<point name=".hr02" x="313" y="521"/>
			<point x="313" y="489" type="curve" smooth="yes"/>
			<point x="313" y="440"/>
			<point x="267" y="389"/>
		</contour>
	</outline>
</glyph>
<glyph name="periodcentered" format="2">
	<unicode hex="00B7"/>
	<advance width="322"/>
	<outline>
		<contour>
			<point x="217" y="177" type="curve" smooth="yes"/>
			<point x="263" y="177"/>
			<point x="299" y="215"/>
			<point x="299" y="258" type="curve" smooth="yes"/>
			<point x="299" y="304"/>
			<point x="258" y="339"/>
			<point x="217" y="339" type="curve" smooth="yes"/>
			<point x="173" y="339"/>
			<point x="135" y="300"/>
			<point x="135" y="258" type="curve" smooth="yes"/>
			<point x="135" y="216"/>
			<point x="168" y="177"/>
		</contour>
	</outline>
</glyph>
<glyph name="ordmasculine" format="2">
	<unicode hex="00BA"/>
	<advance width="368"/>
	<outline>
		<contour>
			<point x="100" y="484" type="curve" smooth="yes"/>
			<point x="84" y="412"/>
			<point x="124" y="358"/>
			<point x="206" y="358" type="curve" smooth="yes"/>
			<point x="300" y="358"/>
			<point x="360" y="422"/>
			<point x="374" y="490" type="curve"/>
			<point x="384" y="533"/>
			<point x="370" y="580"/>
			<point x="335" y="604" type="curve" smooth="yes"/>
			<point x="315" y="618"/>
			<point x="294" y="621"/>
			<point x="267" y="621" type="curve" smooth="yes"/>
			<point x="194" y="621"/>
			<point x="118" y="569"/>
		</contour>
		<contour>
			<point x="255" y="592" type="curve" smooth="yes"/>
			<point x="302" y="592"/>
			<point x="306" y="554"/>
			<point x="289" y="474" type="curve" smooth="yes"/>
			<point x="274" y="402"/>
			<point x="249" y="391"/>
			<point x="224" y="391" type="curve" smooth="yes"/>
			<point x="167" y="391"/>
			<point x="174" y="445"/>
			<point x="184" y="494" type="curve" smooth="yes"/>
			<point x="196" y="548"/>
			<point x="208" y="592"/>
		</contour>
	</outline>
</glyph>
<glyph name="guillemotright" format="2">
	<unicode hex="00BB"/>
	<advance width="555"/>
	<outline>
		<contour>
			<point x="507" y="223" type="line"/>
			<point x="500" y="232"/>
			<point x="493" y="240"/>
			<point x="486" y="248" type="curve" smooth="yes"/>
			<point x="446" y="296"/>
			<point x="415" y="335"/>
			<point x="373" y="407" type="curve"/>
			<point x="363" y="404"/>
			<point x="348" y="395"/>
			<point x="341" y="385" type="curve"/>
			<point x="362" y="310"/>
			<point x="382" y="254"/>
			<point x="403" y="215" type="curve"/>
			<point x="365" y="176"/>
			<point x="322" y="121"/>
			<point x="269" y="45" type="curve"/>
			<point x="271" y="35"/>
			<point x="283" y="26"/>
			<point x="291" y="23" type="curve"/>
			<point x="366" y="97"/>
			<point x="415" y="136"/>
			<point x="477" y="186" type="curve"/>
			<point x="485" y="193"/>
			<point x="494" y="200"/>
			<point x="503" y="207" type="curve"/>
		</contour>
		<contour>
			<point x="330" y="223" type="line"/>
			<point x="323" y="232"/>
			<point x="316" y="240"/>
			<point x="309" y="248" type="curve" smooth="yes"/>
			<point x="269" y="296"/>
			<point x="238" y="335"/>
			<point x="196" y="407" type="curve"/>
			<point x="187" y="404"/>
			<point x="171" y="395"/>
			<point x="164" y="385" type="curve"/>
			<point x="185" y="310"/>
			<point x="205" y="254"/>
			<point x="226" y="215" type="curve"/>
			<point x="188" y="176"/>
			<point x="145" y="121"/>
			<point x="92" y="45" type="curve"/>
			<point x="95" y="35"/>
			<point x="106" y="26"/>
			<point x="115" y="23" type="curve"/>
			<point x="189" y="97"/>
			<point x="238" y="136"/>
			<point x="301" y="186" type="curve"/>
			<point x="309" y="193"/>
			<point x="318" y="200"/>
			<point x="327" y="207" type="curve"/>
		</contour>
	</outline>
</glyph>
<glyph name="onequarter" format="2">
	<unicode hex="00BC"/>
	<advance width="700"/>
	<outline>
		<contour>
			<point x="594" y="-50" type="curve" smooth="yes"/>
			<point x="599" y="-29" type="line"/>
			<point x="652" y="-29" type="line"/>
			<point x="664" y="13" type="line"/>
			<point x="608" y="13" type="line"/>
			<point x="649" y="209" type="line" smooth="yes"/>
			<point x="651" y="218"/>
			<point x="645" y="219"/>
			<point x="640" y="219" type="curve" smooth="yes"/>
			<point x="628" y="219"/>
			<point x="617" y="219"/>
			<point x="605" y="219" type="curve" smooth="yes"/>
			<point x="593" y="219" type="line"/>
			<point x="584" y="209"/>
			<point x="573" y="197"/>
			<point x="562" y="185" type="curve" smooth="yes"/>
			<point x="511" y="130"/>
			<point x="439" y="55"/>
			<point x="391" y="1" type="curve"/>
			<point x="385" y="-5"/>
			<point x="380" y="-11"/>
			<point x="375" y="-17" type="curve"/>
			<point x="378" y="-21"/>
			<point x="380" y="-25"/>
			<point x="383" y="-29" type="curve"/>
			<point x="521" y="-29" type="line"/>
			<point x="516" y="-50" type="line" smooth="yes"/>
			<point x="505" y="-101"/>
			<point x="476" y="-104"/>
			<point x="438" y="-106" type="curve"/>
			<point x="431" y="-114"/>
			<point x="429" y="-130"/>
			<point x="431" y="-136" type="curve"/>
			<point x="460" y="-135"/>
			<point x="488" y="-135"/>
			<point x="522" y="-135" type="curve" smooth="yes"/>
			<point x="536" y="-135" type="line" smooth="yes"/>
			<point x="569" y="-135"/>
			<point x="599" y="-135"/>
			<point x="623" y="-136" type="curve"/>
			<point x="628" y="-129"/>
			<point x="631" y="-114"/>
			<point x="629" y="-106" type="curve"/>
			<point x="598" y="-104"/>
			<point x="583" y="-101"/>
		</contour>
		<contour>
			<point x="659" y="601" type="line"/>
			<point x="109" y="-54" type="line"/>
			<point x="163" y="-67" type="line"/>
			<point x="715" y="588" type="line"/>
		</contour>
		<contour>
			<point x="259" y="591" type="curve" smooth="yes"/>
			<point x="270" y="591"/>
			<point x="270" y="582"/>
			<point x="264" y="550" type="curve"/>
			<point x="232" y="400" type="line"/>
			<point x="232" y="400" type="line"/>
			<point x="225" y="369"/>
			<point x="212" y="356"/>
			<point x="194" y="350" type="curve" smooth="yes"/>
			<point x="182" y="346"/>
			<point x="168" y="345"/>
			<point x="153" y="344" type="curve"/>
			<point x="151" y="341"/>
			<point x="149" y="338"/>
			<point x="148" y="334" type="curve" smooth="yes"/>
			<point x="146" y="326"/>
			<point x="145" y="318"/>
			<point x="147" y="314" type="curve"/>
			<point x="175" y="315"/>
			<point x="222" y="315"/>
			<point x="255" y="315" type="curve" smooth="yes"/>
			<point x="291" y="315"/>
			<point x="320" y="315"/>
			<point x="348" y="314" type="curve"/>
			<point x="348" y="314" type="line"/>
			<point x="351" y="319"/>
			<point x="354" y="327"/>
			<point x="354" y="334" type="curve"/>
			<point x="355" y="338"/>
			<point x="355" y="341"/>
			<point x="354" y="344" type="curve"/>
			<point x="350" y="344"/>
			<point x="346" y="345"/>
			<point x="343" y="345" type="curve" smooth="yes"/>
			<point x="340" y="345"/>
			<point x="336" y="346"/>
			<point x="333" y="346" type="curve"/>
			<point x="318" y="350"/>
			<point x="310" y="358"/>
			<point x="312" y="383" type="curve"/>
			<point x="312" y="388"/>
			<point x="313" y="394"/>
			<point x="314" y="400" type="curve"/>
			<point x="371" y="665" type="line"/>
			<point x="368" y="668"/>
			<point x="358" y="669"/>
			<point x="350" y="667" type="curve"/>
			<point x="346" y="667"/>
			<point x="343" y="666"/>
			<point x="341" y="665" type="curve" smooth="yes"/>
			<point x="293" y="642"/>
			<point x="248" y="626"/>
			<point x="200" y="609" type="curve"/>
			<point x="197" y="597"/>
			<point x="196" y="582"/>
			<point x="202" y="576" type="curve"/>
			<point x="228" y="585"/>
			<point x="247" y="591"/>
		</contour>
		<contour>
			<point x="556" y="140" type="curve"/>
			<point x="547" y="98"/>
			<point x="539" y="55"/>
			<point x="530" y="13" type="curve"/>
			<point x="440" y="13" type="line"/>
			<point x="479" y="55"/>
			<point x="517" y="98"/>
		</contour>
	</outline>
</glyph>
<glyph name="Aacute" format="2">
	<unicode hex="00C1"/>
	<advance width="710"/>
	<outline>
		<contour>
			<point x="174" y="79" type="curve"/>
			<point x="174" y="79"/>
			<point x="174" y="79"/>
			<point x="174" y="79" type="curve"/>
			<point x="252" y="218" type="line"/>
			<point x="252" y="218" type="line"/>
			<point x="259" y="231"/>
			<point x="266" y="235"/>
			<point x="289" y="235" type="curve" smooth="yes"/>
			<point x="471" y="235" type="line"/>
			<point x="493" y="72" type="line"/>
			<point x="493" y="72"/>
			<point x="493" y="72"/>
			<point x="493" y="72" type="curve"/>
			<point x="496" y="43"/>
			<point x="479" y="37"/>
			<point x="452" y="34" type="curve"/>
			<point x="446" y="34"/>
			<point x="439" y="33"/>
			<point x="431" y="33" type="curve" smooth="yes"/>
			<point x="425" y="33"/>
			<point x="420" y="32"/>
			<point x="414" y="32" type="curve"/>
			<point x="411" y="29"/>
			<point x="408" y="22"/>
			<point x="407" y="15" type="curve"/>
			<point x="407" y="15" type="line"/>
			<point x="405" y="8"/>
			<point x="406" y="1"/>
			<point x="408" y="-2" type="curve"/>
			<point x="408" y="-2" type="line"/>
			<point x="444" y="-1"/>
			<point x="535" y="0"/>
			<point x="572" y="0" type="curve" smooth="yes"/>
			<point x="578" y="0"/>
			<point x="583" y="0"/>
			<point x="590" y="0" type="curve" smooth="yes"/>
			<point x="626" y="0"/>
			<point x="670" y="-1"/>
			<point x="700" y="-2" type="curve"/>
			<point x="704" y="1"/>
			<point x="707" y="8"/>
			<point x="708" y="15" type="curve"/>
			<point x="708" y="15" type="line"/>
			<point x="710" y="22"/>
			<point x="710" y="29"/>
			<point x="707" y="32" type="curve"/>
			<point x="701" y="33"/>
			<point x="695" y="33"/>
			<point x="689" y="34" type="curve"/>
			<point x="689" y="34" type="line"/>
			<point x="660" y="37"/>
			<point x="637" y="44"/>
			<point x="631" y="86" type="curve" smooth="yes"/>
			<point x="547" y="640" type="line" smooth="yes"/>
			<point x="546" y="646"/>
			<point x="545" y="652"/>
			<point x="544" y="658" type="curve"/>
			<point x="533" y="652"/>
			<point x="497" y="632"/>
			<point x="465" y="621" type="curve"/>
			<point x="452" y="617"/>
			<point x="440" y="614"/>
			<point x="430" y="614" type="curve"/>
			<point x="122" y="102" type="line" smooth="yes"/>
			<point x="90" y="48"/>
			<point x="63" y="37"/>
			<point x="28" y="33" type="curve"/>
			<point x="23" y="33"/>
			<point x="18" y="32"/>
			<point x="13" y="32" type="curve"/>
			<point x="10" y="29"/>
			<point x="7" y="22"/>
			<point x="5" y="15" type="curve"/>
			<point x="5" y="15" type="line"/>
			<point x="4" y="8"/>
			<point x="4" y="1"/>
			<point x="6" y="-2" type="curve"/>
			<point x="6" y="-2" type="line"/>
			<point x="42" y="-1"/>
			<point x="60" y="0"/>
			<point x="97" y="0" type="curve" smooth="yes"/>
			<point x="136" y="0"/>
			<point x="189" y="-1"/>
			<point x="224" y="-2" type="curve"/>
			<point x="224" y="-2" type="line"/>
			<point x="231" y="4"/>
			<point x="236" y="26"/>
			<point x="231" y="32" type="curve"/>
			<point x="230" y="32"/>
			<point x="230" y="32"/>
			<point x="229" y="32" type="curve"/>
			<point x="222" y="33"/>
			<point x="215" y="33"/>
			<point x="208" y="34" type="curve" smooth="yes"/>
			<point x="179" y="38"/>
			<point x="156" y="47"/>
		</contour>
		<contour>
			<point x="317" y="283" type="line" smooth="yes"/>
			<point x="296" y="283"/>
			<point x="289" y="286"/>
			<point x="295" y="296" type="curve"/>
			<point x="300" y="305"/>
			<point x="306" y="315"/>
			<point x="311" y="324" type="curve" smooth="yes"/>
			<point x="424" y="520" type="line"/>
			<point x="430" y="520" type="line"/>
			<point x="463" y="283" type="line"/>
		</contour>
		<contour>
			<point x="526" y="833" type="curve"/>
			<point x="485" y="807"/>
			<point x="417" y="761"/>
			<point x="391" y="740" type="curve"/>
			<point x="389" y="739"/>
			<point x="387" y="738"/>
			<point x="386" y="737" type="curve"/>
			<point x="375" y="729"/>
			<point x="374" y="723"/>
			<point x="373" y="716" type="curve"/>
			<point x="372" y="711"/>
			<point x="377" y="706"/>
			<point x="382" y="703" type="curve"/>
			<point x="385" y="702"/>
			<point x="388" y="701"/>
			<point x="391" y="701" type="curve" smooth="yes"/>
			<point x="400" y="701"/>
			<point x="411" y="702"/>
			<point x="427" y="708" type="curve" smooth="yes"/>
			<point x="579" y="766" type="line"/>
			<point x="584" y="778" type="line"/>
			<point x="574" y="799"/>
			<point x="550" y="821"/>
		</contour>
	</outline>
</glyph>
<glyph name="Igrave" format="2">
	<unicode hex="00CC"/>
	<advance width="351"/>
	<outline>
		<contour>
			<point x="211" y="523" type="curve" smooth="yes"/>
			<point x="133" y="122" type="line" smooth="yes"/>
			<point x="131" y="112"/>
			<point x="129" y="102"/>
			<point x="126" y="94" type="curve"/>
			<point x="114" y="54"/>
			<point x="97" y="41"/>
			<point x="71" y="36" type="curve" smooth="yes"/>
			<point x="61" y="34"/>
			<point x="49" y="33"/>
			<point x="36" y="32" type="curve"/>
			<point x="25" y="26"/>
			<point x="21" y="4"/>
			<point x="29" y="-2" type="curve"/>
			<point x="63" y="-1"/>
			<point x="122" y="0"/>
			<point x="161" y="0" type="curve" smooth="yes"/>
			<point x="177" y="0" type="line" smooth="yes"/>
			<point x="215" y="0"/>
			<point x="285" y="-1"/>
			<point x="323" y="-2" type="curve"/>
			<point x="334" y="4"/>
			<point x="337" y="26"/>
			<point x="329" y="32" type="curve"/>
			<point x="316" y="33"/>
			<point x="305" y="34"/>
			<point x="295" y="36" type="curve" smooth="yes"/>
			<point x="271" y="41"/>
			<point x="259" y="54"/>
			<point x="263" y="94" type="curve" smooth="yes"/>
			<point x="264" y="102"/>
			<point x="265" y="112"/>
			<point x="267" y="122" type="curve" smooth="yes"/>
			<point x="345" y="523" type="line" smooth="yes"/>
			<point x="347" y="533"/>
			<point x="349" y="543"/>
			<point x="352" y="551" type="curve"/>
			<point x="364" y="591"/>
			<point x="381" y="604"/>
			<point x="407" y="609" type="curve" smooth="yes"/>
			<point x="417" y="611"/>
			<point x="429" y="612"/>
			<point x="442" y="613" type="curve"/>
			<point x="453" y="619"/>
			<point x="457" y="641"/>
			<point x="449" y="647" type="curve"/>
			<point x="415" y="646"/>
			<point x="358" y="645"/>
			<point x="319" y="645" type="curve" smooth="yes"/>
			<point x="303" y="645" type="line" smooth="yes"/>
			<point x="265" y="645"/>
			<point x="193" y="646"/>
			<point x="155" y="647" type="curve"/>
			<point x="144" y="641"/>
			<point x="140" y="619"/>
			<point x="148" y="613" type="curve"/>
			<point x="168" y="612"/>
			<point x="183" y="611"/>
			<point x="195" y="605" type="curve" smooth="yes"/>
			<point x="214" y="596"/>
			<point x="221" y="575"/>
		</contour>
		<contour>
			<point x="270" y="830" type="curve"/>
			<point x="244" y="818"/>
			<point x="214" y="796"/>
			<point x="198" y="775" type="curve"/>
			<point x="199" y="763" type="line"/>
			<point x="335" y="705" type="line"/>
			<point x="348" y="699"/>
			<point x="360" y="698"/>
			<point x="369" y="698" type="curve" smooth="yes"/>
			<point x="371" y="698"/>
			<point x="374" y="698"/>
			<point x="376" y="699" type="curve"/>
			<point x="383" y="702"/>
			<point x="390" y="707"/>
			<point x="391" y="713" type="curve" smooth="yes"/>
			<point x="392" y="720"/>
			<point x="393" y="726"/>
			<point x="384" y="734" type="curve"/>
			<point x="383" y="735"/>
			<point x="382" y="736"/>
			<point x="380" y="737" type="curve"/>
			<point x="358" y="758"/>
			<point x="304" y="804"/>
		</contour>
	</outline>
</glyph>
<glyph name="Icircumflex" format="2">
	<unicode hex="00CE"/>
	<advance width="351"/>
	<outline>
		<contour>
			<point x="211" y="523" type="curve" smooth="yes"/>
			<point x="133" y="122" type="line" smooth="yes"/>
			<point x="131" y="112"/>
			<point x="129" y="102"/>
			<point x="126" y="94" type="curve"/>
			<point x="114" y="54"/>
			<point x="97" y="41"/>
			<point x="71" y="36" type="curve" smooth="yes"/>
			<point x="61" y="34"/>
			<point x="49" y="33"/>
			<point x="36" y="32" type="curve"/>
			<point x="25" y="26"/>
			<point x="21" y="4"/>
			<point x="29" y="-2" type="curve"/>
			<point x="63" y="-1"/>
			<point x="122" y="0"/>
			<point x="161" y="0" type="curve" smooth="yes"/>
			<point x="177" y="0" type="line" smooth="yes"/>
			<point x="215" y="0"/>
			<point x="285" y="-1"/>
			<point x="323" y="-2" type="curve"/>
			<point x="334" y="4"/>
			<point x="337" y="26"/>
			<point x="329" y="32" type="curve"/>
			<point x="316" y="33"/>
			<point x="305" y="34"/>
			<point x="295" y="36" type="curve" smooth="yes"/>
			<point x="271" y="41"/>
			<point x="259" y="54"/>
			<point x="263" y="94" type="curve" smooth="yes"/>
			<point x="264" y="102"/>
			<point x="265" y="112"/>
			<point x="267" y="122" type="curve" smooth="yes"/>
			<point x="345" y="523" type="line" smooth="yes"/>
			<point x="347" y="533"/>
			<point x="349" y="543"/>
			<point x="352" y="551" type="curve"/>
			<point x="364" y="591"/>
			<point x="381" y="604"/>
			<point x="407" y="609" type="curve" smooth="yes"/>
			<point x="417" y="611"/>
			<point x="429" y="612"/>
			<point x="442" y="613" type="curve"/>
			<point x="453" y="619"/>
			<point x="457" y="641"/>
			<point x="449" y="647" type="curve"/>
			<point x="415" y="646"/>
			<point x="358" y="645"/>
			<point x="319" y="645" type="curve" smooth="yes"/>
			<point x="303" y="645" type="line" smooth="yes"/>
			<point x="265" y="645"/>
			<point x="193" y="646"/>
			<point x="155" y="647" type="curve"/>
			<point x="144" y="641"/>
			<point x="140" y="619"/>
			<point x="148" y="613" type="curve"/>
			<point x="168" y="612"/>
			<point x="183" y="611"/>
			<point x="195" y="605" type="curve" smooth="yes"/>
			<point x="214" y="596"/>
			<point x="221" y="575"/>
		</contour>
		<contour>
			<point x="451" y="724" type="curve"/>
			<point x="415" y="750"/>
			<point x="362" y="797"/>
			<point x="331" y="834" type="curve"/>
			<point x="316" y="829" type="line"/>
			<point x="276" y="794"/>
			<point x="220" y="752"/>
			<point x="174" y="725" type="curve"/>
			<point x="173" y="715"/>
			<point x="176" y="702"/>
			<point x="184" y="698" type="curve"/>
			<point x="223" y="709"/>
			<point x="282" y="732"/>
			<point x="315" y="754" type="curve"/>
			<point x="339" y="733"/>
			<point x="394" y="710"/>
			<point x="431" y="698" type="curve"/>
			<point x="441" y="702"/>
			<point x="450" y="714"/>
		</contour>
	</outline>
</glyph>
<glyph name="Idieresis" format="2">
	<unicode hex="00CF"/>
	<advance width="351"/>
	<outline>
		<contour>
			<point x="211" y="523" type="curve" smooth="yes"/>
			<point x="133" y="122" type="line" smooth="yes"/>
			<point x="131" y="112"/>
			<point x="129" y="102"/>
			<point x="126" y="94" type="curve"/>
			<point x="114" y="54"/>
			<point x="97" y="41"/>
			<point x="71" y="36" type="curve" smooth="yes"/>
			<point x="61" y="34"/>
			<point x="49" y="33"/>
			<point x="36" y="32" type="curve"/>
			<point x="25" y="26"/>
			<point x="21" y="4"/>
			<point x="29" y="-2" type="curve"/>
			<point x="63" y="-1"/>
			<point x="122" y="0"/>
			<point x="161" y="0" type="curve" smooth="yes"/>
			<point x="177" y="0" type="line" smooth="yes"/>
			<point x="215" y="0"/>
			<point x="285" y="-1"/>
			<point x="323" y="-2" type="curve"/>
			<point x="334" y="4"/>
			<point x="337" y="26"/>
			<point x="329" y="32" type="curve"/>
			<point x="316" y="33"/>
			<point x="305" y="34"/>
			<point x="295" y="36" type="curve" smooth="yes"/>
			<point x="271" y="41"/>
			<point x="259" y="54"/>
			<point x="263" y="94" type="curve" smooth="yes"/>
			<point x="264" y="102"/>
			<point x="265" y="112"/>
			<point x="267" y="122" type="curve" smooth="yes"/>
			<point x="345" y="523" type="line" smooth="yes"/>
			<point x="347" y="533"/>
			<point x="349" y="543"/>
			<point x="352" y="551" type="curve"/>
			<point x="364" y="591"/>
			<point x="381" y="604"/>
			<point x="407" y="609" type="curve" smooth="yes"/>
			<point x="417" y="611"/>
			<point x="429" y="612"/>
			<point x="442" y="613" type="curve"/>
			<point x="453" y="619"/>
			<point x="457" y="641"/>
			<point x="449" y="647" type="curve"/>
			<point x="415" y="646"/>
			<point x="358" y="645"/>
			<point x="319" y="645" type="curve" smooth="yes"/>
			<point x="303" y="645" type="line" smooth="yes"/>
			<point x="265" y="645"/>
			<point x="193" y="646"/>
			<point x="155" y="647" type="curve"/>
			<point x="144" y="641"/>
			<point x="140" y="619"/>
			<point x="148" y="613" type="curve"/>
			<point x="168" y="612"/>
			<point x="183" y="611"/>
			<point x="195" y="605" type="curve" smooth="yes"/>
			<point x="214" y="596"/>
			<point x="221" y="575"/>
		</contour>
		<contour>
			<point x="352" y="766" type="curve" smooth="yes"/>
			<point x="352" y="762"/>
			<point x="352" y="759"/>
			<point x="353" y="756" type="curve"/>
			<point x="357" y="732"/>
			<point x="375" y="715"/>
			<point x="399" y="711" type="curve"/>
			<point x="402" y="710"/>
			<point x="405" y="710"/>
			<point x="409" y="710" type="curve" smooth="yes"/>
			<point x="441" y="710"/>
			<point x="464" y="734"/>
			<point x="464" y="766" type="curve" smooth="yes"/>
			<point x="464" y="770"/>
			<point x="464" y="773"/>
			<point x="463" y="776" type="curve"/>
			<point x="459" y="800"/>
			<point x="443" y="818"/>
			<point x="419" y="822" type="curve"/>
			<point x="416" y="823"/>
			<point name=".hr01" x="413" y="823"/>
			<point x="409" y="823" type="curve" smooth="yes"/>
			<point x="377" y="823"/>
			<point x="352" y="798"/>
		</contour>
		<contour>
			<point x="165" y="766" type="curve" smooth="yes"/>
			<point x="165" y="762"/>
			<point x="165" y="759"/>
			<point x="166" y="756" type="curve"/>
			<point x="170" y="732"/>
			<point x="187" y="715"/>
			<point x="211" y="711" type="curve"/>
			<point x="214" y="710"/>
			<point x="217" y="710"/>
			<point x="221" y="710" type="curve" smooth="yes"/>
			<point x="253" y="710"/>
			<point x="277" y="734"/>
			<point x="277" y="766" type="curve" smooth="yes"/>
			<point x="277" y="770"/>
			<point x="277" y="773"/>
			<point x="276" y="776" type="curve"/>
			<point x="272" y="800"/>
			<point x="255" y="818"/>
			<point x="231" y="822" type="curve"/>
			<point x="228" y="823"/>
			<point name=".hr02" x="225" y="823"/>
			<point name=".hr03" x="221" y="823" type="curve" smooth="yes"/>
			<point x="189" y="823"/>
			<point x="165" y="798"/>
		</contour>
	</outline>
</glyph>
<glyph name="Eth" format="2">
	<unicode hex="00D0"/>
	<advance width="698"/>
	<outline>
		<component base="D"/>
		<contour>
			<point x="284" y="285" type="line"/>
			<point x="408" y="280" type="line"/>
			<point x="418" y="330" type="line"/>
			<point x="292" y="325" type="line"/>
		</contour>
		<contour>
			<point x="188" y="326" type="line"/>
			<point x="87" y="330" type="line"/>
			<point x="77" y="280" type="line"/>
			<point x="179" y="284" type="line"/>
		</contour>
	</outline>
</glyph>
<glyph name="Ntilde" format="2">
	<unicode hex="00D1"/>
	<advance width="709"/>
	<outline>
		<contour>
			<point x="614" y="0" type="curve"/>
			<point x="614" y="0"/>
			<point x="623" y="71"/>
			<point x="629" y="102" type="curve" smooth="yes"/>
			<point x="709" y="512" type="line" smooth="yes"/>
			<point x="713" y="534"/>
			<point x="718" y="551"/>
			<point x="723" y="564" type="curve" smooth="yes"/>
			<point x="733" y="591"/>
			<point x="746" y="601"/>
			<point x="769" y="607" type="curve" smooth="yes"/>
			<point x="781" y="610"/>
			<point x="795" y="611"/>
			<point x="812" y="613" type="curve"/>
			<point x="816" y="616"/>
			<point x="819" y="623"/>
			<point x="820" y="630" type="curve"/>
			<point x="822" y="637"/>
			<point x="822" y="644"/>
			<point x="819" y="647" type="curve"/>
			<point x="819" y="647" type="line"/>
			<point x="772" y="646"/>
			<point x="753" y="645"/>
			<point x="711" y="645" type="curve" smooth="yes"/>
			<point x="666" y="645"/>
			<point x="643" y="646"/>
			<point x="595" y="647" type="curve"/>
			<point x="592" y="644"/>
			<point x="589" y="637"/>
			<point x="587" y="630" type="curve"/>
			<point x="586" y="623"/>
			<point x="586" y="616"/>
			<point x="588" y="613" type="curve"/>
			<point x="596" y="612"/>
			<point x="604" y="611"/>
			<point x="610" y="610" type="curve" smooth="yes"/>
			<point x="617" y="609"/>
			<point x="623" y="608"/>
			<point x="628" y="607" type="curve"/>
			<point x="649" y="602"/>
			<point x="659" y="592"/>
			<point x="659" y="565" type="curve"/>
			<point x="659" y="565"/>
			<point x="659" y="565"/>
			<point x="659" y="565" type="curve"/>
			<point x="659" y="552"/>
			<point x="657" y="535"/>
			<point x="652" y="512" type="curve" smooth="yes"/>
			<point x="598" y="231" type="line"/>
			<point x="598" y="231" type="line"/>
			<point x="596" y="222"/>
			<point x="594" y="217"/>
			<point x="591" y="215" type="curve" smooth="yes"/>
			<point x="585" y="211"/>
			<point x="578" y="217"/>
			<point x="571" y="228" type="curve"/>
			<point x="571" y="228"/>
			<point x="571" y="228"/>
			<point x="571" y="228" type="curve"/>
			<point x="378" y="540" type="line"/>
			<point x="312" y="645" type="line"/>
			<point x="148" y="647" type="line"/>
			<point x="148" y="647" type="line"/>
			<point x="141" y="641"/>
			<point x="136" y="619"/>
			<point x="141" y="613" type="curve"/>
			<point x="149" y="612"/>
			<point x="157" y="611"/>
			<point x="163" y="608" type="curve"/>
			<point x="190" y="597"/>
			<point x="204" y="571"/>
			<point x="205" y="550" type="curve"/>
			<point x="124" y="133" type="line" smooth="yes"/>
			<point x="120" y="111"/>
			<point x="115" y="94"/>
			<point x="110" y="81" type="curve" smooth="yes"/>
			<point x="100" y="54"/>
			<point x="86" y="44"/>
			<point x="63" y="38" type="curve" smooth="yes"/>
			<point x="51" y="35"/>
			<point x="37" y="34"/>
			<point x="20" y="32" type="curve"/>
			<point x="17" y="29"/>
			<point x="14" y="22"/>
			<point x="13" y="15" type="curve"/>
			<point x="11" y="8"/>
			<point x="12" y="1"/>
			<point x="14" y="-2" type="curve"/>
			<point x="14" y="-2" type="line"/>
			<point x="61" y="-1"/>
			<point x="80" y="0"/>
			<point x="122" y="0" type="curve"/>
			<point x="122" y="0" type="line"/>
			<point x="167" y="0"/>
			<point x="189" y="-1"/>
			<point x="237" y="-2" type="curve"/>
			<point x="241" y="1"/>
			<point x="244" y="8"/>
			<point x="245" y="15" type="curve"/>
			<point x="245" y="15" type="line"/>
			<point x="247" y="22"/>
			<point x="247" y="29"/>
			<point x="244" y="32" type="curve"/>
			<point x="236" y="33"/>
			<point x="228" y="34"/>
			<point x="222" y="35" type="curve" smooth="yes"/>
			<point x="215" y="36"/>
			<point x="209" y="37"/>
			<point x="204" y="38" type="curve"/>
			<point x="183" y="43"/>
			<point x="173" y="53"/>
			<point x="173" y="80" type="curve"/>
			<point x="173" y="80"/>
			<point x="173" y="80"/>
			<point x="173" y="80" type="curve"/>
			<point x="173" y="93"/>
			<point x="176" y="110"/>
			<point x="180" y="133" type="curve" smooth="yes"/>
			<point x="238" y="430" type="line" smooth="yes"/>
			<point x="240" y="440"/>
			<point x="244" y="450"/>
			<point x="250" y="450" type="curve" smooth="yes"/>
			<point x="254" y="450"/>
			<point x="260" y="443"/>
			<point x="268" y="430" type="curve"/>
			<point x="268" y="430"/>
			<point x="268" y="430"/>
			<point x="268" y="430" type="curve"/>
			<point x="513" y="32" type="line" smooth="yes"/>
			<point x="518" y="24"/>
			<point x="523" y="16"/>
			<point x="527" y="9" type="curve"/>
			<point x="536" y="-4"/>
			<point x="543" y="-12"/>
			<point x="543" y="-12" type="curve"/>
			<point x="577" y="-12"/>
			<point x="595" y="-9"/>
		</contour>
		<contour>
			<point x="565" y="758" type="curve" smooth="yes"/>
			<point x="555" y="758"/>
			<point x="534" y="758"/>
			<point x="518" y="767" type="curve"/>
			<point x="516" y="769"/>
			<point x="514" y="770"/>
			<point x="512" y="772" type="curve"/>
			<point x="494" y="788"/>
			<point x="473" y="797"/>
			<point name=".hr01" x="442" y="797" type="curve" smooth="yes"/>
			<point x="407" y="797"/>
			<point x="369" y="755"/>
			<point x="345" y="704" type="curve"/>
			<point x="343" y="690"/>
			<point x="357" y="686"/>
			<point x="369" y="686" type="curve"/>
			<point x="385" y="724"/>
			<point x="402" y="726"/>
			<point x="424" y="726" type="curve" smooth="yes"/>
			<point x="440" y="726"/>
			<point x="456" y="723"/>
			<point x="472" y="713" type="curve"/>
			<point x="474" y="712"/>
			<point x="477" y="711"/>
			<point x="479" y="709" type="curve"/>
			<point x="497" y="694"/>
			<point x="518" y="688"/>
			<point name=".hr02" x="541" y="688" type="curve" smooth="yes"/>
			<point x="578" y="688"/>
			<point x="620" y="723"/>
			<point x="645" y="781" type="curve"/>
			<point x="645" y="781"/>
			<point x="645" y="781"/>
			<point x="645" y="781" type="curve"/>
			<point x="647" y="793"/>
			<point x="634" y="801"/>
			<point x="620" y="801" type="curve"/>
			<point x="601" y="765"/>
			<point x="579" y="758"/>
		</contour>
	</outline>
</glyph>
<glyph name="Ograve" format="2">
	<unicode hex="00D2"/>
	<advance width="699"/>
	<outline>
		<contour>
			<point x="347" y="-10" type="curve" smooth="yes"/>
			<point x="538" y="-10"/>
			<point x="688" y="126"/>
			<point x="727" y="309" type="curve" smooth="yes"/>
			<point x="734" y="339"/>
			<point x="737" y="371"/>
			<point x="737" y="404" type="curve" smooth="yes"/>
			<point x="737" y="560"/>
			<point x="629" y="658"/>
			<point x="476" y="658" type="curve" smooth="yes"/>
			<point x="380" y="658"/>
			<point x="288" y="615"/>
			<point x="219" y="546" type="curve" smooth="yes"/>
			<point x="165" y="492"/>
			<point x="118" y="420"/>
			<point x="98" y="333" type="curve" smooth="yes"/>
			<point x="92" y="304"/>
			<point x="88" y="273"/>
			<point x="88" y="241" type="curve" smooth="yes"/>
			<point x="88" y="84"/>
			<point x="204" y="-10"/>
		</contour>
		<contour>
			<point x="456" y="616" type="curve" smooth="yes"/>
			<point x="537" y="616"/>
			<point x="592" y="550"/>
			<point x="592" y="423" type="curve" smooth="yes"/>
			<point x="592" y="382"/>
			<point x="588" y="341"/>
			<point x="581" y="303" type="curve" smooth="yes"/>
			<point x="552" y="150"/>
			<point x="470" y="32"/>
			<point x="374" y="32" type="curve" smooth="yes"/>
			<point x="289" y="32"/>
			<point x="233" y="102"/>
			<point x="233" y="226" type="curve" smooth="yes"/>
			<point x="233" y="261"/>
			<point x="237" y="298"/>
			<point x="244" y="333" type="curve" smooth="yes"/>
			<point x="258" y="404"/>
			<point x="283" y="470"/>
			<point x="306" y="509" type="curve" smooth="yes"/>
			<point x="349" y="584"/>
			<point x="403" y="616"/>
		</contour>
		<contour>
			<point x="450" y="830" type="curve"/>
			<point x="424" y="818"/>
			<point x="394" y="796"/>
			<point x="378" y="775" type="curve"/>
			<point x="379" y="763" type="line"/>
			<point x="515" y="705" type="line"/>
			<point x="528" y="699"/>
			<point x="540" y="698"/>
			<point x="549" y="698" type="curve" smooth="yes"/>
			<point x="551" y="698"/>
			<point x="554" y="698"/>
			<point x="556" y="699" type="curve"/>
			<point x="563" y="702"/>
			<point x="570" y="707"/>
			<point x="571" y="713" type="curve" smooth="yes"/>
			<point x="572" y="720"/>
			<point x="573" y="726"/>
			<point x="564" y="734" type="curve"/>
			<point x="563" y="735"/>
			<point x="562" y="736"/>
			<point x="560" y="737" type="curve"/>
			<point x="538" y="758"/>
			<point x="484" y="804"/>
		</contour>
	</outline>
</glyph>
<glyph name="Oacute" format="2">
	<unicode hex="00D3"/>
	<advance width="699"/>
	<outline>
		<contour>
			<point x="347" y="-10" type="curve" smooth="yes"/>
			<point x="538" y="-10"/>
			<point x="688" y="126"/>
			<point x="727" y="309" type="curve" smooth="yes"/>
			<point x="734" y="339"/>
			<point x="737" y="371"/>
			<point x="737" y="404" type="curve" smooth="yes"/>
			<point x="737" y="560"/>
			<point x="629" y="658"/>
			<point x="476" y="658" type="curve" smooth="yes"/>
			<point x="380" y="658"/>
			<point x="288" y="615"/>
			<point x="219" y="546" type="curve" smooth="yes"/>
			<point x="165" y="492"/>
			<point x="118" y="420"/>
			<point x="98" y="333" type="curve" smooth="yes"/>
			<point x="92" y="304"/>
			<point x="88" y="273"/>
			<point x="88" y="241" type="curve" smooth="yes"/>
			<point x="88" y="84"/>
			<point x="204" y="-10"/>
		</contour>
		<contour>
			<point x="456" y="616" type="curve" smooth="yes"/>
			<point x="537" y="616"/>
			<point x="592" y="550"/>
			<point x="592" y="423" type="curve" smooth="yes"/>
			<point x="592" y="382"/>
			<point x="588" y="341"/>
			<point x="581" y="303" type="curve" smooth="yes"/>
			<point x="552" y="150"/>
			<point x="470" y="32"/>
			<point x="374" y="32" type="curve" smooth="yes"/>
			<point x="289" y="32"/>
			<point x="233" y="102"/>
			<point x="233" y="226" type="curve" smooth="yes"/>
			<point x="233" y="261"/>
			<point x="237" y="298"/>
			<point x="244" y="333" type="curve" smooth="yes"/>
			<point x="258" y="404"/>
			<point x="283" y="470"/>
			<point x="306" y="509" type="curve" smooth="yes"/>
			<point x="349" y="584"/>
			<point x="403" y="616"/>
		</contour>
		<contour>
			<point x="542" y="833" type="curve"/>
			<point x="501" y="807"/>
			<point x="433" y="761"/>
			<point x="407" y="740" type="curve"/>
			<point x="405" y="739"/>
			<point x="403" y="738"/>
			<point x="402" y="737" type="curve"/>
			<point x="391" y="729"/>
			<point x="390" y="723"/>
			<point x="389" y="716" type="curve"/>
			<point x="388" y="711"/>
			<point x="393" y="706"/>
			<point x="398" y="703" type="curve"/>
			<point x="401" y="702"/>
			<point x="404" y="701"/>
			<point x="407" y="701" type="curve" smooth="yes"/>
			<point x="416" y="701"/>
			<point x="427" y="702"/>
			<point x="443" y="708" type="curve" smooth="yes"/>
			<point x="595" y="766" type="line"/>
			<point x="600" y="778" type="line"/>
			<point x="590" y="799"/>
			<point x="566" y="821"/>
		</contour>
	</outline>
</glyph>
<glyph name="Ocircumflex" format="2">
	<unicode hex="00D4"/>
	<advance width="699"/>
	<outline>
		<contour>
			<point x="347" y="-10" type="curve" smooth="yes"/>
			<point x="538" y="-10"/>
			<point x="688" y="126"/>
			<point x="727" y="309" type="curve" smooth="yes"/>
			<point x="734" y="339"/>
			<point x="737" y="371"/>
			<point x="737" y="404" type="curve" smooth="yes"/>
			<point x="737" y="560"/>
			<point x="629" y="658"/>
			<point x="476" y="658" type="curve" smooth="yes"/>
			<point x="380" y="658"/>
			<point x="288" y="615"/>
			<point x="219" y="546" type="curve" smooth="yes"/>
			<point x="165" y="492"/>
			<point x="118" y="420"/>
			<point x="98" y="333" type="curve" smooth="yes"/>
			<point x="92" y="304"/>
			<point x="88" y="273"/>
			<point x="88" y="241" type="curve" smooth="yes"/>
			<point x="88" y="84"/>
			<point x="204" y="-10"/>
		</contour>
		<contour>
			<point x="456" y="616" type="curve" smooth="yes"/>
			<point x="537" y="616"/>
			<point x="592" y="550"/>
			<point x="592" y="423" type="curve" smooth="yes"/>
			<point x="592" y="382"/>
			<point x="588" y="341"/>
			<point x="581" y="303" type="curve" smooth="yes"/>
			<point x="552" y="150"/>
			<point x="470" y="32"/>
			<point x="374" y="32" type="curve" smooth="yes"/>
			<point x="289" y="32"/>
			<point x="233" y="102"/>
			<point x="233" y="226" type="curve" smooth="yes"/>
			<point x="233" y="261"/>
			<point x="237" y="298"/>
			<point x="244" y="333" type="curve" smooth="yes"/>
			<point x="258" y="404"/>
			<point x="283" y="470"/>
			<point x="306" y="509" type="curve" smooth="yes"/>
			<point x="349" y="584"/>
			<point x="403" y="616"/>
		</contour>
		<contour>
			<point x="618" y="724" type="curve"/>
			<point x="582" y="750"/>
			<point x="529" y="797"/>
			<point x="498" y="834" type="curve"/>
			<point x="483" y="829" type="line"/>
			<point x="443" y="794"/>
			<point x="387" y="752"/>
			<point x="341" y="725" type="curve"/>
			<point x="340" y="715"/>
			<point x="343" y="702"/>
			<point x="351" y="698" type="curve"/>
			<point x="390" y="709"/>
			<point x="449" y="732"/>
			<point x="482" y="754" type="curve"/>
			<point x="506" y="733"/>
			<point x="561" y="710"/>
			<point x="598" y="698" type="curve"/>
			<point x="608" y="702"/>
			<point x="617" y="714"/>
		</contour>
	</outline>
</glyph>
<glyph name="Otilde" format="2">
	<unicode hex="00D5"/>
	<advance width="699"/>
	<outline>
		<contour>
			<point x="347" y="-10" type="curve" smooth="yes"/>
			<point x="538" y="-10"/>
			<point x="688" y="126"/>
			<point x="727" y="309" type="curve" smooth="yes"/>
			<point x="734" y="339"/>
			<point x="737" y="371"/>
			<point x="737" y="404" type="curve" smooth="yes"/>
			<point x="737" y="560"/>
			<point x="629" y="658"/>
			<point x="476" y="658" type="curve" smooth="yes"/>
			<point x="380" y="658"/>
			<point x="288" y="615"/>
			<point x="219" y="546" type="curve" smooth="yes"/>
			<point x="165" y="492"/>
			<point x="118" y="420"/>
			<point x="98" y="333" type="curve" smooth="yes"/>
			<point x="92" y="304"/>
			<point x="88" y="273"/>
			<point x="88" y="241" type="curve" smooth="yes"/>
			<point x="88" y="84"/>
			<point x="204" y="-10"/>
		</contour>
		<contour>
			<point x="456" y="616" type="curve" smooth="yes"/>
			<point x="537" y="616"/>
			<point x="592" y="550"/>
			<point x="592" y="423" type="curve" smooth="yes"/>
			<point x="592" y="382"/>
			<point x="588" y="341"/>
			<point x="581" y="303" type="curve" smooth="yes"/>
			<point x="552" y="150"/>
			<point x="470" y="32"/>
			<point x="374" y="32" type="curve" smooth="yes"/>
			<point x="289" y="32"/>
			<point x="233" y="102"/>
			<point x="233" y="226" type="curve" smooth="yes"/>
			<point x="233" y="261"/>
			<point x="237" y="298"/>
			<point x="244" y="333" type="curve" smooth="yes"/>
			<point x="258" y="404"/>
			<point x="283" y="470"/>
			<point x="306" y="509" type="curve" smooth="yes"/>
			<point x="349" y="584"/>
			<point x="403" y="616"/>
		</contour>
		<contour>
			<point x="565" y="758" type="curve" smooth="yes"/>
			<point x="555" y="758"/>
			<point x="534" y="758"/>
			<point x="518" y="767" type="curve"/>
			<point x="516" y="769"/>
			<point x="514" y="770"/>
			<point x="512" y="772" type="curve"/>
			<point x="494" y="788"/>
			<point x="473" y="797"/>
			<point x="442" y="797" type="curve" smooth="yes"/>
			<point name=".hr01" x="407" y="797"/>
			<point x="369" y="755"/>
			<point x="345" y="704" type="curve"/>
			<point x="343" y="690"/>
			<point x="357" y="686"/>
			<point x="369" y="686" type="curve"/>
			<point x="385" y="724"/>
			<point x="402" y="726"/>
			<point x="424" y="726" type="curve" smooth="yes"/>
			<point x="440" y="726"/>
			<point x="456" y="723"/>
			<point x="472" y="713" type="curve"/>
			<point x="474" y="712"/>
			<point x="477" y="711"/>
			<point x="479" y="709" type="curve"/>
			<point x="497" y="694"/>
			<point x="518" y="688"/>
			<point x="541" y="688" type="curve" smooth="yes"/>
			<point name=".hr02" x="578" y="688"/>
			<point x="620" y="723"/>
			<point x="645" y="781" type="curve"/>
			<point x="645" y="781"/>
			<point x="645" y="781"/>
			<point x="645" y="781" type="curve"/>
			<point x="647" y="793"/>
			<point x="634" y="801"/>
			<point x="620" y="801" type="curve"/>
			<point x="601" y="765"/>
			<point x="579" y="758"/>
		</contour>
	</outline>
</glyph>
<glyph name="Odieresis" format="2">
	<unicode hex="00D6"/>
	<advance width="699"/>
	<outline>
		<contour>
			<point x="347" y="-10" type="curve" smooth="yes"/>
			<point x="538" y="-10"/>
			<point x="688" y="126"/>
			<point x="727" y="309" type="curve" smooth="yes"/>
			<point x="734" y="339"/>
			<point x="737" y="371"/>
			<point x="737" y="404" type="curve" smooth="yes"/>
			<point x="737" y="560"/>
			<point x="629" y="658"/>
			<point x="476" y="658" type="curve" smooth="yes"/>
			<point x="380" y="658"/>
			<point x="288" y="615"/>
			<point x="219" y="546" type="curve" smooth="yes"/>
			<point x="165" y="492"/>
			<point x="118" y="420"/>
			<point x="98" y="333" type="curve" smooth="yes"/>
			<point x="92" y="304"/>
			<point x="88" y="273"/>
			<point x="88" y="241" type="curve" smooth="yes"/>
			<point x="88" y="84"/>
			<point x="204" y="-10"/>
		</contour>
		<contour>
			<point x="456" y="616" type="curve" smooth="yes"/>
			<point x="537" y="616"/>
			<point x="592" y="550"/>
			<point x="592" y="423" type="curve" smooth="yes"/>
			<point x="592" y="382"/>
			<point x="588" y="341"/>
			<point x="581" y="303" type="curve" smooth="yes"/>
			<point x="552" y="150"/>
			<point x="470" y="32"/>
			<point x="374" y="32" type="curve" smooth="yes"/>
			<point x="289" y="32"/>
			<point x="233" y="102"/>
			<point x="233" y="226" type="curve" smooth="yes"/>
			<point x="233" y="261"/>
			<point x="237" y="298"/>
			<point x="244" y="333" type="curve" smooth="yes"/>
			<point x="258" y="404"/>
			<point x="283" y="470"/>
			<point x="306" y="509" type="curve" smooth="yes"/>
			<point x="349" y="584"/>
			<point x="403" y="616"/>
		</contour>
		<contour>
			<point x="525" y="759" type="curve" smooth="yes"/>
			<point x="525" y="755"/>
			<point x="525" y="752"/>
			<point x="526" y="749" type="curve"/>
			<point x="530" y="725"/>
			<point x="548" y="708"/>
			<point x="572" y="704" type="curve"/>
			<point x="575" y="703"/>
			<point x="578" y="703"/>
			<point x="582" y="703" type="curve" smooth="yes"/>
			<point x="614" y="703"/>
			<point x="637" y="727"/>
			<point x="637" y="759" type="curve" smooth="yes"/>
			<point x="637" y="763"/>
			<point x="637" y="766"/>
			<point x="636" y="769" type="curve"/>
			<point x="632" y="793"/>
			<point x="616" y="811"/>
			<point x="592" y="815" type="curve"/>
			<point x="589" y="816"/>
			<point x="586" y="816"/>
			<point name=".hr01" x="582" y="816" type="curve" smooth="yes"/>
			<point x="550" y="816"/>
			<point x="525" y="791"/>
		</contour>
		<contour>
			<point x="338" y="759" type="curve" smooth="yes"/>
			<point x="338" y="755"/>
			<point x="338" y="752"/>
			<point x="339" y="749" type="curve"/>
			<point x="343" y="725"/>
			<point x="360" y="708"/>
			<point x="384" y="704" type="curve"/>
			<point x="387" y="703"/>
			<point x="390" y="703"/>
			<point x="394" y="703" type="curve" smooth="yes"/>
			<point x="426" y="703"/>
			<point x="450" y="727"/>
			<point x="450" y="759" type="curve" smooth="yes"/>
			<point x="450" y="763"/>
			<point x="450" y="766"/>
			<point x="449" y="769" type="curve"/>
			<point x="445" y="793"/>
			<point x="428" y="811"/>
			<point x="404" y="815" type="curve"/>
			<point x="401" y="816"/>
			<point x="398" y="816"/>
			<point name=".hr02" x="394" y="816" type="curve" smooth="yes"/>
			<point name=".hr03" x="362" y="816"/>
			<point x="338" y="791"/>
		</contour>
	</outline>
</glyph>
<glyph name="multiply" format="2">
	<unicode hex="00D7"/>
	<advance width="527"/>
	<outline>
		<contour>
			<point x="355" y="232" type="line"/>
			<point x="501" y="351" type="line"/>
			<point x="466" y="393" type="line"/>
			<point x="324" y="273" type="line"/>
			<point x="231" y="393" type="line"/>
			<point x="177" y="346" type="line"/>
			<point x="269" y="227" type="line"/>
			<point x="127" y="111" type="line"/>
			<point x="159" y="69" type="line"/>
			<point x="302" y="187" type="line"/>
			<point x="398" y="69" type="line"/>
			<point x="450" y="111" type="line"/>
		</contour>
	</outline>
</glyph>
<glyph name="Yacute" format="2">
	<unicode hex="00DD"/>
	<advance width="606"/>
	<outline>
		<contour>
			<point x="411" y="122" type="curve" smooth="yes"/>
			<point x="440" y="268" type="line"/>
			<point x="443" y="281"/>
			<point x="445" y="293"/>
			<point x="448" y="303" type="curve" smooth="yes"/>
			<point x="454" y="323"/>
			<point x="461" y="337"/>
			<point x="472" y="351" type="curve" smooth="yes"/>
			<point x="637" y="565" type="line"/>
			<point x="659" y="595"/>
			<point x="675" y="605"/>
			<point x="700" y="609" type="curve"/>
			<point x="709" y="611"/>
			<point x="718" y="612"/>
			<point x="729" y="613" type="curve"/>
			<point x="736" y="619"/>
			<point x="741" y="641"/>
			<point x="736" y="647" type="curve"/>
			<point x="707" y="646"/>
			<point x="668" y="645"/>
			<point x="646" y="645" type="curve" smooth="yes"/>
			<point x="624" y="645"/>
			<point x="578" y="646"/>
			<point x="540" y="647" type="curve"/>
			<point x="533" y="641"/>
			<point x="529" y="619"/>
			<point x="534" y="613" type="curve"/>
			<point x="548" y="612"/>
			<point x="559" y="610"/>
			<point x="567" y="606" type="curve" smooth="yes"/>
			<point x="583" y="598"/>
			<point x="586" y="584"/>
			<point x="573" y="564" type="curve" smooth="yes"/>
			<point x="441" y="370" type="line"/>
			<point x="438" y="366"/>
			<point x="435" y="363"/>
			<point x="432" y="361" type="curve"/>
			<point x="425" y="358"/>
			<point x="419" y="362"/>
			<point x="415" y="373" type="curve" smooth="yes"/>
			<point x="351" y="557" type="line"/>
			<point x="351" y="557" type="line"/>
			<point x="349" y="562"/>
			<point x="348" y="567"/>
			<point x="347" y="572" type="curve"/>
			<point x="342" y="590"/>
			<point x="345" y="601"/>
			<point x="360" y="607" type="curve" smooth="yes"/>
			<point x="368" y="610"/>
			<point x="380" y="612"/>
			<point x="395" y="613" type="curve"/>
			<point x="402" y="619"/>
			<point x="407" y="641"/>
			<point x="402" y="647" type="curve"/>
			<point x="363" y="646"/>
			<point x="320" y="645"/>
			<point x="282" y="645" type="curve" smooth="yes"/>
			<point x="275" y="645"/>
			<point x="266" y="645"/>
			<point x="257" y="645" type="curve" smooth="yes"/>
			<point x="219" y="645"/>
			<point x="170" y="646"/>
			<point x="147" y="647" type="curve"/>
			<point x="140" y="641"/>
			<point x="136" y="619"/>
			<point x="141" y="613" type="curve"/>
			<point x="146" y="613"/>
			<point x="151" y="612"/>
			<point x="155" y="612" type="curve"/>
			<point x="185" y="607"/>
			<point x="200" y="596"/>
			<point x="218" y="547" type="curve" smooth="yes"/>
			<point x="298" y="332" type="line"/>
			<point x="302" y="320"/>
			<point x="305" y="312"/>
			<point x="307" y="304" type="curve"/>
			<point x="307" y="300"/>
			<point x="307" y="297"/>
			<point x="307" y="292" type="curve" smooth="yes"/>
			<point x="307" y="284"/>
			<point x="306" y="274"/>
			<point x="303" y="259" type="curve" smooth="yes"/>
			<point x="277" y="122" type="line" smooth="yes"/>
			<point x="274" y="108"/>
			<point x="272" y="97"/>
			<point x="269" y="87" type="curve"/>
			<point x="259" y="57"/>
			<point x="247" y="44"/>
			<point x="225" y="37" type="curve"/>
			<point x="211" y="33"/>
			<point x="192" y="32"/>
			<point x="166" y="31" type="curve"/>
			<point x="159" y="25"/>
			<point x="155" y="4"/>
			<point x="160" y="-2" type="curve"/>
			<point x="207" y="-1"/>
			<point x="263" y="0"/>
			<point x="328" y="0" type="curve" smooth="yes"/>
			<point x="388" y="0"/>
			<point x="432" y="-1"/>
			<point x="480" y="-2" type="curve"/>
			<point x="487" y="4"/>
			<point x="492" y="25"/>
			<point x="487" y="31" type="curve"/>
			<point x="459" y="32"/>
			<point x="440" y="33"/>
			<point x="427" y="39" type="curve"/>
			<point x="404" y="48"/>
			<point x="401" y="69"/>
		</contour>
		<contour>
			<point x="562" y="833" type="curve"/>
			<point x="521" y="807"/>
			<point x="453" y="761"/>
			<point x="427" y="740" type="curve"/>
			<point x="425" y="739"/>
			<point x="423" y="738"/>
			<point x="422" y="737" type="curve"/>
			<point x="411" y="729"/>
			<point x="410" y="723"/>
			<point x="409" y="716" type="curve"/>
			<point x="408" y="711"/>
			<point x="413" y="706"/>
			<point x="418" y="703" type="curve"/>
			<point x="421" y="702"/>
			<point x="424" y="701"/>
			<point x="427" y="701" type="curve" smooth="yes"/>
			<point x="436" y="701"/>
			<point x="447" y="702"/>
			<point x="463" y="708" type="curve" smooth="yes"/>
			<point x="615" y="766" type="line"/>
			<point x="620" y="778" type="line"/>
			<point x="610" y="799"/>
			<point x="586" y="821"/>
		</contour>
	</outline>
</glyph>
<glyph name="germandbls" format="2">
	<unicode hex="00DF"/>
	<advance width="599"/>
	<outline>
		<contour>
			<point x="406" y="32" type="curve" smooth="yes"/>
			<point x="388" y="32"/>
			<point x="369" y="41"/>
			<point x="372" y="53" type="curve" smooth="yes"/>
			<point x="377" y="75"/>
			<point x="394" y="86"/>
			<point x="399" y="106" type="curve"/>
			<point x="404" y="130"/>
			<point x="382" y="146"/>
			<point x="358" y="146" type="curve" smooth="yes"/>
			<point x="330" y="146"/>
			<point x="308" y="116"/>
			<point x="304" y="98" type="curve"/>
			<point x="302" y="87"/>
			<point x="301" y="77"/>
			<point x="301" y="66" type="curve"/>
			<point x="303" y="30"/>
			<point x="324" y="-1"/>
			<point x="374" y="-8" type="curve" smooth="yes"/>
			<point x="381" y="-9"/>
			<point x="389" y="-10"/>
			<point x="397" y="-10" type="curve" smooth="yes"/>
			<point x="517" y="-10"/>
			<point x="603" y="121"/>
			<point x="603" y="216" type="curve" smooth="yes"/>
			<point x="603" y="307"/>
			<point x="537" y="385"/>
			<point x="455" y="409" type="curve"/>
			<point x="455" y="411" type="line"/>
			<point x="572" y="453"/>
			<point name=".hr01" x="643" y="518"/>
			<point x="643" y="600" type="curve" smooth="yes"/>
			<point x="643" y="623"/>
			<point x="629" y="655"/>
			<point x="600" y="675" type="curve" smooth="yes"/>
			<point x="579" y="690"/>
			<point x="541" y="696"/>
			<point x="504" y="698" type="curve"/>
			<point x="498" y="698"/>
			<point x="492" y="698"/>
			<point x="486" y="698" type="curve" smooth="yes"/>
			<point x="386" y="698"/>
			<point x="261" y="644"/>
			<point x="212" y="498" type="curve"/>
			<point x="210" y="491"/>
			<point x="208" y="484"/>
			<point x="206" y="477" type="curve" smooth="yes"/>
			<point x="200" y="455"/>
			<point x="185" y="441"/>
			<point x="163" y="436" type="curve" smooth="yes"/>
			<point x="158" y="435"/>
			<point x="152" y="434"/>
			<point x="146" y="434" type="curve" smooth="yes"/>
			<point x="122" y="434"/>
			<point x="116" y="405"/>
			<point x="116" y="397" type="curve" smooth="yes"/>
			<point x="116" y="392"/>
			<point x="119" y="391"/>
			<point x="124" y="390" type="curve"/>
			<point x="171" y="385" type="line" smooth="yes"/>
			<point x="181" y="384"/>
			<point x="183" y="381"/>
			<point x="183" y="374" type="curve"/>
			<point x="164" y="282"/>
			<point x="153" y="232"/>
			<point x="137" y="141" type="curve" smooth="yes"/>
			<point x="117" y="28"/>
			<point x="120" y="-79"/>
			<point x="76" y="-148" type="curve"/>
			<point x="73" y="-152"/>
			<point x="70" y="-156"/>
			<point x="67" y="-159" type="curve"/>
			<point x="54" y="-174"/>
			<point x="35" y="-184"/>
			<point x="21" y="-184" type="curve" smooth="yes"/>
			<point x="2" y="-184"/>
			<point x="-3" y="-172"/>
			<point x="-12" y="-158" type="curve"/>
			<point x="-22" y="-144"/>
			<point x="-45" y="-122"/>
			<point x="-68" y="-122" type="curve" smooth="yes"/>
			<point x="-101" y="-122"/>
			<point x="-115" y="-148"/>
			<point x="-115" y="-168" type="curve" smooth="yes"/>
			<point x="-115" y="-192"/>
			<point x="-90" y="-225"/>
			<point x="-27" y="-232" type="curve" smooth="yes"/>
			<point x="-19" y="-233"/>
			<point x="-10" y="-233"/>
			<point x="-1" y="-233" type="curve" smooth="yes"/>
			<point x="33" y="-233"/>
			<point x="70" y="-221"/>
			<point x="101" y="-197" type="curve"/>
			<point x="114" y="-186"/>
			<point x="127" y="-173"/>
			<point x="138" y="-158" type="curve" smooth="yes"/>
			<point x="171" y="-111"/>
			<point x="229" y="12"/>
			<point x="256" y="130" type="curve" smooth="yes"/>
			<point x="276" y="216"/>
			<point x="286" y="277"/>
			<point x="303" y="357" type="curve" smooth="yes"/>
			<point x="307" y="374" type="line"/>
			<point x="319" y="428" type="line"/>
			<point x="322" y="442" type="line" smooth="yes"/>
			<point x="346" y="550"/>
			<point x="364" y="660"/>
			<point x="461" y="660" type="curve"/>
			<point x="461" y="660"/>
			<point x="461" y="660"/>
			<point x="461" y="660" type="curve"/>
			<point x="480" y="660"/>
			<point x="510" y="644"/>
			<point x="510" y="607" type="curve"/>
			<point x="510" y="607"/>
			<point x="510" y="607"/>
			<point x="510" y="607" type="curve"/>
			<point x="510" y="507"/>
			<point x="462" y="446"/>
			<point x="394" y="409" type="curve"/>
			<point x="391" y="396" type="line"/>
			<point x="465" y="343"/>
			<point name=".hr02" x="464" y="289"/>
			<point x="464" y="221" type="curve" smooth="yes"/>
			<point x="464" y="216"/>
			<point x="464" y="212"/>
			<point x="464" y="208" type="curve" smooth="yes"/>
			<point x="464" y="127"/>
			<point x="439" y="32"/>
		</contour>
	</outline>
</glyph>
<glyph name="acircumflex" format="2">
	<unicode hex="00E2"/>
	<advance width="558"/>
	<outline>
		<contour>
			<point x="508" y="436" type="curve" smooth="yes"/>
			<point x="497" y="436"/>
			<point x="485" y="434"/>
			<point x="472" y="433" type="curve"/>
			<point x="464" y="432"/>
			<point x="456" y="431"/>
			<point x="449" y="431" type="curve" smooth="yes"/>
			<point x="443" y="431"/>
			<point x="438" y="432"/>
			<point x="433" y="433" type="curve"/>
			<point x="411" y="436"/>
			<point x="408" y="438"/>
			<point name=".hr01" x="385" y="439" type="curve"/>
			<point x="380" y="439"/>
			<point x="375" y="439"/>
			<point x="368" y="439" type="curve" smooth="yes"/>
			<point x="284" y="439"/>
			<point x="204" y="386"/>
			<point x="149" y="316" type="curve" smooth="yes"/>
			<point x="107" y="262"/>
			<point x="78" y="199"/>
			<point x="75" y="130" type="curve"/>
			<point x="75" y="126"/>
			<point x="75" y="122"/>
			<point x="75" y="118" type="curve" smooth="yes"/>
			<point x="75" y="49"/>
			<point x="109" y="-10"/>
			<point x="182" y="-10" type="curve" smooth="yes"/>
			<point x="225" y="-10"/>
			<point x="287" y="38"/>
			<point x="347" y="127" type="curve"/>
			<point x="351" y="125" type="line"/>
			<point x="346" y="107" type="line" smooth="yes"/>
			<point x="344" y="100"/>
			<point x="343" y="93"/>
			<point x="342" y="86" type="curve"/>
			<point x="339" y="72"/>
			<point x="338" y="58"/>
			<point x="338" y="47" type="curve" smooth="yes"/>
			<point x="338" y="41"/>
			<point x="338" y="35"/>
			<point x="339" y="30" type="curve"/>
			<point x="340" y="27"/>
			<point x="340" y="25"/>
			<point x="341" y="23" type="curve"/>
			<point x="349" y="3"/>
			<point x="361" y="-10"/>
			<point x="391" y="-10" type="curve" smooth="yes"/>
			<point x="399" y="-10"/>
			<point x="406" y="-10"/>
			<point x="414" y="-9" type="curve" smooth="yes"/>
			<point x="475" y="-2"/>
			<point x="528" y="30"/>
			<point x="569" y="82" type="curve"/>
			<point x="566" y="91"/>
			<point x="554" y="110"/>
			<point x="540" y="110" type="curve"/>
			<point x="514" y="80"/>
			<point x="480" y="63"/>
			<point x="470" y="63" type="curve" smooth="yes"/>
			<point x="462" y="63"/>
			<point x="459" y="71"/>
			<point x="459" y="81" type="curve" smooth="yes"/>
			<point x="459" y="94"/>
			<point x="463" y="110"/>
			<point x="466" y="124" type="curve" smooth="yes"/>
			<point x="508" y="320" type="line" smooth="yes"/>
			<point x="517" y="360"/>
			<point x="529" y="398"/>
			<point x="529" y="415" type="curve" smooth="yes"/>
			<point x="529" y="429"/>
			<point name=".hr02" x="521" y="436"/>
		</contour>
		<contour>
			<point x="365" y="226" type="curve"/>
			<point x="316" y="136"/>
			<point x="276" y="85"/>
			<point x="244" y="85" type="curve"/>
			<point x="244" y="85"/>
			<point x="244" y="85"/>
			<point x="244" y="85" type="curve"/>
			<point x="213" y="85"/>
			<point x="200" y="108"/>
			<point x="200" y="138" type="curve" smooth="yes"/>
			<point x="200" y="147"/>
			<point x="200" y="156"/>
			<point x="201" y="165" type="curve" smooth="yes"/>
			<point x="206" y="216"/>
			<point x="225" y="271"/>
			<point x="251" y="315" type="curve" smooth="yes"/>
			<point x="277" y="358"/>
			<point x="312" y="390"/>
			<point x="350" y="396" type="curve"/>
			<point name=".hr03" x="354" y="397"/>
			<point x="359" y="397"/>
			<point x="363" y="397" type="curve" smooth="yes"/>
			<point x="384" y="397"/>
			<point x="395" y="391"/>
			<point x="397" y="378" type="curve"/>
			<point x="397" y="378"/>
			<point x="390" y="290"/>
		</contour>
		<contour>
			<point x="400" y="663" type="curve"/>
			<point x="348" y="663" type="line"/>
			<point x="311" y="615"/>
			<point x="265" y="570"/>
			<point x="223" y="529" type="curve"/>
			<point x="245" y="510" type="line"/>
			<point x="289" y="536"/>
			<point x="319" y="554"/>
			<point x="363" y="593" type="curve"/>
			<point x="393" y="556"/>
			<point x="419" y="536"/>
			<point x="458" y="510" type="curve"/>
			<point x="486" y="529" type="line"/>
			<point x="455" y="570"/>
			<point x="423" y="614"/>
		</contour>
	</outline>
</glyph>
<glyph name="aring" format="2">
	<unicode hex="00E5"/>
	<advance width="558"/>
	<outline>
		<contour>
			<point x="508" y="436" type="curve" smooth="yes"/>
			<point x="497" y="436"/>
			<point x="485" y="434"/>
			<point x="472" y="433" type="curve"/>
			<point x="464" y="432"/>
			<point x="456" y="431"/>
			<point x="449" y="431" type="curve" smooth="yes"/>
			<point x="443" y="431"/>
			<point x="438" y="432"/>
			<point x="433" y="433" type="curve"/>
			<point x="411" y="436"/>
			<point x="408" y="438"/>
			<point name=".hr01" x="385" y="439" type="curve"/>
			<point x="380" y="439"/>
			<point x="375" y="439"/>
			<point x="368" y="439" type="curve" smooth="yes"/>
			<point x="284" y="439"/>
			<point x="204" y="386"/>
			<point x="149" y="316" type="curve" smooth="yes"/>
			<point x="107" y="262"/>
			<point x="78" y="199"/>
			<point x="75" y="130" type="curve"/>
			<point x="75" y="126"/>
			<point x="75" y="122"/>
			<point x="75" y="118" type="curve" smooth="yes"/>
			<point x="75" y="49"/>
			<point x="109" y="-10"/>
			<point x="182" y="-10" type="curve" smooth="yes"/>
			<point x="225" y="-10"/>
			<point x="287" y="38"/>
			<point x="347" y="127" type="curve"/>
			<point x="351" y="125" type="line"/>
			<point x="346" y="107" type="line" smooth="yes"/>
			<point x="344" y="100"/>
			<point x="343" y="93"/>
			<point x="342" y="86" type="curve"/>
			<point x="339" y="72"/>
			<point x="338" y="58"/>
			<point x="338" y="47" type="curve" smooth="yes"/>
			<point x="338" y="41"/>
			<point x="338" y="35"/>
			<point x="339" y="30" type="curve"/>
			<point x="340" y="27"/>
			<point x="340" y="25"/>
			<point x="341" y="23" type="curve"/>
			<point x="349" y="3"/>
			<point x="361" y="-10"/>
			<point x="391" y="-10" type="curve" smooth="yes"/>
			<point x="399" y="-10"/>
			<point x="406" y="-10"/>
			<point x="414" y="-9" type="curve" smooth="yes"/>
			<point x="475" y="-2"/>
			<point x="528" y="30"/>
			<point x="569" y="82" type="curve"/>
			<point x="566" y="91"/>
			<point x="554" y="110"/>
			<point x="540" y="110" type="curve"/>
			<point x="514" y="80"/>
			<point x="480" y="63"/>
			<point x="470" y="63" type="curve" smooth="yes"/>
			<point x="462" y="63"/>
			<point x="459" y="71"/>
			<point x="459" y="81" type="curve" smooth="yes"/>
			<point x="459" y="94"/>
			<point x="463" y="110"/>
			<point x="466" y="124" type="curve" smooth="yes"/>
			<point x="508" y="320" type="line" smooth="yes"/>
			<point x="517" y="360"/>
			<point x="529" y="398"/>
			<point x="529" y="415" type="curve" smooth="yes"/>
			<point x="529" y="429"/>
			<point name=".hr02" x="521" y="436"/>
		</contour>
		<contour>
			<point x="365" y="226" type="curve"/>
			<point x="316" y="136"/>
			<point x="276" y="85"/>
			<point x="244" y="85" type="curve"/>
			<point x="244" y="85"/>
			<point x="244" y="85"/>
			<point x="244" y="85" type="curve"/>
			<point x="213" y="85"/>
			<point x="200" y="108"/>
			<point x="200" y="138" type="curve" smooth="yes"/>
			<point x="200" y="147"/>
			<point x="200" y="156"/>
			<point x="201" y="165" type="curve" smooth="yes"/>
			<point x="206" y="216"/>
			<point x="225" y="271"/>
			<point x="251" y="315" type="curve" smooth="yes"/>
			<point x="277" y="358"/>
			<point x="312" y="390"/>
			<point x="350" y="396" type="curve"/>
			<point name=".hr03" x="354" y="397"/>
			<point x="359" y="397"/>
			<point x="363" y="397" type="curve" smooth="yes"/>
			<point x="384" y="397"/>
			<point x="395" y="391"/>
			<point x="397" y="378" type="curve"/>
			<point x="397" y="378"/>
			<point x="390" y="290"/>
		</contour>
		<contour>
			<point x="296" y="593" type="curve" smooth="yes"/>
			<point x="290" y="547"/>
			<point x="323" y="510"/>
			<point x="369" y="510" type="curve" smooth="yes"/>
			<point x="416" y="510"/>
			<point x="461" y="548"/>
			<point x="467" y="593" type="curve" smooth="yes"/>
			<point x="474" y="640"/>
			<point x="438" y="676"/>
			<point x="393" y="676" type="curve" smooth="yes"/>
			<point x="346" y="676"/>
			<point x="303" y="639"/>
		</contour>
		<contour>
			<point x="388" y="642" type="curve" smooth="yes"/>
			<point x="415" y="642"/>
			<point x="433" y="622"/>
			<point x="429" y="593" type="curve" smooth="yes"/>
			<point x="425" y="567"/>
			<point x="403" y="544"/>
			<point x="374" y="544" type="curve" smooth="yes"/>
			<point x="345" y="544"/>
			<point x="330" y="567"/>
			<point x="334" y="593" type="curve" smooth="yes"/>
			<point x="338" y="621"/>
			<point x="360" y="642"/>
		</contour>
	</outline>
</glyph>
<glyph name="ccedilla" format="2">
	<unicode hex="00E7"/>
	<advance width="434"/>
	<outline>
		<contour>
			<point x="165" y="-97" type="line"/>
			<point x="183" y="-98"/>
			<point x="205" y="-100"/>
			<point x="222" y="-106" type="curve"/>
			<point x="235" y="-110"/>
			<point x="245" y="-117"/>
			<point x="248" y="-128" type="curve" smooth="yes"/>
			<point x="249" y="-132"/>
			<point x="249" y="-136"/>
			<point x="248" y="-141" type="curve"/>
			<point x="244" y="-168"/>
			<point x="223" y="-182"/>
			<point x="193" y="-182" type="curve" smooth="yes"/>
			<point x="173" y="-182"/>
			<point x="162" y="-178"/>
			<point x="136" y="-168" type="curve"/>
			<point x="127" y="-172"/>
			<point x="124" y="-184"/>
			<point x="123" y="-194" type="curve"/>
			<point x="146" y="-205"/>
			<point x="152" y="-211"/>
			<point x="184" y="-211" type="curve" smooth="yes"/>
			<point x="249" y="-211"/>
			<point x="307" y="-171"/>
			<point x="314" y="-121" type="curve" smooth="yes"/>
			<point x="320" y="-78"/>
			<point x="294" y="-57"/>
			<point x="262" y="-45" type="curve"/>
			<point x="253" y="-42"/>
			<point x="243" y="-39"/>
			<point x="233" y="-37" type="curve"/>
			<point x="248" y="-9" type="line"/>
			<point x="307" y="-4"/>
			<point x="377" y="36"/>
			<point x="421" y="87" type="curve"/>
			<point x="421" y="96"/>
			<point x="409" y="118"/>
			<point x="400" y="118" type="curve"/>
			<point x="355" y="81"/>
			<point x="323" y="66"/>
			<point x="289" y="66" type="curve" smooth="yes"/>
			<point x="281" y="66"/>
			<point x="273" y="67"/>
			<point x="266" y="69" type="curve"/>
			<point x="251" y="74"/>
			<point x="238" y="82"/>
			<point x="228" y="95" type="curve" smooth="yes"/>
			<point x="213" y="114"/>
			<point x="204" y="141"/>
			<point x="204" y="177" type="curve"/>
			<point x="203" y="195"/>
			<point x="205" y="214"/>
			<point x="210" y="236" type="curve" smooth="yes"/>
			<point x="234" y="347"/>
			<point x="279" y="402"/>
			<point x="328" y="402" type="curve"/>
			<point x="328" y="402"/>
			<point x="328" y="402"/>
			<point x="328" y="402" type="curve"/>
			<point x="352" y="402"/>
			<point x="362" y="382"/>
			<point x="365" y="359" type="curve"/>
			<point x="365" y="350"/>
			<point x="365" y="340"/>
			<point x="364" y="331" type="curve" smooth="yes"/>
			<point x="363" y="322"/>
			<point x="365" y="314"/>
			<point x="368" y="307" type="curve"/>
			<point x="375" y="293"/>
			<point x="391" y="284"/>
			<point x="411" y="284" type="curve" smooth="yes"/>
			<point x="441" y="284"/>
			<point x="467" y="309"/>
			<point x="474" y="340" type="curve" smooth="yes"/>
			<point x="485" y="394"/>
			<point x="446" y="444"/>
			<point x="345" y="444" type="curve" smooth="yes"/>
			<point x="286" y="444"/>
			<point x="222" y="416"/>
			<point x="171" y="368" type="curve" smooth="yes"/>
			<point x="127" y="326"/>
			<point x="92" y="269"/>
			<point x="78" y="201" type="curve" smooth="yes"/>
			<point x="73" y="179"/>
			<point x="71" y="158"/>
			<point x="72" y="139" type="curve"/>
			<point x="72" y="100"/>
			<point x="82" y="66"/>
			<point x="101" y="42" type="curve" smooth="yes"/>
			<point x="124" y="13"/>
			<point x="153" y="-2"/>
			<point x="196" y="-8" type="curve"/>
			<point x="201" y="-8"/>
			<point x="207" y="-9"/>
			<point x="213" y="-9" type="curve"/>
			<point x="213" y="-9" type="line"/>
			<point x="160" y="-91" type="line"/>
		</contour>
	</outline>
</glyph>
<glyph name="egrave" format="2">
	<unicode hex="00E8"/>
	<advance width="409"/>
	<outline>
		<contour>
			<point x="193" y="199" type="curve"/>
			<point x="319" y="226"/>
			<point x="391" y="255"/>
			<point x="425" y="288" type="curve" smooth="yes"/>
			<point x="456" y="317"/>
			<point x="456" y="351"/>
			<point x="456" y="369" type="curve" smooth="yes"/>
			<point x="456" y="404"/>
			<point x="415" y="439"/>
			<point x="334" y="439" type="curve" smooth="yes"/>
			<point x="140" y="439"/>
			<point x="63" y="269"/>
			<point x="63" y="142" type="curve" smooth="yes"/>
			<point x="63" y="57"/>
			<point x="89" y="-10"/>
			<point x="209" y="-10" type="curve" smooth="yes"/>
			<point x="276" y="-10"/>
			<point x="354" y="23"/>
			<point x="413" y="99" type="curve"/>
			<point x="408" y="110"/>
			<point x="393" y="124"/>
			<point x="381" y="124" type="curve"/>
			<point x="324" y="66"/>
			<point x="293" y="50"/>
			<point x="245" y="50" type="curve" smooth="yes"/>
			<point x="206" y="50"/>
			<point x="192" y="98"/>
			<point x="192" y="165" type="curve" smooth="yes"/>
			<point x="192" y="170"/>
			<point x="192" y="191"/>
		</contour>
		<contour>
			<point x="292" y="674" type="line"/>
			<point x="288" y="675"/>
			<point x="277" y="676"/>
			<point x="272" y="676" type="curve" smooth="yes"/>
			<point x="236" y="676"/>
			<point x="204" y="653"/>
			<point x="194" y="644" type="curve"/>
			<point x="191" y="633" type="line"/>
			<point x="297" y="528" type="line" smooth="yes"/>
			<point x="312" y="513"/>
			<point x="321" y="508"/>
			<point x="329" y="508" type="curve" smooth="yes"/>
			<point x="338" y="508"/>
			<point x="347" y="515"/>
			<point x="348" y="524" type="curve"/>
			<point x="350" y="532"/>
			<point x="346" y="543"/>
			<point x="343" y="550" type="curve" smooth="yes"/>
		</contour>
		<contour>
			<point x="343" y="370" type="curve" smooth="yes"/>
			<point x="343" y="280"/>
			<point x="253" y="246"/>
			<point x="200" y="237" type="curve"/>
			<point x="234" y="378"/>
			<point x="272" y="398"/>
			<point x="311" y="398" type="curve" smooth="yes"/>
			<point x="332" y="398"/>
			<point x="343" y="390"/>
		</contour>
	</outline>
</glyph>
<glyph name="eacute" format="2">
	<unicode hex="00E9"/>
	<advance width="409"/>
	<outline>
		<contour>
			<point x="193" y="199" type="curve"/>
			<point x="319" y="226"/>
			<point x="391" y="255"/>
			<point x="425" y="288" type="curve" smooth="yes"/>
			<point x="456" y="317"/>
			<point x="456" y="351"/>
			<point x="456" y="369" type="curve" smooth="yes"/>
			<point x="456" y="404"/>
			<point x="415" y="439"/>
			<point x="334" y="439" type="curve" smooth="yes"/>
			<point x="140" y="439"/>
			<point x="63" y="269"/>
			<point x="63" y="142" type="curve" smooth="yes"/>
			<point x="63" y="57"/>
			<point x="89" y="-10"/>
			<point x="209" y="-10" type="curve" smooth="yes"/>
			<point x="276" y="-10"/>
			<point x="354" y="23"/>
			<point x="413" y="99" type="curve"/>
			<point x="408" y="110"/>
			<point x="393" y="124"/>
			<point x="381" y="124" type="curve"/>
			<point x="324" y="66"/>
			<point x="293" y="50"/>
			<point x="245" y="50" type="curve" smooth="yes"/>
			<point x="206" y="50"/>
			<point x="192" y="98"/>
			<point x="192" y="165" type="curve" smooth="yes"/>
			<point x="192" y="170"/>
			<point x="192" y="191"/>
		</contour>
		<contour>
			<point x="334" y="674" type="curve"/>
			<point x="232" y="543" type="line" smooth="yes"/>
			<point x="225" y="534"/>
			<point x="222" y="525"/>
			<point x="221" y="519" type="curve" smooth="yes"/>
			<point x="220" y="513"/>
			<point x="227" y="505"/>
			<point x="235" y="505" type="curve" smooth="yes"/>
			<point x="245" y="505"/>
			<point x="260" y="509"/>
			<point x="275" y="521" type="curve" smooth="yes"/>
			<point x="410" y="629" type="line"/>
			<point x="404" y="652" type="line"/>
			<point x="397" y="662"/>
			<point x="380" y="676"/>
			<point x="350" y="676" type="curve" smooth="yes"/>
			<point x="345" y="676"/>
			<point x="337" y="675"/>
		</contour>
		<contour>
			<point x="343" y="370" type="curve" smooth="yes"/>
			<point x="343" y="280"/>
			<point x="253" y="246"/>
			<point x="200" y="237" type="curve"/>
			<point x="234" y="378"/>
			<point x="272" y="398"/>
			<point x="311" y="398" type="curve" smooth="yes"/>
			<point x="332" y="398"/>
			<point x="343" y="390"/>
		</contour>
	</outline>
</glyph>
<glyph name="ecircumflex" format="2">
	<unicode hex="00EA"/>
	<advance width="409"/>
	<outline>
		<contour>
			<point x="193" y="199" type="curve"/>
			<point x="319" y="226"/>
			<point x="391" y="255"/>
			<point x="425" y="288" type="curve" smooth="yes"/>
			<point x="456" y="317"/>
			<point x="456" y="351"/>
			<point x="456" y="369" type="curve" smooth="yes"/>
			<point x="456" y="404"/>
			<point x="415" y="439"/>
			<point x="334" y="439" type="curve" smooth="yes"/>
			<point x="140" y="439"/>
			<point x="63" y="269"/>
			<point x="63" y="142" type="curve" smooth="yes"/>
			<point x="63" y="57"/>
			<point x="89" y="-10"/>
			<point x="209" y="-10" type="curve" smooth="yes"/>
			<point x="276" y="-10"/>
			<point x="354" y="23"/>
			<point x="413" y="99" type="curve"/>
			<point x="408" y="110"/>
			<point x="393" y="124"/>
			<point x="381" y="124" type="curve"/>
			<point x="324" y="66"/>
			<point x="293" y="50"/>
			<point x="245" y="50" type="curve" smooth="yes"/>
			<point x="206" y="50"/>
			<point x="192" y="98"/>
			<point x="192" y="165" type="curve" smooth="yes"/>
			<point x="192" y="170"/>
			<point x="192" y="191"/>
		</contour>
		<contour>
			<point x="360" y="663" type="curve"/>
			<point x="308" y="663" type="line"/>
			<point x="271" y="615"/>
			<point x="225" y="570"/>
			<point x="183" y="529" type="curve"/>
			<point x="205" y="510" type="line"/>
			<point x="249" y="536"/>
			<point x="279" y="554"/>
			<point x="323" y="593" type="curve"/>
			<point x="353" y="556"/>
			<point x="379" y="536"/>
			<point x="418" y="510" type="curve"/>
			<point x="446" y="529" type="line"/>
			<point x="415" y="570"/>
			<point x="383" y="614"/>
		</contour>
		<contour>
			<point x="343" y="370" type="curve" smooth="yes"/>
			<point x="343" y="280"/>
			<point x="253" y="246"/>
			<point x="200" y="237" type="curve"/>
			<point x="234" y="378"/>
			<point x="272" y="398"/>
			<point x="311" y="398" type="curve" smooth="yes"/>
			<point x="332" y="398"/>
			<point x="343" y="390"/>
		</contour>
	</outline>
</glyph>
<glyph name="edieresis" format="2">
	<unicode hex="00EB"/>
	<advance width="409"/>
	<outline>
		<contour>
			<point x="193" y="203" type="curve"/>
			<point x="319" y="230"/>
			<point x="391" y="259"/>
			<point x="425" y="292" type="curve" smooth="yes"/>
			<point x="456" y="321"/>
			<point x="456" y="355"/>
			<point x="456" y="373" type="curve" smooth="yes"/>
			<point x="456" y="408"/>
			<point x="415" y="443"/>
			<point x="334" y="443" type="curve" smooth="yes"/>
			<point x="140" y="443"/>
			<point x="63" y="273"/>
			<point x="63" y="146" type="curve" smooth="yes"/>
			<point x="63" y="61"/>
			<point x="89" y="-6"/>
			<point x="209" y="-6" type="curve" smooth="yes"/>
			<point x="276" y="-6"/>
			<point x="354" y="27"/>
			<point x="413" y="103" type="curve"/>
			<point x="408" y="114"/>
			<point x="393" y="128"/>
			<point x="381" y="128" type="curve"/>
			<point x="324" y="70"/>
			<point x="293" y="54"/>
			<point x="245" y="54" type="curve" smooth="yes"/>
			<point x="206" y="54"/>
			<point x="192" y="102"/>
			<point x="192" y="169" type="curve" smooth="yes"/>
			<point x="192" y="174"/>
			<point x="192" y="195"/>
		</contour>
		<contour>
			<point x="343" y="374" type="curve" smooth="yes"/>
			<point x="343" y="284"/>
			<point x="253" y="250"/>
			<point x="200" y="241" type="curve"/>
			<point x="234" y="382"/>
			<point x="272" y="402"/>
			<point x="311" y="402" type="curve" smooth="yes"/>
			<point x="332" y="402"/>
			<point x="343" y="394"/>
		</contour>
		<contour>
			<point x="199" y="573" type="curve" smooth="yes"/>
			<point x="197" y="543"/>
			<point x="219" y="519"/>
			<point x="247" y="519" type="curve" smooth="yes"/>
			<point x="276" y="519"/>
			<point x="300" y="543"/>
			<point x="302" y="573" type="curve" smooth="yes"/>
			<point x="304" y="604"/>
			<point x="284" y="628"/>
			<point x="255" y="628" type="curve" smooth="yes"/>
			<point x="226" y="628"/>
			<point x="201" y="604"/>
		</contour>
		<contour>
			<point x="374" y="573" type="curve" smooth="yes"/>
			<point x="372" y="543"/>
			<point x="392" y="519"/>
			<point name=".hr01" x="422" y="519" type="curve" smooth="yes"/>
			<point x="450" y="519"/>
			<point x="475" y="543"/>
			<point x="477" y="573" type="curve" smooth="yes"/>
			<point x="479" y="604"/>
			<point x="458" y="628"/>
			<point x="429" y="628" type="curve" smooth="yes"/>
			<point x="400" y="628"/>
			<point x="376" y="604"/>
		</contour>
	</outline>
</glyph>
<glyph name="icircumflex" format="2">
	<unicode hex="00EE"/>
	<advance width="342"/>
	<outline>
		<contour>
			<point x="293" y="320" type="line" smooth="yes"/>
			<point x="302" y="360"/>
			<point x="314" y="398"/>
			<point x="314" y="415" type="curve" smooth="yes"/>
			<point x="314" y="429"/>
			<point x="306" y="436"/>
			<point x="293" y="436" type="curve" smooth="yes"/>
			<point x="261" y="436"/>
			<point x="168" y="429"/>
			<point x="121" y="423" type="curve"/>
			<point x="114" y="415"/>
			<point x="113" y="394"/>
			<point x="119" y="385" type="curve"/>
			<point x="159" y="382" type="line" smooth="yes"/>
			<point x="171" y="381"/>
			<point x="177" y="372"/>
			<point x="177" y="362" type="curve" smooth="yes"/>
			<point x="177" y="353"/>
			<point x="177" y="347"/>
			<point x="171" y="321" type="curve" smooth="yes"/>
			<point x="127" y="115" type="line" smooth="yes"/>
			<point x="120" y="83"/>
			<point x="114" y="41"/>
			<point x="120" y="23" type="curve"/>
			<point x="128" y="3"/>
			<point x="139" y="-10"/>
			<point x="169" y="-10" type="curve" smooth="yes"/>
			<point x="239" y="-10"/>
			<point x="308" y="23"/>
			<point x="354" y="82" type="curve"/>
			<point x="351" y="91"/>
			<point x="339" y="110"/>
			<point x="325" y="110" type="curve"/>
			<point x="299" y="80"/>
			<point x="265" y="63"/>
			<point x="255" y="63" type="curve" smooth="yes"/>
			<point x="247" y="63"/>
			<point x="244" y="72"/>
			<point x="244" y="84" type="curve"/>
			<point x="245" y="96"/>
			<point x="248" y="111"/>
			<point x="251" y="124" type="curve" smooth="yes"/>
		</contour>
		<contour>
			<point x="280" y="663" type="curve"/>
			<point x="228" y="663" type="line"/>
			<point x="191" y="615"/>
			<point x="145" y="570"/>
			<point x="103" y="529" type="curve"/>
			<point x="125" y="510" type="line"/>
			<point x="169" y="536"/>
			<point x="199" y="554"/>
			<point x="243" y="593" type="curve"/>
			<point x="273" y="556"/>
			<point x="299" y="536"/>
			<point x="338" y="510" type="curve"/>
			<point x="366" y="529" type="line"/>
			<point x="335" y="570"/>
			<point x="303" y="614"/>
		</contour>
	</outline>
</glyph>
<glyph name="idieresis" format="2">
	<unicode hex="00EF"/>
	<advance width="342"/>
	<outline>
		<contour>
			<point x="293" y="320" type="line" smooth="yes"/>
			<point x="302" y="360"/>
			<point x="314" y="398"/>
			<point x="314" y="415" type="curve" smooth="yes"/>
			<point x="314" y="429"/>
			<point x="306" y="436"/>
			<point x="293" y="436" type="curve" smooth="yes"/>
			<point x="261" y="436"/>
			<point x="168" y="429"/>
			<point x="121" y="423" type="curve"/>
			<point x="114" y="415"/>
			<point x="113" y="394"/>
			<point x="119" y="385" type="curve"/>
			<point x="159" y="382" type="line" smooth="yes"/>
			<point x="171" y="381"/>
			<point x="177" y="372"/>
			<point x="177" y="362" type="curve" smooth="yes"/>
			<point x="177" y="353"/>
			<point x="177" y="347"/>
			<point x="171" y="321" type="curve" smooth="yes"/>
			<point x="127" y="115" type="line" smooth="yes"/>
			<point x="120" y="83"/>
			<point x="114" y="41"/>
			<point x="120" y="23" type="curve"/>
			<point x="128" y="3"/>
			<point x="139" y="-10"/>
			<point x="169" y="-10" type="curve" smooth="yes"/>
			<point x="239" y="-10"/>
			<point x="308" y="23"/>
			<point x="354" y="82" type="curve"/>
			<point x="351" y="91"/>
			<point x="339" y="110"/>
			<point x="325" y="110" type="curve"/>
			<point x="299" y="80"/>
			<point x="265" y="63"/>
			<point x="255" y="63" type="curve" smooth="yes"/>
			<point x="247" y="63"/>
			<point x="244" y="72"/>
			<point x="244" y="84" type="curve"/>
			<point x="245" y="96"/>
			<point x="248" y="111"/>
			<point x="251" y="124" type="curve" smooth="yes"/>
		</contour>
		<contour>
			<point name=".hr01" x="116" y="573" type="curve" smooth="yes"/>
			<point x="114" y="543"/>
			<point x="136" y="519"/>
			<point x="164" y="519" type="curve" smooth="yes"/>
			<point x="193" y="519"/>
			<point x="217" y="543"/>
			<point x="219" y="573" type="curve" smooth="yes"/>
			<point x="221" y="604"/>
			<point x="201" y="628"/>
			<point x="172" y="628" type="curve" smooth="yes"/>
			<point x="143" y="628"/>
			<point x="118" y="604"/>
		</contour>
		<contour>
			<point x="291" y="573" type="curve" smooth="yes"/>
			<point x="289" y="543"/>
			<point x="309" y="519"/>
			<point x="339" y="519" type="curve" smooth="yes"/>
			<point x="367" y="519"/>
			<point x="392" y="543"/>
			<point x="394" y="573" type="curve" smooth="yes"/>
			<point x="396" y="604"/>
			<point x="375" y="628"/>
			<point x="346" y="628" type="curve" smooth="yes"/>
			<point x="317" y="628"/>
			<point x="293" y="604"/>
		</contour>
	</outline>
</glyph>
<glyph name="eth" format="2">
	<unicode hex="00F0"/>
	<advance width="559"/>
	<outline>
		<contour>
			<point x="81" y="209" type="curve" smooth="yes"/>
			<point x="77" y="191"/>
			<point x="76" y="172"/>
			<point x="77" y="154" type="curve"/>
			<point x="85" y="74"/>
			<point x="144" y="1"/>
			<point x="243" y="-9" type="curve" smooth="yes"/>
			<point x="251" y="-10"/>
			<point x="259" y="-10"/>
			<point x="267" y="-10" type="curve" smooth="yes"/>
			<point x="330" y="-10"/>
			<point x="404" y="9"/>
			<point x="461" y="52" type="curve" smooth="yes"/>
			<point x="510" y="90"/>
			<point x="545" y="146"/>
			<point x="564" y="219" type="curve"/>
			<point x="566" y="225"/>
			<point x="568" y="232"/>
			<point x="569" y="239" type="curve"/>
			<point x="577" y="274"/>
			<point x="581" y="308"/>
			<point x="580" y="340" type="curve"/>
			<point x="580" y="385"/>
			<point x="571" y="426"/>
			<point x="555" y="462" type="curve" smooth="yes"/>
			<point x="535" y="509"/>
			<point x="499" y="551"/>
			<point x="468" y="587" type="curve"/>
			<point x="464" y="591"/>
			<point x="460" y="596"/>
			<point x="456" y="600" type="curve"/>
			<point x="570" y="666" type="line"/>
			<point x="554" y="702" type="line"/>
			<point x="518" y="681"/>
			<point x="464" y="651"/>
			<point x="425" y="627" type="curve"/>
			<point x="401" y="650"/>
			<point x="366" y="673"/>
			<point x="325" y="698" type="curve"/>
			<point x="292" y="664" type="line"/>
			<point x="307" y="651"/>
			<point x="323" y="634"/>
			<point x="338" y="616" type="curve"/>
			<point x="345" y="607"/>
			<point x="353" y="598"/>
			<point x="360" y="589" type="curve"/>
			<point x="239" y="519" type="line"/>
			<point x="255" y="483" type="line"/>
			<point x="291" y="503"/>
			<point x="342" y="533"/>
			<point x="382" y="557" type="curve"/>
			<point x="406" y="526"/>
			<point x="425" y="485"/>
			<point x="434" y="439" type="curve"/>
			<point x="418" y="442"/>
			<point x="400" y="444"/>
			<point x="384" y="444" type="curve" smooth="yes"/>
			<point x="336" y="444"/>
			<point x="263" y="425"/>
			<point x="200" y="382" type="curve" smooth="yes"/>
			<point x="146" y="345"/>
			<point x="99" y="290"/>
		</contour>
		<contour>
			<point x="292" y="32" type="curve" smooth="yes"/>
			<point x="249" y="32"/>
			<point x="219" y="79"/>
			<point x="217" y="150" type="curve"/>
			<point x="217" y="173"/>
			<point x="219" y="199"/>
			<point x="225" y="227" type="curve" smooth="yes"/>
			<point x="242" y="300"/>
			<point x="290" y="402"/>
			<point x="373" y="402" type="curve" smooth="yes"/>
			<point x="402" y="402"/>
			<point x="428" y="385"/>
			<point x="445" y="361" type="curve"/>
			<point x="445" y="355"/>
			<point x="444" y="349"/>
			<point x="444" y="343" type="curve"/>
			<point x="440" y="306"/>
			<point x="435" y="264"/>
			<point x="426" y="225" type="curve" smooth="yes"/>
			<point x="391" y="67"/>
			<point x="330" y="32"/>
		</contour>
	</outline>
</glyph>
<glyph name="ocircumflex" format="2">
	<unicode hex="00F4"/>
	<advance width="479"/>
	<outline>
		<contour>
			<point x="220" y="-10" type="curve" smooth="yes"/>
			<point x="253" y="-10"/>
			<point x="291" y="-4"/>
			<point x="321" y="6" type="curve"/>
			<point x="328" y="8"/>
			<point x="335" y="11"/>
			<point x="341" y="14" type="curve" smooth="yes"/>
			<point x="428" y="58"/>
			<point x="500" y="146"/>
			<point x="500" y="281" type="curve" smooth="yes"/>
			<point x="500" y="353"/>
			<point x="463" y="439"/>
			<point x="340" y="439" type="curve" smooth="yes"/>
			<point x="294" y="439"/>
			<point x="252" y="425"/>
			<point x="217" y="405" type="curve" smooth="yes"/>
			<point x="123" y="353"/>
			<point x="67" y="249"/>
			<point x="67" y="162" type="curve" smooth="yes"/>
			<point x="67" y="98"/>
			<point x="93" y="-10"/>
		</contour>
		<contour>
			<point x="196" y="170" type="curve" smooth="yes"/>
			<point x="196" y="270"/>
			<point x="214" y="397"/>
			<point x="315" y="397" type="curve" smooth="yes"/>
			<point x="338" y="397"/>
			<point x="351" y="382"/>
			<point x="359" y="361" type="curve" smooth="yes"/>
			<point x="370" y="333"/>
			<point x="371" y="293"/>
			<point x="371" y="260" type="curve" smooth="yes"/>
			<point x="371" y="212"/>
			<point x="367" y="142"/>
			<point x="343" y="93" type="curve" smooth="yes"/>
			<point x="326" y="57"/>
			<point x="298" y="32"/>
			<point x="255" y="32" type="curve" smooth="yes"/>
			<point x="226" y="32"/>
			<point x="196" y="58"/>
		</contour>
		<contour>
			<point x="380" y="663" type="curve"/>
			<point x="328" y="663" type="line"/>
			<point x="291" y="615"/>
			<point x="245" y="570"/>
			<point x="203" y="529" type="curve"/>
			<point x="225" y="510" type="line"/>
			<point x="269" y="536"/>
			<point x="299" y="554"/>
			<point x="343" y="593" type="curve"/>
			<point x="373" y="556"/>
			<point x="399" y="536"/>
			<point x="438" y="510" type="curve"/>
			<point x="466" y="529" type="line"/>
			<point x="435" y="570"/>
			<point x="403" y="614"/>
		</contour>
	</outline>
</glyph>
